<?xml version="1.0" standalone="no"?>
<!DOCTYPE svg PUBLIC "-//W3C//DTD SVG 1.1//EN" "http://www.w3.org/Graphics/SVG/1.1/DTD/svg11.dtd" >
<svg>
<metadata>
Created by FontForge 20090914 at Mon Aug  2 07:59:23 2021
 By www-data
&#194;&#169; 1992, 1994, 1997, 2000, 2004 Adobe Systems Incorporated. All rights reserved. Protected by U.S. Patents D454,582.
</metadata>
<defs>
<font id="MyriadPro-Cond" horiz-adv-x="300" >
  <font-face 
    font-family="Myriad Pro Cond"
    font-weight="400"
    font-stretch="condensed"
    units-per-em="1000"
    panose-1="2 11 5 6 3 4 3 2 2 4"
    ascent="750"
    descent="-250"
    x-height="484"
    cap-height="674"
    bbox="-140 -250 970 934.998"
    underline-thickness="50"
    underline-position="-50"
    unicode-range="U+0020-U+FB04"
  />
<missing-glyph horiz-adv-x="500" 
d="M0 0v700h500v-700h-500zM250 395l170 255h-340zM280 350l170 -255v510zM80 50h340l-170 255zM50 605v-510l170 255z" />
    <glyph glyph-name="f_f_j" unicode="ffj" horiz-adv-x="642" 
d="M567 677l-15.998 -60c-26.667 12.667 -53.334 19 -80.001 19c-36.667 0 -62 -11 -76 -33s-21 -53.667 -21 -95v-24h217v-453c0 -50 -3.83301 -88.667 -11.5 -116s-20.167 -50.333 -37.5 -69c-13.333 -14 -30.166 -25 -50.499 -33s-38.833 -12.333 -55.5 -13l-10 61
c32 8.66699 53.667 21.334 65 38.001c15.333 23.333 23 74.666 23 153.999v373h-140v-426h-77v426h-150v-426h-77v426h-61v58h61v18c0 65.333 17.333 114.333 52 147c26 26 59.667 39 101 39c23.333 0 45.666 -5 66.999 -15l-22 -59c-14.667 7.33301 -29.334 11 -44.001 11
c-24 0 -42.333 -8.66699 -55 -26c-14.667 -20 -22 -51.667 -22 -95v-20h150v32c0 50 14 93.167 42 129.5s72.667 54.5 134 54.5c38.667 0 70 -7.66699 94 -23z" />
    <glyph glyph-name="f_j" unicode="fj" horiz-adv-x="415" 
d="M147 0h-77v426h-61v58h61v32c0 50 14 93.167 42 129.5s72.667 54.5 134 54.5c38.667 0 70 -7.66699 94 -23l-16 -60c-26.667 12.667 -53.334 19 -80.001 19c-36.667 0 -62 -11 -76 -33s-21 -53.667 -21 -95v-24h217v-453c0 -50 -3.83301 -88.667 -11.5 -116
s-20.167 -50.333 -37.5 -69c-13.333 -14 -30.166 -25 -50.499 -33s-38.833 -12.333 -55.5 -13l-10 61c32 8.66699 53.667 21.334 65 38.001c15.333 23.333 23 74.666 23 153.999v373h-140v-426z" />
    <glyph glyph-name="f_f" unicode="ff" horiz-adv-x="451" 
d="M370 0h-77.001v426h-146v-426h-77v426h-61v58h61v24c0 63.333 14.667 110.666 44 141.999c24 25.333 57.333 38 100 38c18.667 0 35.334 -3 50.001 -9l-14 -61c-10.667 4.66699 -23 7 -37 7c-24 0 -41 -9.66699 -51 -29s-15 -48.333 -15 -87v-25h146v29
c0 64.667 14.333 113.334 43 146.001c24.667 27.333 56.667 41 96 41c24.667 0 45 -4 61 -12l-13 -60c-12 5.33301 -26 8 -42 8c-45.333 0 -68 -40.333 -68 -121v-31h88v-58h-88v-426z" />
    <glyph glyph-name="f_f_i" unicode="ffi" horiz-adv-x="645" 
d="M567 677l-15.9971 -60c-26.667 12.667 -53.334 19 -80.001 19c-36.667 0 -62 -11 -76 -33s-21 -53.667 -21 -95v-24h217v-484h-77v426h-140v-426h-77v426h-150v-426h-77v426h-61v58h61v18c0 65.333 17.333 114.333 52 147c26 26 59.667 39 101 39
c23.333 0 45.666 -5 66.999 -15l-22 -59c-14.667 7.33301 -29.334 11 -44.001 11c-24 0 -42.333 -8.66699 -55 -26c-14.667 -20 -22 -51.667 -22 -95v-20h150v32c0 50 14 93.167 42 129.5s72.667 54.5 134 54.5c38.667 0 70 -7.66699 94 -23z" />
    <glyph glyph-name="f_f_l" unicode="ffl" horiz-adv-x="645" 
d="M290 673l-21.998 -59c-14.667 7.33301 -29.334 11 -44.001 11c-24 0 -42.333 -9 -55 -27c-14.667 -18.667 -22 -50 -22 -94v-20h150v26c0 64 18.333 113.333 55 148c30 28 71 42 123 42c44.667 0 83.667 -8.33301 117 -25v-675h-77v627c-15.333 6.66699 -33 10 -53 10
c-58.667 0 -88 -40.667 -88 -122v-31h83v-58h-83v-426h-77v426h-150v-426h-77v426h-61v58h61v18c0 65.333 17.333 114.333 52 147c26 26 59.667 39 101 39c23.333 0 45.666 -5 66.999 -15z" />
    <glyph glyph-name="f_i" unicode="fi" horiz-adv-x="418" 
d="M147 0h-76.999v426h-61v58h61v32c0 50 14 93.167 42 129.5s72.667 54.5 134 54.5c38.667 0 70 -7.66699 94 -23l-16 -60c-26.667 12.667 -53.334 19 -80.001 19c-36.667 0 -62 -11 -76 -33s-21 -53.667 -21 -95v-24h217v-484h-77v426h-140v-426z" />
    <glyph glyph-name="f_l" unicode="fl" horiz-adv-x="418" 
d="M147 0h-77v426h-61v58h61v26c0 64 18.333 113.333 55 148c30 28 71 42 123 42c44.667 0 83.667 -8.33301 117 -25v-675h-77v627c-15.333 6.66699 -33 10 -53 10c-58.667 0 -88 -40.667 -88 -122v-31h83v-58h-83v-426z" />
    <glyph glyph-name=".notdef" horiz-adv-x="500" 
d="M0 0v700h500v-700h-500zM250 395l170 255h-340zM280 350l170 -255v510zM80 50h340l-170 255zM50 605v-510l170 255z" />
    <glyph glyph-name="space" unicode=" " horiz-adv-x="157" 
 />
    <glyph glyph-name="exclam" unicode="!" horiz-adv-x="204" 
d="M134 187h-64l-10 487h84zM101 -8c-14 0 -25.501 5.00098 -34.501 15.001s-13.5 23 -13.5 39s4.66699 29.167 14 39.5s21 15.5 35 15.5c14.667 0 26.334 -5 35.001 -15s13 -23.333 13 -40s-4.33301 -29.834 -13 -39.501s-20.667 -14.5 -36 -14.5z" />
    <glyph glyph-name="quotedbl" unicode="&#x22;" horiz-adv-x="309" 
d="M50 683h71l-14 -233h-43zM189 683h71l-14 -233h-43z" />
    <glyph glyph-name="numbersign" unicode="#" horiz-adv-x="385" 
d="M145 252h78l19 152h-78zM113 0h-51l25 200h-64v52h71l20 152h-69v51h76l25 195h50l-25 -195h78l25 195h51l-25 -195h63v-51h-70l-19 -152h69v-51h-76l-25 -201h-52l25 201h-76z" />
    <glyph glyph-name="dollar" unicode="$" horiz-adv-x="385" 
d="M217 -84h-56v100c-39.333 0.666992 -76 11.667 -110 33l18 60c34 -21.333 67.667 -32 101 -32c29.333 0 52.166 9.5 68.499 28.5s24.5 43.167 24.5 72.5c0 28 -6.83301 52.167 -20.5 72.5s-35.5 39.5 -65.5 57.5c-38.667 23.333 -68.834 47.333 -90.501 72
s-32.5 55.667 -32.5 93c0 39.333 10.833 72.833 32.5 100.5s48.834 45.834 81.501 54.501v97h55v-91c38.667 0 70.334 -9 95.001 -27l-19 -59c-27.333 16.667 -56.333 25 -87 25c-26 0 -46.667 -8.83301 -62 -26.5s-23 -37.834 -23 -60.501
c0 -27.333 6.66699 -48.833 20 -64.5s38.333 -34.5 75 -56.5c76 -44.667 114 -103.667 114 -177c0 -45.333 -11.167 -82.333 -33.5 -111s-50.833 -47 -85.5 -55v-106z" />
    <glyph glyph-name="percent" unicode="%" horiz-adv-x="645" 
d="M154 658c36.667 0 66.001 -17.833 88.001 -53.5s33 -83.167 33 -142.5c0 -64.667 -11.833 -113.834 -35.5 -147.501s-52.5 -50.5 -86.5 -50.5c-36.667 0 -66.334 17.667 -89.001 53s-34 83 -34 143c0 60.667 11.667 108.834 35 144.501s53 53.5 89 53.5zM151.001 610
c-22 0 -37.833 -14.833 -47.5 -44.5s-14.5 -64.5 -14.5 -104.5c0 -99.333 21.333 -149 64 -149c42 0 63 49.333 63 148c0 100 -21.667 150 -65 150zM173.001 -14h-49l346 677h49zM494.001 387c36.667 0 66.001 -18.001 88.001 -54.001s33 -83.667 33 -143
c0 -64 -11.833 -112.833 -35.5 -146.5s-52.5 -50.5 -86.5 -50.5c-36.667 0 -66.334 17.667 -89.001 53s-34 83 -34 143c0 60.667 11.667 108.834 35 144.501s53 53.5 89 53.5zM491.002 338.999c-22 0 -37.833 -14.833 -47.5 -44.5s-14.5 -64.5 -14.5 -104.5
c0 -25.333 1.83301 -48.5 5.5 -69.5s10.5 -39.5 20.5 -55.5s22.667 -24 38 -24c42 0 63 49.333 63 148c0 100 -21.667 150 -65 150z" />
    <glyph glyph-name="ampersand" unicode="&#x26;" horiz-adv-x="491" 
d="M473 0h-84.9971l-19.5 27l-25.5 36c-38 -47.333 -86.667 -71 -146 -71c-52.667 0 -93.834 18.333 -123.501 55s-44.5 80.334 -44.5 131.001c0 77.333 34.333 141.666 103 192.999v3c-32.667 52 -49 102.333 -49 151c0 43.333 12.5 80.333 37.5 111s58.5 46 100.5 46
c33.333 0 61.5 -12 84.5 -36s34.5 -58 34.5 -102c0 -34.667 -8.83301 -66.167 -26.5 -94.5s-47.5 -57.5 -89.5 -87.5v-3c37.333 -62.667 80 -126.334 128 -191.001c23.333 49.333 36.666 114 39.999 194h69c-8.66699 -102.667 -33.334 -184 -74.001 -244
c3.33301 -5.33301 32 -44.666 86 -117.999zM210.003 53c41.333 0 74.333 19.667 99 59c-52.667 72 -101 142.667 -145 212c-40.667 -38 -61 -83.667 -61 -137c0 -36.667 9.5 -68.167 28.5 -94.5s45.167 -39.5 78.5 -39.5zM214.003 625c-18.667 0 -33.333 -9 -44 -27
s-16 -40.667 -16 -68c0 -42 12.667 -83 38 -123c53.333 40 80 84.333 80 133c0 23.333 -4.66699 43.333 -14 60s-24 25 -44 25z" />
    <glyph glyph-name="quotesingle" unicode="'" horiz-adv-x="170" 
d="M50 683h71l-14 -233h-43z" />
    <glyph glyph-name="parenleft" unicode="(" horiz-adv-x="253" 
d="M168 692h60c-69.333 -109.333 -104 -245 -104 -407c0 -159.333 34.667 -294.333 104 -405h-60c-72.667 106 -109 241.333 -109 406c2 168.667 38.333 304 109 406z" />
    <glyph glyph-name="parenright" unicode=")" horiz-adv-x="253" 
d="M85 -120h-60c69.333 109.333 104 245 104 407c0 160.667 -34.667 295.667 -104 405h60c72.667 -103.333 109 -238.333 109 -405c-2 -166 -38.333 -301.667 -109 -407z" />
    <glyph glyph-name="asterisk" unicode="*" horiz-adv-x="373" 
d="M244 682l54 -30l-86 -120l1 -2l135 17v-60l-135 15l-1 -2l88 -115l-56 -32l-59 132l-2 -1l-60 -134l-51 33l85 120l-1 1l-132 -17v60l131 -16l1 2l-83 116l52 30l60 -128h2z" />
    <glyph glyph-name="plus" unicode="+" horiz-adv-x="596" 
d="M270 533h57v-238h230v-55h-230v-240h-57v240h-229v55h229v238z" />
    <glyph glyph-name="comma" unicode="," horiz-adv-x="194" 
d="M70 -119l-53 -7.00098c26.667 74.667 46 152.334 58 233.001l87 10c-12 -42 -27 -86.5 -45 -133.5s-33.667 -81.167 -47 -102.5z" />
    <glyph glyph-name="hyphen" unicode="-" horiz-adv-x="279" 
d="M30 291h219v-59h-219v59z" />
    <glyph glyph-name="period" unicode="." horiz-adv-x="194" 
d="M99 -8c-14 0 -25.832 5.33301 -35.499 16s-14.5 24.667 -14.5 42c0 16.667 5 30.5 15 41.5s22 16.5 36 16.5c15.333 0 27.666 -5.33301 36.999 -16s14 -24.667 14 -42c0 -18 -4.66699 -32.167 -14 -42.5s-22 -15.5 -38 -15.5z" />
    <glyph glyph-name="slash" unicode="/" horiz-adv-x="281" 
d="M66 -40h-58l215 722h58z" />
    <glyph glyph-name="zero" unicode="0" horiz-adv-x="385" 
d="M198 658c52 0 91.668 -29.167 119.001 -87.5s41 -139.833 41 -244.5c0 -112.667 -15.5 -196.5 -46.5 -251.5s-71.833 -82.5 -122.5 -82.5s-90.334 29 -119.001 87s-43 139.667 -43 245c0 108 15 190.667 45 248s72 86 126 86zM194.001 592
c-30 0 -52.501 -24.001 -67.501 -72.001s-22.5 -113 -22.5 -195c-0.666992 -82 6.5 -147 21.5 -195s37.833 -72 68.5 -72c58 0 87 89 87 267c0 80.667 -7.16699 145.334 -21.5 194.001s-36.166 73 -65.499 73z" />
    <glyph glyph-name="one" unicode="1" horiz-adv-x="385" 
d="M188 0v572h-2l-108 -62l-15 60l137 80h63v-650h-75z" />
    <glyph glyph-name="two" unicode="2" horiz-adv-x="385" 
d="M345 0l-312 -0.000976562v50l54 74l61.5 87c12.333 18 29 44.667 50 80s35.833 67.833 44.5 97.5s13 58.834 13 87.501c0 36.667 -7.83301 65.167 -23.5 85.5s-38.5 30.5 -68.5 30.5c-28 0 -59.333 -12 -94 -36l-19 58c34 29.333 76.333 44 127 44
c51.333 0 89.833 -16.5 115.5 -49.5s38.5 -75.833 38.5 -128.5c0 -54.667 -14 -109.5 -42 -164.5s-67.333 -116.833 -118 -185.5l-43 -60v-2h216v-68z" />
    <glyph glyph-name="three" unicode="3" horiz-adv-x="385" 
d="M28 22l16.998 61.001c30 -18 61 -27 93 -27c34 0 61.333 11.5 82 34.5s31 54.5 31 94.5c0 42 -11.833 75 -35.5 99s-55.5 36 -95.5 36h-18v58h15c27.333 0 53.666 10.167 78.999 30.5s38 48.833 38 85.5c0 32 -7.83301 56.667 -23.5 74s-36.5 26 -62.5 26
c-25.333 0 -52.333 -10.333 -81 -31l-17 58c31.333 24.667 70.333 37 117 37c44.667 0 79.834 -14.167 105.501 -42.5s38.5 -64.166 38.5 -107.499c0 -33.333 -8.5 -63.5 -25.5 -90.5s-40.833 -47.5 -71.5 -61.5v-2c32.667 -8.66699 59.834 -27.334 81.501 -56.001
s32.5 -66.667 32.5 -114c0 -54.667 -16.667 -100.334 -50 -137.001s-78.666 -55 -135.999 -55c-47.333 0 -85.333 10 -114 30z" />
    <glyph glyph-name="four" unicode="4" horiz-adv-x="385" 
d="M304 0h-70v180h-216v52l211 418h75v-407h70v-63h-70v-180zM91 243h143v183c0 28 2 70.667 6 128h-4c-16 -38 -34.333 -78.667 -55 -122l-90 -187v-2z" />
    <glyph glyph-name="five" unicode="5" horiz-adv-x="385" 
d="M332 650v-68.001h-174l-27 -173c5.33301 1.33301 13.333 2 24 2c19.333 0 40.833 -4.33301 64.5 -13s43.167 -20.667 58.5 -36c36.667 -35.333 55 -84.666 55 -147.999c0 -65.333 -18.333 -118.666 -55 -159.999s-83.667 -62 -141 -62c-46 0 -83 9.66699 -111 29l17 60
c30 -16.667 60.333 -25 91 -25c34.667 0 63.834 13.167 87.501 39.5s35.5 63.166 35.5 110.499c0 49.333 -13.333 86 -40 110s-62.334 36 -107.001 36c-22 0 -39 -1 -51 -3l41 301h232z" />
    <glyph glyph-name="six" unicode="6" horiz-adv-x="385" 
d="M319 658v-65.001c-12.667 0 -28 -2 -46 -6c-89.333 -22.667 -145 -101 -167 -235h3c28 41.333 64.667 62 110 62c41.333 0 75 -18 101 -54s39 -84.667 39 -146c0 -64 -14.167 -117 -42.5 -159s-67.5 -63 -117.5 -63c-55.333 0 -97.666 24.5 -126.999 73.5
s-44 112.833 -44 191.5c0 118.667 28 216.334 84 293.001c39.333 54 92 88 158 102c19.333 2.66699 35.666 4.66699 48.999 6zM200 51.999c23.333 0 42.834 12.832 58.501 38.499s23.5 64.834 23.5 117.501c0 48 -7.83301 84.5 -23.5 109.5s-36.834 37.5 -63.501 37.5
c-38.667 0 -67 -23.333 -85 -70c-3.33301 -10 -5 -23 -5 -39c0.666992 -64 9.66699 -112.333 27 -145s40 -49 68 -49z" />
    <glyph glyph-name="seven" unicode="7" horiz-adv-x="385" 
d="M37 650h313v-46l-210 -604h-75l206 580v2h-234v68z" />
    <glyph glyph-name="eight" unicode="8" horiz-adv-x="385" 
d="M135 345l-0.999023 2c-26.667 18 -47.5 40.333 -62.5 67s-22.5 54 -22.5 82c0 48.667 14.833 87.834 44.5 117.501s65.167 44.5 106.5 44.5c44 0 78.333 -15.333 103 -46s37 -66.334 37 -107.001c0 -62 -29 -113.333 -87 -154v-2c69.333 -46 104 -105.333 104 -178
c0 -51.333 -15.5 -94 -46.5 -128s-71.167 -51 -120.5 -51c-50.667 0 -90.334 16.667 -119.001 50s-43 72 -43 116c0 74.667 35.667 137 107 187zM193.001 49c26 0 47.167 10 63.5 30s24.5 49.333 24.5 88c0 59.333 -31 109.333 -93 150c-26 -16 -46.5 -37 -61.5 -63
s-22.5 -53.667 -22.5 -83c0 -36.667 8 -66.167 24 -88.5s37.667 -33.5 65 -33.5zM195.001 601c-21.333 0 -38.668 -9.33301 -52.001 -28s-20 -42.667 -20 -72c0 -30 7.16699 -54.333 21.5 -73s33.833 -36 58.5 -52c42.667 30.667 64 70.667 64 120
c0 32 -6.16699 57.5 -18.5 76.5s-30.166 28.5 -53.499 28.5z" />
    <glyph glyph-name="nine" unicode="9" horiz-adv-x="385" 
d="M67 -8l-0.00195312 66c15.333 0 31.333 2 48 6c34.667 8.66699 64.334 25.667 89.001 51c40.667 44 66 105.333 76 184h-2c-30 -36 -65.667 -54 -107 -54s-75.166 17.667 -101.499 53s-39.5 82 -39.5 140c0 61.333 15.167 113.333 45.5 156s69.833 64 118.5 64
c53.333 0 93.833 -24.5 121.5 -73.5s41.5 -111.5 41.5 -187.5c0 -124 -28.667 -224.333 -86 -301c-38 -52 -88 -84.667 -150 -98c-16.667 -4 -34.667 -6 -54 -6zM188.998 598c-22.667 0 -42.333 -12.833 -59 -38.5s-24.667 -64.167 -24 -115.5c0 -46 8 -81 24 -105
s37.333 -36 64 -36c16 0 31.333 5.16699 46 15.5s26 24.5 34 42.5c4 10 6 23.667 6 41c0 65.333 -8.33301 114.333 -25 147s-38.667 49 -66 49z" />
    <glyph glyph-name="colon" unicode=":" horiz-adv-x="194" 
d="M99 359c-14 0 -25.667 5.16504 -35 15.498s-14 23.833 -14 40.5s4.83301 30.334 14.5 41.001s21.5 16 35.5 16c14.667 0 26.667 -5.16699 36 -15.5s14 -24.166 14 -41.499c0 -16.667 -4.5 -30.167 -13.5 -40.5s-21.5 -15.5 -37.5 -15.5zM99 -8.00195
c-14 0 -25.667 5.16504 -35 15.498s-14 23.833 -14 40.5s4.83301 30.334 14.5 41.001s21.5 16 35.5 16c14.667 0 26.667 -5.16699 36 -15.5s14 -24.166 14 -41.499c0 -16.667 -4.5 -30.167 -13.5 -40.5s-21.5 -15.5 -37.5 -15.5z" />
    <glyph glyph-name="semicolon" unicode=";" horiz-adv-x="194" 
d="M69 -119l-51 -7c26.667 77.333 45.667 155 57 233l86 10c-12 -42 -27 -86.5 -45 -133.5s-33.667 -81.167 -47 -102.5zM110 359c-14 0 -25.667 5.16504 -35 15.498s-14 23.833 -14 40.5s4.83301 30.334 14.5 41.001s21.5 16 35.5 16c14.667 0 26.667 -5.16699 36 -15.5
s14 -24.166 14 -41.499c0 -16.667 -4.5 -30.167 -13.5 -40.5s-21.5 -15.5 -37.5 -15.5z" />
    <glyph glyph-name="less" unicode="&#x3c;" horiz-adv-x="596" 
d="M66 243v47l464 242v-67l-388 -198v-2l388 -199v-66z" />
    <glyph glyph-name="equal" unicode="=" horiz-adv-x="596" 
d="M556 336h-516v55h516v-55zM556 147h-516v55h516v-55z" />
    <glyph glyph-name="greater" unicode="&#x3e;" horiz-adv-x="596" 
d="M530 295v-58l-464 -237v66l400 199v2l-400 199v66z" />
    <glyph glyph-name="question" unicode="?" horiz-adv-x="309" 
d="M173 184l-67.999 -0.000976562l-2 15c-10.667 62 3.33301 125.333 42 190c1.33301 2 4.83301 8 10.5 18s9.16699 16 10.5 18s4.16602 7.16699 8.49902 15.5l8.5 16.5c1.33301 2.66699 3.5 7.66699 6.5 15s5 12.833 6 16.5l4 15c1.66699 6.33301 2.66699 12.166 3 17.499
s0.5 11 0.5 17c0 27.333 -7 47.666 -21 60.999s-32.667 20 -56 20c-26.667 0 -48.667 -6 -66 -18l-16 59c25.333 17.333 58.333 26 99 26c46.667 0 81.5 -13.167 104.5 -39.5s34.5 -59.166 34.5 -98.499c0 -12 -1.16699 -24 -3.5 -36s-5 -22.5 -8 -31.5
s-7.66699 -19.667 -14 -32s-11.333 -21.666 -15 -27.999s-9.66699 -16.166 -18 -29.499s-13.833 -22.333 -16.5 -27c-16 -28 -26.667 -54 -32 -78s-6.33301 -52.333 -3 -85zM134.001 -8.00098c-14 0 -25.667 5.16504 -35 15.498s-14 23.5 -14 39.5
c0 16.667 4.83301 30.334 14.5 41.001s21.5 16 35.5 16c15.333 0 27.5 -5.16699 36.5 -15.5s13.5 -24.166 13.5 -41.499c0 -16.667 -4.5 -30 -13.5 -40s-21.5 -15 -37.5 -15z" />
    <glyph glyph-name="at" unicode="@" horiz-adv-x="590" 
d="M348 234l29 146c-6 2.66699 -15.333 4 -28 4c-36.667 0 -68.5 -21.833 -95.5 -65.5s-40.5 -91.167 -40.5 -142.5c0 -42 13.333 -63 40 -63c20 0 39.333 12.5 58 37.5s31 52.833 37 83.5zM409 -28l12.9971 -34.999c-42 -25.333 -91.333 -38 -148 -38
c-70 0 -127.333 24.667 -172 74s-67 120.666 -67 213.999c0 112 30.333 208 91 288s135.667 120 225 120c66 0 117.333 -22.167 154 -66.5s55 -102.5 55 -174.5c0 -92 -14.167 -163.167 -42.5 -213.5s-65.5 -75.5 -111.5 -75.5c-19.333 0 -34.333 6.83301 -45 20.5
s-15 33.5 -13 59.5h-3c-29.333 -53.333 -65.666 -80 -108.999 -80c-24.667 0 -44.334 9.5 -59.001 28.5s-22 46.167 -22 81.5c0 38.667 7.66699 76.834 23 114.501s39.833 70.167 73.5 97.5s72.834 41 117.501 41c26.667 0 50 -4.66699 70 -14l-40 -202
c-13.333 -70 -6 -105 22 -105c24.667 0 46.5 21.667 65.5 65s28.5 97.666 28.5 162.999c0 70 -14.167 124.333 -42.5 163s-71.166 58 -128.499 58c-71.333 0 -133.166 -35 -185.499 -105s-78.5 -158.333 -78.5 -265c0 -80 18 -141 54 -183s86.667 -63 152 -63
c42.667 0 83.667 10.667 123 32z" />
    <glyph glyph-name="A" unicode="A" horiz-adv-x="435" 
d="M291 202h-150l-44 -202h-75l154 674h85l150 -674h-76zM152 264l128 -0.000976562l-35 171c-6.66699 32.667 -15.667 84 -27 154h-3c-10 -63.333 -19.333 -114.666 -28 -153.999z" />
    <glyph glyph-name="B" unicode="B" horiz-adv-x="416" 
d="M61 3v661c34.667 8.66699 72 13 112 13c66 0 115.667 -15.667 149 -47c29.333 -27.333 44 -65.666 44 -114.999c0 -34.667 -9 -64.834 -27 -90.501s-43.667 -45.167 -77 -58.5v-3c39.333 -10.667 70 -31 92 -61s33 -67 33 -111c0 -54 -16 -98.667 -48 -134
c-36 -40.667 -95.333 -61 -178 -61c-42 0 -75.333 2.33301 -100 7zM137 612v-224h35c32 0 59.5 11.167 82.5 33.5s34.5 50.833 34.5 85.5c0 73.333 -37 110 -111 110c-17.333 0 -31 -1.66699 -41 -5zM137 329v-268.001c12 -2.66699 25 -4 39 -4c40 0 71.833 11.667 95.5 35
s35.5 56.333 35.5 99c0 44 -13 77.833 -39 101.5s-58.333 35.834 -97 36.501h-34z" />
    <glyph glyph-name="C" unicode="C" horiz-adv-x="373" 
d="M342 76l12.9971 -64c-22.667 -12 -55 -18 -97 -18c-68.667 0 -123.5 28.167 -164.5 84.5s-61.5 139.833 -61.5 250.5c0 63.333 7.33301 118.833 22 166.5s34 84.334 58 110.001s49.333 44.5 76 56.5s54.334 18 83.001 18c38.667 0 66.334 -5.66699 83.001 -17l-17 -65
c-21.333 9.33301 -43.666 14 -66.999 14c-42 0 -78.667 -22.333 -110 -67s-47 -114.334 -47 -209.001c0 -96 14.833 -165.667 44.5 -209s67.834 -65 114.501 -65c25.333 0 48.666 4.66699 69.999 14z" />
    <glyph glyph-name="D" unicode="D" horiz-adv-x="445" 
d="M61 3v661c28 8.66699 62.333 13 103 13c67.333 0 120 -17 158 -51c60.667 -52.667 91 -143.667 91 -273c0 -130.667 -27 -225.667 -81 -285c-43.333 -48 -105.333 -72 -186 -72c-36 0 -64.333 2.33301 -85 7zM137 610l0.000976562 -548.001c7.33301 -1.33301 17 -2 29 -2
c18 0 34.667 2.66699 50 8s30.333 14.833 45 28.5s27.167 31.334 37.5 53.001s18.666 49.5 24.999 83.5s9.5 73.333 9.5 118c0 175.333 -53.333 263 -160 263c-15.333 0 -27.333 -1.33301 -36 -4z" />
    <glyph glyph-name="E" unicode="E" horiz-adv-x="354" 
d="M306 385v-65h-169v-253h192v-67h-269v674h257v-67h-180v-222h169z" />
    <glyph glyph-name="F" unicode="F" horiz-adv-x="345" 
d="M60 0v674h257v-67h-180v-236h168v-65h-168v-306h-77z" />
    <glyph glyph-name="G" unicode="G" horiz-adv-x="436" 
d="M391 352v-335.001c-36 -15.333 -75.667 -23 -119 -23c-66 0 -119 21.667 -159 65c-54.667 58.667 -81.667 148.334 -81 269.001s26 209.5 76 266.5s109.333 85.5 178 85.5c40 0 71.667 -6.33301 95 -19l-17 -66c-21.333 10.667 -47 16 -77 16c-48.667 0 -90 -22 -124 -66
s-51 -114 -51 -210s15.167 -165.833 45.5 -209.5s68.5 -65.5 114.5 -65.5c23.333 0 39 2.66699 47 8v220h-87v64h159z" />
    <glyph glyph-name="H" unicode="H" horiz-adv-x="463" 
d="M60 674h77v-289h189v289h77v-674h-77v315h-189v-315h-77v674z" />
    <glyph glyph-name="I" unicode="I" horiz-adv-x="199" 
d="M60 674h77v-674h-77v674z" />
    <glyph glyph-name="J" unicode="J" horiz-adv-x="265" 
d="M134 189l0.000976562 485h77v-484c0 -72 -13.5 -123 -40.5 -153s-66.167 -45 -117.5 -45c-21.333 0 -38 2.33301 -50 7l7 65c8.66699 -2.66699 21 -4 37 -4c29.333 0 51.166 9 65.499 27s21.5 52 21.5 102z" />
    <glyph glyph-name="K" unicode="K" horiz-adv-x="404" 
d="M61 0v674h76v-320h2c8 14 22 41 42 81l126 239h85l-165 -288l169 -386h-83l-138 325l-38 -65v-260h-76z" />
    <glyph glyph-name="L" unicode="L" horiz-adv-x="344" 
d="M60 0v674h77v-609h189v-65h-266z" />
    <glyph glyph-name="M" unicode="M" horiz-adv-x="599" 
d="M482 0l-14 290.001c-6.66699 121.333 -9 209.333 -7 264h-4c-16.667 -83.333 -34.667 -161.333 -54 -234l-82 -316h-50l-78 303c-23.333 88.667 -42 171 -56 247h-3c0.666992 -39.333 -2 -129 -8 -269l-13 -285h-69l40 674h84l78 -308
c26.667 -102.667 44.667 -180 54 -232h3c9.33301 55.333 26 132.666 50 231.999l76 308h86l39 -674h-72z" />
    <glyph glyph-name="N" unicode="N" horiz-adv-x="465" 
d="M130 0h-69.001v674h72l124 -316c44.667 -116.667 73.334 -195 86.001 -235h2c-6 106 -9 209.333 -9 310v241h69v-674h-72l-128 324c-34 82.667 -61 159 -81 229h-2c5.33301 -80 8 -186.667 8 -320v-233z" />
    <glyph glyph-name="O" unicode="O" horiz-adv-x="446" 
d="M230 682c57.333 0 102.334 -29.833 135.001 -89.5s49 -143.167 49 -250.5c0 -120 -17.833 -208.333 -53.5 -265s-82.834 -85 -141.501 -85c-57.333 0 -102.833 29.833 -136.5 89.5s-50.5 145.167 -50.5 256.5c0 109.333 18 194 54 254s84 90 144 90zM224.001 614
c-26.667 0 -48.834 -13.999 -66.501 -41.999s-29.667 -61.833 -36 -101.5s-9.5 -84.167 -9.5 -133.5c0 -36.667 2 -70.834 6 -102.501s10.167 -61 18.5 -88s20 -48.167 35 -63.5s32.833 -23 53.5 -23s38.334 8.16699 53.001 24.5s26 38.5 34 66.5s13.667 57.333 17 88
s5 64 5 100c0 34 -1.66699 66.167 -5 96.5s-9 59.5 -17 87.5s-19.5 50.167 -34.5 66.5s-32.833 24.5 -53.5 24.5z" />
    <glyph glyph-name="P" unicode="P" horiz-adv-x="399" 
d="M61 0l-0.000976562 664.001c33.333 8.66699 70.333 13 111 13c66.667 0 116.667 -16.333 150 -49c32.667 -32.667 49 -79.334 49 -140.001c0 -56 -13.667 -102 -41 -138c-17.333 -24 -40.333 -42.5 -69 -55.5s-58.667 -19.5 -90 -19.5
c-15.333 0 -26.666 0.333008 -33.999 1v-276h-76zM136.999 609.001l-0.00195312 -269c12 -1.33301 22.333 -2 31 -2c38.667 0 69.334 12.5 92.001 37.5s34 60.833 34 107.5c0 38.667 -9 70.167 -27 94.5s-47 36.5 -87 36.5c-17.333 0 -31.666 -1.66699 -42.999 -5z" />
    <glyph glyph-name="Q" unicode="Q" horiz-adv-x="446" 
d="M430 -29l-28.998 -61.999c-60.667 25.333 -112.334 49.666 -155.001 72.999c-12 6.66699 -20.333 10 -25 10c-58 0 -104 29.167 -138 87.5s-51 144.5 -51 258.5c0 110 18 194.833 54 254.5s84.333 89.5 145 89.5c57.333 0 102.166 -30 134.499 -90
s48.5 -143.333 48.5 -250c0 -176.667 -38.333 -283 -115 -319v-3c22 -10 65.667 -26.333 131 -49zM226.002 60.001c20 0 37.501 8 52.501 24s26.333 38 34 66s13.167 57.5 16.5 88.5s5 64.5 5 100.5c0 34.667 -1.66699 67.334 -5 98.001s-9 59.834 -17 87.501
s-19.333 49.5 -34 65.5s-32.334 24 -53.001 24s-38.667 -8.16699 -54 -24.5s-27.166 -38.333 -35.499 -66s-14.333 -56.834 -18 -87.501s-5.5 -63.334 -5.5 -98.001c-0.666992 -48.667 2.16602 -92.667 8.49902 -132s18.5 -73.5 36.5 -102.5s41 -43.5 69 -43.5z" />
    <glyph glyph-name="R" unicode="R" horiz-adv-x="409" 
d="M61 0l-0.000976562 664c30.667 8.66699 67.334 13 110.001 13c68.667 0 119.334 -16 152.001 -48c31.333 -32 47 -76 47 -132c0 -82 -36 -140 -108 -174v-2c24.667 -7.33301 44 -23.166 58 -47.499s24.667 -58.833 32 -103.5c16 -92.667 29 -149.334 39 -170.001h-78
c-9.33301 18.667 -21.333 74 -36 166c-7.33301 46.667 -19.333 79.5 -36 98.5s-41.334 28.5 -74.001 28.5h-30v-293h-76zM136.999 611l0.000976562 -258.001h33c36.667 0 66.167 12.333 88.5 37s33.5 57.334 33.5 98.001c0 84 -38 126.333 -114 127
c-18.667 0 -32.334 -1.33301 -41.001 -4z" />
    <glyph glyph-name="S" unicode="S" horiz-adv-x="361" 
d="M28 23l17.002 66.001c26.667 -18 58.667 -27 96 -27c35.333 0 63 10.333 83 31s30 48.334 30 83.001c0 28.667 -7.33301 53.5 -22 74.5s-37 42.833 -67 65.5c-84.667 58 -127 120.333 -127 187c0 51.333 16.5 93.666 49.5 126.999s75.833 50 128.5 50
c40.667 0 72 -8.33301 94 -25l-18 -66c-22 15.333 -48.667 23 -80 23s-55.5 -9.66699 -72.5 -29s-25.5 -41.666 -25.5 -66.999c0 -30.667 7.16699 -54.834 21.5 -72.501s40.166 -39.834 77.499 -66.501c78 -54.667 117 -119.334 117 -194.001
c0 -57.333 -17.833 -103.166 -53.5 -137.499s-80.834 -51.5 -135.501 -51.5c-22 0 -43.833 3 -65.5 9s-37.5 12.667 -47.5 20z" />
    <glyph glyph-name="T" unicode="T" horiz-adv-x="354" 
d="M139 0v605h-123v69h323v-69h-123v-605h-77z" />
    <glyph glyph-name="U" unicode="U" horiz-adv-x="457" 
d="M59 674h77v-452c0 -108 30.333 -162 91 -162c62.667 0 94 54 94 162v452h77v-440c0 -83.333 -15.333 -144.5 -46 -183.5s-72.667 -58.5 -126 -58.5c-111.333 0 -167 77.667 -167 233v449z" />
    <glyph glyph-name="V" unicode="V" horiz-adv-x="421" 
d="M249 0l-79 -0.000976562l-154 674h83l65 -316c23.333 -111.333 39.333 -197.666 48 -258.999h3c6.66699 56.667 21.667 143.667 45 261l64 314h82z" />
    <glyph glyph-name="W" unicode="W" horiz-adv-x="654" 
d="M222 0l-72.999 0.000976562l-129 674h79l57 -325c13.333 -74.667 24.666 -155.667 33.999 -243h3c5.33301 52.667 19 134 41 244l62 324h65l63 -317c20.667 -108.667 33.667 -192.334 39 -251.001h3c6 54.667 17.667 137 35 247l56 321h76l-131 -674h-76l-64 328
c-14 71.333 -25.667 145 -35 221h-2c-8.66699 -76 -21 -150.667 -37 -224z" />
    <glyph glyph-name="X" unicode="X" horiz-adv-x="392" 
d="M378 0l-80 0.000976562l-61 162c-16.667 44.667 -30.667 84 -42 118h-3l-40 -120l-58 -160h-79l138 344l-134 330h80l61 -156c14 -36.667 27 -72.334 39 -107.001h2l37 110l55 153h78l-132 -328z" />
    <glyph glyph-name="Y" unicode="Y" horiz-adv-x="394" 
d="M235 0l-77.001 0.000976562v285l-149 389h82l60 -169c26.667 -78.667 43.334 -129.334 50.001 -152.001h2c8 32 24.333 83.667 49 155l57 166h80l-154 -386v-288z" />
    <glyph glyph-name="Z" unicode="Z" horiz-adv-x="358" 
d="M20 0v46l231 560v2h-212v66h298v-52l-227 -553v-3h226v-66h-316z" />
    <glyph glyph-name="bracketleft" unicode="[" horiz-adv-x="253" 
d="M222 -112h-148v798h148v-53h-86v-692h86v-53z" />
    <glyph glyph-name="backslash" unicode="\" horiz-adv-x="263" 
d="M255 -40h-58l-196 722h58z" />
    <glyph glyph-name="bracketright" unicode="]" horiz-adv-x="253" 
d="M31 686h149v-798h-149v53h86v692h-86v53z" />
    <glyph glyph-name="asciicircum" unicode="^" horiz-adv-x="596" 
d="M532 189h-65l-168 388h-3l-168 -388h-64l206 461h56z" />
    <glyph glyph-name="underscore" unicode="_" horiz-adv-x="500" 
d="M0 -75h500v-50h-500v50z" />
    <glyph glyph-name="grave" unicode="`" 
d="M39 682h79l77 -135h-51z" />
    <glyph glyph-name="a" unicode="a" horiz-adv-x="364" 
d="M309 320l0.000976562 -210c0 -47.333 1.66699 -84 5 -110h-69l-5 51h-3c-22 -39.333 -54.333 -59 -97 -59c-32.667 0 -59.834 12.667 -81.501 38s-32.5 58.666 -32.5 99.999c0 57.333 19.5 100.833 58.5 130.5s88.167 44.834 147.5 45.501v15
c0 35.333 -5.83301 62.333 -17.5 81s-31.5 28 -59.5 28c-29.333 0 -56 -8.33301 -80 -25l-17 54c30 21.333 67.667 32 113 32c92 0 138 -57 138 -171zM234.001 153l-0.000976562 98c-88.667 0 -133 -37.667 -133 -113c0 -29.333 5.83301 -51 17.5 -65s25.5 -21 41.5 -21
c17.333 0 32.333 6.33301 45 19s21.334 30.667 26.001 54c2 8.66699 3 18 3 28z" />
    <glyph glyph-name="b" unicode="b" horiz-adv-x="399" 
d="M53 116l0.00195312 575.999h76v-266h2c22.667 43.333 57 65 103 65c39.333 0 71.166 -21.5 95.499 -64.5s36.5 -103.167 36.5 -180.5c0 -82 -14.333 -144.833 -43 -188.5s-63.334 -65.5 -104.001 -65.5c-42 0 -74 23.667 -96 71h-4l-5 -63h-65
c2.66699 74.667 4 113.334 4 116.001zM129.002 305.999l-0.000976562 -136c0 -10.667 1 -20.667 3 -30c14 -56 38.333 -84 73 -84c56 0 84 62.333 84 187c0 53.333 -7 97 -21 131s-35.667 51 -65 51c-17.333 0 -32.666 -8.66699 -45.999 -26s-22 -37.333 -26 -60
c-1.33301 -14.667 -2 -25.667 -2 -33z" />
    <glyph glyph-name="c" unicode="c" horiz-adv-x="302" 
d="M279 71l11.001 -59c-20.667 -12 -47.334 -18 -80.001 -18c-54 0 -97 21.167 -129 63.5s-48 102.833 -48 181.5c0 72 17.167 132 51.5 180s80.833 72 139.5 72c28 0 50.667 -5 68 -15l-15 -63c-17.333 8.66699 -35.666 13 -54.999 13c-36.667 0 -64.5 -18.167 -83.5 -54.5
s-28.5 -80.5 -28.5 -132.5c0 -56.667 10.167 -101 30.5 -133s48.166 -48 83.499 -48c20 0 38.333 4.33301 55 13z" />
    <glyph glyph-name="d" unicode="d" horiz-adv-x="399" 
d="M269 692l76 0.000976562v-576c0 -2.66699 1.33301 -41.334 4 -116.001h-66l-5 60h-3c-21.333 -45.333 -55.333 -68 -102 -68c-41.333 0 -75 21.833 -101 65.5s-39 104.5 -39 182.5c0 80.667 14.167 142.667 42.5 186s62.5 65 102.5 65c42 0 71.667 -19 89 -57h2v258z
M269 171.001l0.000976562 127.998c0 14.667 -0.333008 25.334 -1 32.001c-2.66699 26 -10.834 48.167 -24.501 66.5s-29.5 27.5 -47.5 27.5c-30 0 -51.833 -17.5 -65.5 -52.5s-20.5 -79.167 -20.5 -132.5c0 -54 7 -98.167 21 -132.5s34.333 -51.5 61 -51.5
c36 0 60.667 27.667 74 83c2 8.66699 3 19.334 3 32.001z" />
    <glyph glyph-name="e" unicode="e" horiz-adv-x="363" 
d="M332 235l-224.001 0.000976562c0 -120 38 -180 114 -180c30.667 0 57.334 6 80.001 18l13 -56c-29.333 -15.333 -65 -23 -107 -23c-56.667 0 -100.167 21.667 -130.5 65s-45.5 102.666 -45.5 177.999c0 77.333 15.167 139 45.5 185s69.833 69 118.5 69
c46 0 80.5 -20.5 103.5 -61.5s34.5 -91.167 34.5 -150.5c0 -13.333 -0.666992 -28 -2 -44zM108.999 292.001h150.999c0.666992 45.333 -6.16602 79.833 -20.499 103.5s-31.5 35.5 -51.5 35.5c-24 0 -42.667 -13.833 -56 -41.5s-21 -60.167 -23 -97.5z" />
    <glyph glyph-name="f" unicode="f" horiz-adv-x="228" 
d="M147 0l-77.001 -0.000976562v426h-61v58h61v29c0 64.667 14.333 113.334 43 146.001c24.667 27.333 57 41 97 41c24 0 44 -4 60 -12l-12 -60c-13.333 5.33301 -27.666 8 -42.999 8c-45.333 0 -68 -40.333 -68 -121v-31h88v-58h-88v-426z" />
    <glyph glyph-name="g" unicode="g" horiz-adv-x="399" 
d="M346 333v-271.001c0 -60.667 -3.83301 -106.167 -11.5 -136.5s-19.834 -55.166 -36.501 -74.499c-30.667 -34 -73.667 -51 -129 -51c-42 0 -77.333 8 -106 24l18 60c26.667 -14 56.667 -21 90 -21c66 0 99 49.333 99 148v49h-2c-16.667 -39.333 -47.667 -59 -93 -59
c-42.667 0 -77 22 -103 66s-39 101.667 -39 173c0 82.667 15.333 145.167 46 187.5s66.334 63.5 107.001 63.5c37.333 0 67.333 -20.333 90 -61h2l4 54h68c-2.66699 -88 -4 -138.333 -4 -151zM270 176.999v139.998c0 14.667 -1.33301 26.334 -4 35.001
c-12 48.667 -35.333 73 -70 73c-27.333 0 -48.5 -16.667 -63.5 -50s-22.5 -77.333 -22.5 -132c0 -58.667 8 -103.167 24 -133.5s36.667 -45.5 62 -45.5c34 0 57 23 69 69c3.33301 12.667 5 27.334 5 44.001z" />
    <glyph glyph-name="h" unicode="h" horiz-adv-x="405" 
d="M54 0l0.000976562 692h77v-261h2c10 16.667 23.667 31 41 43c17.333 11.333 38.666 17 63.999 17c33.333 0 60.5 -14 81.5 -42s31.5 -70.667 31.5 -128v-321h-77v312c0 76 -21.667 114 -65 114c-38 0 -63 -25.667 -75 -77c-2 -10 -3 -22 -3 -36v-313h-77z" />
    <glyph glyph-name="i" unicode="i" horiz-adv-x="184" 
d="M131 0h-77v484h77v-484zM91 659c14 0 25.166 -4.5 33.499 -13.5s12.5 -21.167 12.5 -36.5s-4.16699 -27.5 -12.5 -36.5s-19.833 -13.5 -34.5 -13.5c-12.667 0 -23.167 4.66699 -31.5 14s-12.5 21.333 -12.5 36s4.33301 26.667 13 36s19.334 14 32.001 14z" />
    <glyph glyph-name="j" unicode="j" horiz-adv-x="188" 
d="M-18 -200l-10.001 61c32 8.66699 53.667 21.334 65 38.001c15.333 23.333 23 74.666 23 153.999v431h77v-453c0 -50 -3.83301 -88.667 -11.5 -116s-20.167 -50.333 -37.5 -69c-13.333 -14 -30.166 -25 -50.499 -33s-38.833 -12.333 -55.5 -13zM98.999 659
c13.333 0 24.166 -4.5 32.499 -13.5s12.5 -21.167 12.5 -36.5s-4.16699 -27.5 -12.5 -36.5s-19.5 -13.5 -33.5 -13.5c-13.333 0 -24.166 4.66699 -32.499 14s-12.5 21.333 -12.5 36s4.33301 26.667 13 36s19.667 14 33 14z" />
    <glyph glyph-name="k" unicode="k" horiz-adv-x="354" 
d="M129 692v-433h2c15.333 32.667 24 50.667 26 54l96 171h83l-128 -204l140 -280h-86l-105 228l-28 -45v-183h-76v692h76z" />
    <glyph glyph-name="l" unicode="l" horiz-adv-x="191" 
d="M54 0v692h77v-692h-77z" />
    <glyph glyph-name="m" unicode="m" horiz-adv-x="620" 
d="M54 0v359.002c0 22 -0.666992 47 -2 75s-2 44.667 -2 50h67l4 -60h2c24 44.667 60.333 67 109 67c50.667 0 84.334 -24.667 101.001 -74h2c14 25.333 30 43.666 48 54.999c18.667 12.667 41 19 67 19c34.667 0 62.667 -13.833 84 -41.5s32 -70.834 32 -129.501v-320h-76
v303c0 38 -4.66699 68.167 -14 90.5s-27.333 33.5 -54 33.5c-16 0 -30.5 -6.5 -43.5 -19.5s-22.167 -30.833 -27.5 -53.5c-2 -12 -3 -26.333 -3 -43v-311h-76v317c0 73.333 -22.333 110 -67 110c-16.667 0 -31.834 -6.83301 -45.501 -20.5s-22.5 -33.167 -26.5 -58.5
c-2 -12 -3 -25.667 -3 -41v-307h-76z" />
    <glyph glyph-name="n" unicode="n" horiz-adv-x="405" 
d="M54 0l0.000976562 359.002c0 22 -0.666992 47 -2 75s-2 44.667 -2 50h67l4 -59h2c24 44 61 66 111 66c35.333 0 63.666 -13.667 84.999 -41s32 -69 32 -125v-325h-77v311c0 76.667 -22.333 115 -67 115c-16.667 0 -31.667 -6.83301 -45 -20.5
s-22.333 -32.834 -27 -57.501c-2.66699 -10.667 -4 -25.334 -4 -44.001v-304h-77z" />
    <glyph glyph-name="o" unicode="o" horiz-adv-x="383" 
d="M195 491c46 0 83.501 -21.3311 112.501 -63.998s43.5 -104.334 43.5 -185.001c0 -86 -16 -149.167 -48 -189.5s-69.667 -60.5 -113 -60.5c-46 0 -83.667 21.167 -113 63.5s-44 104.166 -44 185.499c0 82.667 15.667 145 47 187s69.666 63 114.999 63zM192.001 430.002
c-16 0 -29.8379 -6.16699 -41.5049 -18.5s-20.167 -28.5 -25.5 -48.5s-9.16602 -39.833 -11.499 -59.5s-3.5 -40.167 -3.5 -61.5c0 -22.667 1.16699 -44 3.5 -64s6.33301 -40 12 -60s14.334 -35.833 26.001 -47.5s25.834 -17.5 42.501 -17.5c20.667 0 37.334 11 50.001 33
s20.834 46 24.501 72s5.5 54 5.5 84c0 21.333 -1.16699 41.833 -3.5 61.5s-6.33301 39.5 -12 59.5s-14.167 36.167 -25.5 48.5s-25 18.5 -41 18.5z" />
    <glyph glyph-name="p" unicode="p" horiz-adv-x="399" 
d="M53 -192v525c0 10 -1.33301 60.333 -4 151h68l4 -62h2c24.667 46 59 69 103 69c43.333 0 77.5 -21.667 102.5 -65s37.5 -104.333 37.5 -183c0 -84 -14.5 -146.833 -43.5 -188.5s-64.5 -62.5 -106.5 -62.5c-38.667 0 -67 18.667 -85 56h-2v-240h-76zM129 301v-124
c0 -16 1.33301 -29.333 4 -40c12 -54 35.667 -81 71 -81c30 0 51.667 17.333 65 52s20 79 20 133s-7 98.167 -21 132.5s-35.667 51.5 -65 51.5c-17.333 0 -33 -8.83301 -47 -26.5s-22 -37.834 -24 -60.501c-2 -11.333 -3 -23.666 -3 -36.999z" />
    <glyph glyph-name="q" unicode="q" horiz-adv-x="399" 
d="M269 -192l-0.000976562 242.001h-3c-8.66699 -17.333 -21.167 -31.333 -37.5 -42s-35.166 -16 -56.499 -16c-40 0 -73.167 21.5 -99.5 64.5s-39.5 102.833 -39.5 179.5c0 81.333 14.5 144.166 43.5 188.499s65.167 66.5 108.5 66.5c40 0 70 -21 90 -63l2 -1l4 57h68
c-2.66699 -88 -4 -138.333 -4 -151v-525h-76zM268.999 177.001l-0.00195312 126.001c0 8 -0.666992 18.667 -2 32c-3.33301 25.333 -11.666 46.666 -24.999 63.999s-28.666 26 -45.999 26c-29.333 0 -51 -17 -65 -51s-21 -78.667 -21 -134c0 -54.667 7 -99 21 -133
s35.333 -51 64 -51c34 0 57.333 26.667 70 80c2.66699 11.333 4 25 4 41z" />
    <glyph glyph-name="r" unicode="r" horiz-adv-x="248" 
d="M53 0l0.000976562 359c0 16 -0.666992 39.833 -2 71.5s-2 49.5 -2 53.5h69l4 -77h2c8 24 21.5 44 40.5 60s39.5 24 61.5 24c7.33301 0 12.666 -0.333008 15.999 -1v-78h-16c-24 0 -44.5 -9.5 -61.5 -28.5s-27.5 -42.833 -31.5 -71.5c-2 -13.333 -3 -28 -3 -44v-268h-77z
" />
    <glyph glyph-name="s" unicode="s" horiz-adv-x="289" 
d="M22 22l19 58.001c26 -16.667 52 -25 78 -25c21.333 0 38.5 6.33301 51.5 19s19.5 29.667 19.5 51c0 19.333 -4.33301 36 -13 50s-25 29 -49 45c-64.667 41.333 -97 87 -97 137c0 39.333 12.667 71.5 38 96.5s57 37.5 95 37.5c29.333 0 58 -8.33301 86 -25l-20 -58
c-21.333 14.667 -43 22 -65 22c-19.333 0 -34.5 -6 -45.5 -18s-16.5 -26.667 -16.5 -44c0 -16 4 -29.833 12 -41.5s24 -25.5 48 -41.5c66.667 -42.667 100 -91.667 100 -147c0 -46.667 -13.833 -82.334 -41.5 -107.001s-62.5 -37 -104.5 -37c-40 0 -71.667 9.33301 -95 28z
" />
    <glyph glyph-name="t" unicode="t" horiz-adv-x="255" 
d="M71 566l77 31v-113h93v-58h-93v-288c0 -53.333 16.667 -80 50 -80c12.667 0 23 1 31 3l4 -59c-14.667 -5.33301 -33.667 -8 -57 -8c-34 0 -59.333 9.66699 -76 29c-19.333 21.333 -29 62 -29 122v281h-59v58h59v82z" />
    <glyph glyph-name="u" unicode="u" horiz-adv-x="398" 
d="M344 484l-0.00195312 -351.999c0 -21.333 0.666992 -48.5 2 -81.5s2 -49.833 2 -50.5h-67l-6 51h-2c-8.66699 -14.667 -22.167 -28.167 -40.5 -40.5s-39.166 -18.5 -62.499 -18.5c-78.667 0 -118 62 -118 186v306h77v-295c0 -42.667 4.66699 -75.334 14 -98.001
s26.333 -34 51 -34c20 0 35.833 7 47.5 21s18.834 28.333 21.501 43c2.66699 11.333 4 26 4 44v319h77z" />
    <glyph glyph-name="v" unicode="v" horiz-adv-x="347" 
d="M13 484h80l61 -272c8.66699 -40 15.667 -79.333 21 -118h3c3.33301 24 10 63.333 20 118l60 272h76l-127 -484h-68z" />
    <glyph glyph-name="w" unicode="w" horiz-adv-x="566" 
d="M13 484l79.998 -0.00195312l47 -237c13.333 -69.333 22 -120.666 26 -153.999h4c6 42.667 16 93.334 30 152.001l56 239h59l53 -232c14.667 -66.667 25 -119.667 31 -159h4c4.66699 42 13.334 94 26.001 156l46 235h77l-122 -484h-63l-56 235
c-9.33301 36 -18.333 84.333 -27 145h-2c-7.33301 -50 -16.666 -99.333 -27.999 -148l-58 -232h-65z" />
    <glyph glyph-name="x" unicode="x" horiz-adv-x="340" 
d="M14 484h83.001l44 -104l10.5 -26l12 -31.5c4.33301 -11.667 7.83301 -20.5 10.5 -26.5h2c1.33301 4 12 32 32 84l43 104h79l-115 -239l114 -245h-83l-46 110c-6.66699 16 -17.334 43.667 -32.001 83h-2c-4 -11.333 -14.667 -39.333 -32 -84l-45 -109h-78l115 243z" />
    <glyph glyph-name="y" unicode="y" horiz-adv-x="346" 
d="M12 484l81 0.000976562l65 -278c2.66699 -11.333 6 -28 10 -50s7.33301 -38.667 10 -50h2l10.5 53.5c5 25 8.16699 40.167 9.5 45.5l58 279h76l-79 -311c-38 -152 -78 -256 -120 -312c-26.667 -34 -55.667 -58.333 -87 -73l-29 65c24 13.333 47 33.666 69 60.999
c18.667 24 33 51.333 43 82c4 11.333 6 19.333 6 24c0 6 -1 12 -3 18z" />
    <glyph glyph-name="z" unicode="z" horiz-adv-x="313" 
d="M16 0v47.001l153 300l19.5 35.5c9 16.333 15.167 28.166 18.5 35.499v2h-172v64h258v-51l-151 -295c-14 -24 -27 -48 -39 -72v-2h189v-64h-276z" />
    <glyph glyph-name="braceleft" unicode="{" horiz-adv-x="253" 
d="M28 263v49.999c46 0 69 23.667 69 71c0 19.333 -2 47.666 -6 84.999c-4 38.667 -6 68.334 -6 89.001c0 42.667 11.5 74.667 34.5 96s53.167 32 90.5 32h12v-52h-14c-39.333 -4.66699 -59 -29.667 -59 -75c0 -18.667 2 -44.667 6 -78c3.33301 -42 5 -66.667 5 -74
c0.666992 -36.667 -4.83301 -63.667 -16.5 -81s-29.167 -29.666 -52.5 -36.999v-2c23.333 -6.66699 40.833 -18.834 52.5 -36.501s17.167 -45.167 16.5 -82.5c0 -16.667 -2 -41.667 -6 -75c-3.33301 -41.333 -5 -67 -5 -77c0 -23.333 4.5 -41.166 13.5 -53.499
s24.5 -19.833 46.5 -22.5h13v-52h-13c-36 0 -65.667 10.167 -89 30.5s-35 52.833 -35 97.5c0 20 2 50 6 90c4 37.333 6 66 6 86c0 47.333 -23 71 -69 71z" />
    <glyph glyph-name="bar" unicode="|" horiz-adv-x="201" 
d="M69 750h63v-1000h-63v1000z" />
    <glyph glyph-name="braceright" unicode="}" horiz-adv-x="253" 
d="M225 313l0.000976562 -49.999c-24.667 0 -42.334 -7 -53.001 -21s-16 -30.667 -16 -50c0 -20 2 -48.667 6 -86c4 -40 6 -70 6 -90c0 -44.667 -11.667 -77.167 -35 -97.5s-53 -30.5 -89 -30.5h-13v52h13c22 2.66699 37.5 10.167 46.5 22.5s13.5 30.166 13.5 53.499
c0 10 -1.66699 35.667 -5 77c-4 33.333 -6 58.333 -6 75c-0.666992 38 4.83301 65.667 16.5 83s29.167 29.333 52.5 36v2c-22.667 7.33301 -40 19.833 -52 37.5s-17.667 44.5 -17 80.5c0 16 2 40.667 6 74c3.33301 42 5 68 5 78c0 45.333 -19.667 70.333 -59 75h-14v52h12
c37.333 0 67.5 -10.667 90.5 -32s34.5 -53.333 34.5 -96c0 -20.667 -2 -50.334 -6 -89.001c-4 -37.333 -6 -65.666 -6 -84.999c0 -47.333 23 -71 69 -71z" />
    <glyph glyph-name="asciitilde" unicode="~" horiz-adv-x="596" 
d="M127 221h-54.002c-1.33301 42.667 8.16699 75.667 28.5 99s47.5 35 81.5 35c32 0 75 -14 129 -42c50.667 -26.667 87.667 -40 111 -40c32.667 0 48.334 26 47.001 78h53c2.66699 -44 -5.16602 -77.5 -23.499 -100.5s-44.5 -34.5 -78.5 -34.5
c-35.333 0 -78.333 13.333 -129 40c-54 28.667 -92.333 43 -115 43c-34 0 -50.667 -26 -50 -78z" />
    <glyph glyph-name="uni00A0" unicode="&#xa0;" horiz-adv-x="157" 
 />
    <glyph glyph-name="exclamdown" unicode="&#xa1;" horiz-adv-x="204" 
d="M144 -189h-84l10 486h64zM103 496c14.667 0 26.333 -5 35 -15s13 -23.333 13 -40c0 -16 -4.33301 -29 -13 -39s-20.667 -15 -36 -15c-14 0 -25.667 5 -35 15s-14 23 -14 39c0 16.667 4.66699 30 14 40s21.333 15 36 15z" />
    <glyph glyph-name="cent" unicode="&#xa2;" horiz-adv-x="385" 
d="M253 -6l-55 0.000976562v98c-33.333 6.66699 -62 23.667 -86 51c-33.333 40 -50 101.667 -50 185c0 58.667 12.333 109.167 37 151.5s58 68.166 100 77.499v94h55v-89c28 -1.33301 50.333 -7.33301 67 -18l-14 -61c-22 12 -45 18 -69 18c-34 0 -59 -18 -75 -54
s-24 -77.667 -24 -125c0 -53.333 9.16699 -95.333 27.5 -126s43.833 -46 76.5 -46c25.333 0 49.333 5.66699 72 17l10 -57c-16.667 -11.333 -40.667 -18 -72 -20v-96z" />
    <glyph glyph-name="sterling" unicode="&#xa3;" horiz-adv-x="385" 
d="M353 0h-321.999v49c23.333 9.33301 45 31.666 65 66.999s30 71 30 107c0 30 -2 57 -6 81h-82v56h74c-9.33301 42 -14 80.667 -14 116c0 56 14.833 100.333 44.5 133s66.5 49 110.5 49c31.333 0 57.666 -6.66699 78.999 -20l-18 -61c-18 10.667 -38.333 16 -61 16
c-26.667 0 -46.667 -10.167 -60 -30.5s-20 -45.5 -20 -75.5c0 -35.333 4.33301 -77.666 13 -126.999h105v-56h-97c6 -48.667 4.66699 -90.667 -4 -126c-11.333 -44 -32.333 -80.667 -63 -110v-2h226v-66z" />
    <glyph glyph-name="currency" unicode="&#xa4;" horiz-adv-x="385" 
d="M194 528c37.333 0 68.667 -13.668 94 -41.001l61 73l40 -41l-73 -73c16 -32 24 -71 24 -117c0 -46.667 -8 -85.667 -24 -117l72 -74l-39 -41l-63 73c-25.333 -27.333 -57 -41 -95 -41c-38.667 0 -69.667 13.667 -93 41l-61 -73l-40 41l71 72
c-16.667 32.667 -25 71.667 -25 117c0 44.667 8.66699 84.334 26 119.001l-73 73l41 41l62 -74c24 28 55.667 42 95 42zM192.001 469.999c-25.333 0 -45.167 -12.667 -59.5 -38s-21.5 -60.333 -21.5 -105c0 -41.333 7.5 -75 22.5 -101s34.5 -39 58.5 -39
c25.333 -0.666992 45 12 59 38s21 60.333 21 103c0 42 -7 76.167 -21 102.5s-33.667 39.5 -59 39.5z" />
    <glyph glyph-name="yen" unicode="&#xa5;" horiz-adv-x="385" 
d="M225 0l-72 0.000976562v187h-125v46h125v74h-125v46h106l-119 297h77l67 -191c12.667 -34.667 24 -68.667 34 -102h2c7.33301 27.333 18.333 61.666 33 102.999l70 190h73l-127 -297h108v-46h-127v-74h127v-46h-127v-187z" />
    <glyph glyph-name="brokenbar" unicode="&#xa6;" horiz-adv-x="201" 
d="M69 174h63v-350h-63v350zM69 674h63v-350h-63v350z" />
    <glyph glyph-name="section" unicode="&#xa7;" horiz-adv-x="401" 
d="M91 352c0 -32 26.668 -60.667 80.001 -86c47.333 -22 80.666 -40.667 99.999 -56c26 16 39 42.333 39 79c0 37.333 -23 67.333 -69 90c-52 24 -86.667 41.667 -104 53c-30.667 -19.333 -46 -46 -46 -80zM328.001 656l-17.999 -51.999c-24.667 16 -54 24 -88 24
c-24.667 0 -45.834 -6 -63.501 -18s-26.5 -30.333 -26.5 -55c0 -12.667 2.33301 -23.834 7 -33.501s12.667 -18.5 24 -26.5s21 -14 29 -18s21 -10 39 -18c44.667 -18.667 79 -39.5 103 -62.5s36 -54.833 36 -95.5c0 -48 -20 -88.333 -60 -121c22.667 -24.667 34 -53 34 -85
c0 -46.667 -15.667 -82.5 -47 -107.5s-70.333 -37.5 -117 -37.5c-54.667 0 -96.667 11.333 -126 34l19 54c32.667 -22.667 69.334 -34 110.001 -34c26.667 0 49 6.66699 67 20s27 33 27 59c0 22 -7.83301 40.667 -23.5 56s-43.167 32.333 -82.5 51
c-47.333 22 -82.5 44.167 -105.5 66.5s-34.5 51.833 -34.5 88.5c0 43.333 23 82.666 69 117.999c-22.667 20 -34.334 47 -35.001 81c0 42.667 15.667 76.334 47 101.001s69.333 37 114 37c40.667 0 74.667 -8.66699 102 -26z" />
    <glyph glyph-name="dieresis" unicode="&#xa8;" 
d="M72 566c-12 0 -22.333 4.16699 -31 12.5s-13 18.833 -13 31.5s4.33301 23.334 13 32.001s19.334 13 32.001 13c11.333 0 21.166 -4.33301 29.499 -13s12.5 -19.334 12.5 -32.001s-4 -23.167 -12 -31.5s-18.333 -12.5 -31 -12.5zM228 566c-12 0 -22.333 4.16699 -31 12.5
s-13 18.833 -13 31.5s4.33301 23.334 13 32.001s19.334 13 32.001 13c11.333 0 21.166 -4.33301 29.499 -13s12.5 -19.334 12.5 -32.001s-4 -23.167 -12 -31.5s-18.333 -12.5 -31 -12.5z" />
    <glyph glyph-name="copyright" unicode="&#xa9;" horiz-adv-x="677" 
d="M341 648c84.667 0 156.333 -30 215 -90s88 -132.667 88 -218c0 -86 -29.333 -159.167 -88 -219.5s-130.667 -90.5 -216 -90.5c-86 0 -158.667 30.167 -218 90.5s-89 133.5 -89 219.5c0 85.333 29.833 158 89.5 218s132.5 90 218.5 90zM338.999 607
c-72.667 0 -133.501 -26.001 -182.501 -78.001s-73.5 -116 -73.5 -192c0 -74.667 24.667 -137.667 74 -189s110.333 -77 183 -77c71.333 -0.666992 131.5 25 180.5 77s73.5 116 73.5 192c0 74.667 -24.667 137.834 -74 189.501s-109.666 77.5 -180.999 77.5z
M473.998 494.999l-12.001 -40c-29.333 14.667 -61.666 22 -96.999 22c-44.667 0 -79.167 -13 -103.5 -39s-36.5 -59.667 -36.5 -101s12.333 -75.166 37 -101.499s59 -39.5 103 -39.5c37.333 0 70.666 7.66699 99.999 23l12 -37c-32 -19.333 -72.667 -29 -122 -29
c-55.333 0 -99.5 17.333 -132.5 52s-49.5 77.667 -49.5 129c0 55.333 18.5 100.166 55.5 134.499s82.833 51.5 137.5 51.5c22.667 0 44.334 -2.66699 65.001 -8s35 -11 43 -17z" />
    <glyph glyph-name="ordfeminine" unicode="&#xaa;" horiz-adv-x="273" 
d="M243 263l-49.002 0.000976562l-4 35h-2c-16.667 -26.667 -42 -40 -76 -40c-23.333 0 -43.166 8.5 -59.499 25.5s-24.5 39.5 -24.5 67.5c0 38 14.833 66.833 44.5 86.5s67.167 29.5 112.5 29.5v11c0 42 -20 63 -60 63c-23.333 0 -44.666 -7 -63.999 -21l-13 41
c24.667 18 53.667 27 87 27c34.667 0 60.667 -10.5 78 -31.5s26 -50.5 26 -88.5v-131c0 -34.667 1.33301 -59.334 4 -74.001zM185.998 356.001v69c-14 0 -27.5 -1 -40.5 -3s-26.833 -8.5 -41.5 -19.5s-22 -26.167 -22 -45.5c0 -16.667 4.83301 -29.667 14.5 -39
s20.5 -14 32.5 -14c20.667 0 37 10 49 30c5.33301 8 8 15.333 8 22z" />
    <glyph glyph-name="guillemotleft" unicode="&#xab;" horiz-adv-x="354" 
d="M190 427l-103 -175l103 -174h-63l-102 174l103 175h62zM333 427l-104 -175l104 -174h-63l-102 174l103 175h62z" />
    <glyph glyph-name="logicalnot" unicode="&#xac;" horiz-adv-x="596" 
d="M40 398h516v-279h-56v224h-460v55z" />
    <glyph glyph-name="uni00AD" unicode="&#xad;" horiz-adv-x="291" 
d="M30 291h219v-59h-219v59z" />
    <glyph glyph-name="registered" unicode="&#xae;" horiz-adv-x="372" 
d="M161 508l0.000976562 -62.001h-33v156c22 3.33301 40.667 5 56 5c22.667 0 40 -4.33301 52 -13c10.667 -7.33301 16 -18.333 16 -33c0 -17.333 -11 -29.666 -33 -36.999v-2c13.333 -4 22.666 -16.667 27.999 -38c4.66699 -21.333 8.66699 -34 12 -38h-36
c-3.33301 4 -7.33301 16.667 -12 38c-3.33301 16 -14.333 24 -33 24h-17zM162.001 577.999v-44h17c24 0 36 7.33301 36 22c0 16 -11 24 -33 24c-8 0 -14.667 -0.666992 -20 -2zM187.001 682.999c43.333 0 80.167 -15.167 110.5 -45.5s45.5 -67.166 45.5 -110.499
s-15.167 -80.333 -45.5 -111s-67.5 -46 -111.5 -46c-43.333 0 -80.333 15.333 -111 46s-46 67.667 -46 111s15.333 80.166 46 110.499s68 45.5 112 45.5zM185.002 650.999c-33.333 0 -61.333 -12.166 -84 -36.499s-34 -53.5 -34 -87.5c0 -34.667 11.5 -64 34.5 -88
s51.5 -36 85.5 -36c33.333 -0.666992 61.333 11.166 84 35.499s34 53.5 34 87.5c0 34.667 -11.5 64.167 -34.5 88.5s-51.5 36.5 -85.5 36.5z" />
    <glyph glyph-name="macron" unicode="&#xaf;" 
d="M52 631h197v-51h-197v51z" />
    <glyph glyph-name="degree" unicode="&#xb0;" horiz-adv-x="280" 
d="M152 685c34 0 62.668 -12.499 86.001 -37.499s35 -55.167 35 -90.5c0 -36.667 -12.333 -67.334 -37 -92.001s-53.334 -37 -86.001 -37c-34.667 0 -63.667 12.167 -87 36.5s-35 54.5 -35 90.5c-0.666992 36 11.333 66.667 36 92s54 38 88 38zM149.001 644.001
c-20.667 0 -38.166 -8.66797 -52.499 -26.001s-21.5 -38.333 -21.5 -63c0 -24 7.33301 -44.333 22 -61s32.667 -25 54 -25s39.166 8.33301 53.499 25s21.5 37.334 21.5 62.001c0 24 -7.16699 44.667 -21.5 62s-32.833 26 -55.5 26z" />
    <glyph glyph-name="plusminus" unicode="&#xb1;" horiz-adv-x="596" 
d="M270 567h57v-194h230v-55h-230v-201h-57v201h-229v55h229v194zM41 55h516v-55h-516v55z" />
    <glyph glyph-name="twosuperior" unicode="&#xb2;" horiz-adv-x="245" 
d="M2 417l0.00195312 29.001l41 50l53.5 68c11 14.667 23.333 35.167 37 61.5s20.5 49.5 20.5 69.5c0 22 -5.33301 38.333 -16 49s-25.334 16 -44.001 16c-22.667 0 -44.667 -9 -66 -27l-17 44c24.667 23.333 57.667 35 99 35c35.333 0 62.166 -10.167 80.499 -30.5
s27.5 -45.833 27.5 -76.5c0 -50.667 -34.333 -116.334 -103 -197.001l-30 -37v-2h139v-52h-222z" />
    <glyph glyph-name="threesuperior" unicode="&#xb3;" horiz-adv-x="235" 
d="M30 743l-13.001 43.002c24 17.333 53 26 87 26c32 0 56.833 -8.66699 74.5 -26s26.5 -39 26.5 -65c0 -42.667 -21 -72.334 -63 -89.001v-2c20 -4.66699 37.5 -15.667 52.5 -33s22.833 -39 23.5 -65c0 -34.667 -12.167 -63.334 -36.5 -86.001s-57.166 -34 -98.499 -34
c-32 0 -59.333 7.33301 -82 22l13 46c22 -13.333 45.333 -20 70 -20c20.667 0 37.667 6.16699 51 18.5s20 29.5 20 51.5c0 50.667 -29.333 76 -88 76h-8v42h6c18 0 35.833 5.66699 53.5 17s26.5 27 26.5 47c0 16.667 -4.66699 29.5 -14 38.5s-22 13.5 -38 13.5
c-22.667 0 -43.667 -7 -63 -21z" />
    <glyph glyph-name="acute" unicode="&#xb4;" 
d="M188 682h79l-105 -135h-51z" />
    <glyph glyph-name="mu" unicode="&#xb5;" horiz-adv-x="399" 
d="M281 50l-1.99707 -0.00195312c-6.66699 -12.667 -17.834 -24.667 -33.501 -36s-32.834 -17 -51.501 -17c-30.667 0 -53 12 -67 36v-71c0 -69.333 3 -120.666 9 -153.999h-70c-8.66699 26 -13 74.667 -13 146v530h77v-319c0 -72 21.333 -108 64 -108
c20 0 36 6.83301 48 20.5s19.333 27.834 22 42.501c2.66699 11.333 4 26.333 4 45v319h77v-380c0 -18.667 2.16699 -32.5 6.5 -41.5s12.5 -13.167 24.5 -12.5l-8 -55c-6.66699 -2 -15.334 -3 -26.001 -3c-32.667 0 -53 19.333 -61 58z" />
    <glyph glyph-name="paragraph" unicode="&#xb6;" horiz-adv-x="401" 
d="M233 -50h-50v324h-6c-31.333 0 -62.833 15.667 -94.5 47s-49.167 75.333 -52.5 132c-3.33301 62 14 114.333 52 157s95 64 171 64c29.333 0 59 -2 89 -6v-718h-50v674h-59v-674z" />
    <glyph glyph-name="periodcentered" unicode="&#xb7;" horiz-adv-x="194" 
d="M96 202c-14 0 -25.832 5.16602 -35.499 15.499s-14.5 24.166 -14.5 41.499c0 16 5 29.5 15 40.5s22 16.5 36 16.5c15.333 0 27.666 -5.16699 36.999 -15.5s14 -24.166 14 -41.499s-4.66699 -31.166 -14 -41.499s-22 -15.5 -38 -15.5z" />
    <glyph glyph-name="cedilla" unicode="&#xb8;" 
d="M144 5l47.999 -0.000976562l-29 -55c18 -2.66699 33.5 -10.667 46.5 -24s19.5 -29 19.5 -47c0 -26.667 -9 -46.5 -27 -59.5s-39.333 -19.5 -64 -19.5c-23.333 0 -45.666 6 -66.999 18l16 42c16 -10 32.667 -15 50 -15c24 0 36 10 36 30c0 24.667 -23 39.334 -69 44.001z
" />
    <glyph glyph-name="onesuperior" unicode="&#xb9;" horiz-adv-x="212" 
d="M157 417h-60v333h-2l-73 -39l-11 48l94 48h52v-390z" />
    <glyph glyph-name="ordmasculine" unicode="&#xba;" horiz-adv-x="302" 
d="M154 588c36 0 63.834 -13.833 83.501 -41.5s29.5 -68.5 29.5 -122.5c0 -56.667 -11.333 -98.5 -34 -125.5s-50 -40.5 -82 -40.5c-34.667 0 -62.834 14.167 -84.501 42.5s-32.5 69.166 -32.5 122.499c0 52.667 11.5 93.334 34.5 122.001s51.5 43 85.5 43zM149.001 543
c-19.333 0 -33.667 -12.501 -43 -37.501s-14 -52.5 -14 -82.5c0 -31.333 4.83301 -59.166 14.5 -83.499s24.167 -36.5 43.5 -36.5c39.333 0 59 40 59 120s-20 120 -60 120z" />
    <glyph glyph-name="guillemotright" unicode="&#xbb;" horiz-adv-x="354" 
d="M125 252l-104 175h62l103 -175l-101 -174h-64zM267 252l-103 175h62l103 -175l-102 -174h-63z" />
    <glyph glyph-name="onequarter" unicode="&#xbc;" horiz-adv-x="613" 
d="M177 263h-60v333h-2l-73 -39l-11 48l94 48h52v-390zM156 -8h-49l340 666h49zM536 0h-56v107h-147v35l144 251h59v-240h46v-46h-46v-107zM480 153v100c0 26 1.33301 50.333 4 73h-2c-4.66699 -8.66699 -10.5 -20.167 -17.5 -34.5l-16.5 -34.5l-54 -102v-2h86z" />
    <glyph glyph-name="onehalf" unicode="&#xbd;" horiz-adv-x="613" 
d="M161 263h-60v333h-2l-73 -39l-11 48l94 48h52v-390zM132 -8h-49l340 666h48zM355 0l0.000976562 29.001l41 50l53.5 68c11 14.667 23.333 35.167 37 61.5s20.5 49.5 20.5 69.5c0 21.333 -5.5 37.5 -16.5 48.5s-25.5 16.5 -43.5 16.5c-23.333 0 -45.333 -9 -66 -27l-17 44
c24.667 23.333 57.667 35 99 35c35.333 0 62.166 -10.167 80.499 -30.5s27.5 -45.833 27.5 -76.5c0 -50.667 -34.333 -116.334 -103 -197.001l-31 -37v-2h140v-52h-222z" />
    <glyph glyph-name="threequarters" unicode="&#xbe;" horiz-adv-x="613" 
d="M58 589l-13.001 43.002c26 17.333 55 26 87 26s56.833 -8.66699 74.5 -26s26.5 -39 26.5 -65c0 -42.667 -21.333 -72.334 -64 -89.001v-2c20 -4.66699 37.667 -15.667 53 -33s23 -39 23 -65c0 -34.667 -12.167 -63.334 -36.5 -86.001s-57.166 -34 -98.499 -34
c-30.667 0 -58 7.33301 -82 22l13 46c22 -13.333 45.333 -20 70 -20c20.667 0 37.667 6.16699 51 18.5s20 29.5 20 51.5c0 50.667 -29.333 76 -88 76h-8v42h7c18 0 35.833 5.66699 53.5 17s26.5 27 26.5 47c0 16.667 -4.66699 29.5 -14 38.5s-22 13.5 -38 13.5
c-22.667 0 -43.667 -7 -63 -21zM172.999 -7.99805h-49l340 666h49zM538.999 0.00195312h-56v107h-147v35l144 251h59v-240h46v-46h-46v-107zM482.999 153.002l0.000976562 100c0 26 1.33301 50.333 4 73h-2c-18.667 -37.333 -30.334 -60.333 -35.001 -69l-55 -102v-2h88z
" />
    <glyph glyph-name="questiondown" unicode="&#xbf;" horiz-adv-x="309" 
d="M175 496h1.99902c14 0 25.667 -5.16699 35 -15.5s14 -23.833 14 -40.5c0 -16 -4.66699 -29.333 -14 -40s-21.333 -16 -36 -16c-15.333 0 -27.666 5.33301 -36.999 16s-14 24 -14 40c0 16.667 4.66699 30.167 14 40.5s21.333 15.5 36 15.5zM136.999 302h66.999l2 -15
c10.667 -63.333 -3.33301 -126.666 -42 -189.999c-1.33301 -2 -4.83301 -8 -10.5 -18s-9.16699 -16 -10.5 -18s-4.16602 -7.16699 -8.49902 -15.5l-8.5 -16.5c-1.33301 -2.66699 -3.5 -7.66699 -6.5 -15s-5 -12.833 -6 -16.5l-4 -15
c-1.66699 -6.33301 -2.66699 -12.166 -3 -17.499s-0.5 -11 -0.5 -17c0 -27.333 7 -47.666 21 -60.999s32.667 -20 56 -20c24.667 0 46.667 6 66 18l16 -59c-25.333 -17.333 -58.333 -26 -99 -26c-46.667 0 -81.5 13.167 -104.5 39.5s-34.5 59.166 -34.5 98.499
c0 12 1.16699 24 3.5 36s5 22.5 8 31.5s7.66699 19.667 14 32s11.333 21.666 15 27.999s9.66699 16.166 18 29.499s13.833 22.333 16.5 27c30 52 42 106.333 36 163z" />
    <glyph glyph-name="Agrave" unicode="&#xc0;" horiz-adv-x="435" 
d="M291 202h-150l-44 -202h-75l154 674h85l150 -674h-76zM152 264l128 -0.000976562l-35 171c-6.66699 32.667 -15.667 84 -27 154h-3c-10 -63.333 -19.333 -114.666 -28 -153.999zM87 817.999h91l94 -108h-61z" />
    <glyph glyph-name="Aacute" unicode="&#xc1;" horiz-adv-x="435" 
d="M291 202h-150l-44 -202h-75l154 674h85l150 -674h-76zM152 264l128 -0.000976562l-35 171c-6.66699 32.667 -15.667 84 -27 154h-3c-10 -63.333 -19.333 -114.666 -28 -153.999zM263 817.999h91l-124 -108h-61z" />
    <glyph glyph-name="Acircumflex" unicode="&#xc2;" horiz-adv-x="435" 
d="M291 202h-150l-44 -202h-75l154 674h85l150 -674h-76zM152 264l128 -0.000976562l-35 171c-6.66699 32.667 -15.667 84 -27 154h-3c-10 -63.333 -19.333 -114.666 -28 -153.999zM186 807.999h66l87 -98h-67l-52 55h-2l-52 -55h-66z" />
    <glyph glyph-name="Atilde" unicode="&#xc3;" horiz-adv-x="435" 
d="M290 202h-149l-44 -202h-75l154 674h85l149 -674h-75zM152 264l128 -0.000976562l-35 171c-6.66699 32.667 -15.667 84 -27 154h-3c-10 -63.333 -19.333 -114.666 -28 -153.999zM155 717.999h-41c-0.666992 28.667 4.33301 51.5 15 68.5s25.334 25.5 44.001 25.5
c12 0 28 -5.66699 48 -17c18.667 -12 31.667 -18 39 -18c8.66699 0 15 2.66699 19 8s6.66699 15 8 29h40c1.33301 -60 -19.334 -90 -62.001 -90c-16 0 -32.333 5.66699 -49 17c-18.667 10.667 -31 16 -37 16c-12.667 0 -20.667 -13 -24 -39z" />
    <glyph glyph-name="Adieresis" unicode="&#xc4;" horiz-adv-x="435" 
d="M291 202h-150l-44 -202h-75l154 674h85l150 -674h-76zM152 264l128 -0.000976562l-35 171c-6.66699 32.667 -15.667 84 -27 154h-3c-10 -63.333 -19.333 -114.666 -28 -153.999zM139 717.999c-12 0 -22 4.33301 -30 13s-12 20 -12 34c0 12.667 4.16699 23.5 12.5 32.5
s18.5 13.5 30.5 13.5c12.667 0 23 -4.33301 31 -13s12 -19.667 12 -33c0 -14 -4 -25.333 -12 -34s-18.667 -13 -32 -13zM300 717.999c-12 0 -22 4.33301 -30 13s-12 20 -12 34c0 12.667 4.16699 23.5 12.5 32.5s18.5 13.5 30.5 13.5c12.667 0 23 -4.33301 31 -13
s12 -19.667 12 -33c0 -14 -4 -25.333 -12 -34s-18.667 -13 -32 -13z" />
    <glyph glyph-name="Aring" unicode="&#xc5;" horiz-adv-x="435" 
d="M291 202h-150l-44 -202h-75l154 674h85l150 -674h-76zM152 264l128 -0.000976562l-35 171c-6.66699 32.667 -15.667 84 -27 154h-3c-10 -63.333 -19.333 -114.666 -28 -153.999zM222 870.999c28 0 50.332 -8.5 66.999 -25.5s25 -37.833 25 -62.5
c0 -24 -8.66699 -44.5 -26 -61.5s-39.666 -25.5 -66.999 -25.5c-28.667 0 -51.5 8.33301 -68.5 25s-25.5 37 -25.5 61c0 24.667 8.66699 45.667 26 63s40.333 26 69 26zM218.999 834.999c-14 0 -24.832 -5.16797 -32.499 -15.501s-11.5 -22.833 -11.5 -37.5
c0 -12.667 4.16699 -24 12.5 -34s19.166 -15 32.499 -15c14 0 25.167 4.83301 33.5 14.5s12.5 21.834 12.5 36.501c0 14 -4.16699 26 -12.5 36s-19.833 15 -34.5 15z" />
    <glyph glyph-name="AE" unicode="&#xc6;" horiz-adv-x="556" 
d="M84 0h-76l203 674h304v-67h-186l13 -226h171v-65h-165l14 -249h179l-1 -67h-247l-13 222h-134zM162 284l112 0.000976562l-9 205c-0.666992 9.33301 -1.66699 29.666 -3 60.999l-3 70h-5l-39 -143z" />
    <glyph glyph-name="Ccedilla" unicode="&#xc7;" horiz-adv-x="396" 
d="M342 77l11.998 -65c-20.667 -10 -48 -15.667 -82 -17l-22 -44c17.333 -2.66699 32.5 -10.667 45.5 -24s19.5 -29 19.5 -47c0 -26.667 -9 -46.5 -27 -59.5s-39.333 -19.5 -64 -19.5c-23.333 0 -45.666 6 -66.999 18l16 42c16 -10 32.667 -15 50 -15c24 0 36 10.333 36 31
c0 23.333 -22.667 37.666 -68 42.999l35 77c-59.333 8.66699 -106.5 40.5 -141.5 95.5s-52.5 133.833 -52.5 236.5c0 63.333 7.33301 118.833 22 166.5s34 84.334 58 110.001s49.167 44.5 75.5 56.5s53.833 18 82.5 18c38.667 0 66.667 -5.66699 84 -17l-17 -65
c-21.333 9.33301 -44 14 -68 14c-41.333 0 -77.666 -22.333 -108.999 -67s-47 -114 -47 -208c0 -96 14.833 -165.667 44.5 -209s67.5 -65 113.5 -65c26 0 49.667 4.66699 71 14z" />
    <glyph glyph-name="Egrave" unicode="&#xc8;" horiz-adv-x="354" 
d="M306 385v-65h-169v-253h192v-67h-269v674h257v-67h-180v-222h169zM56 818h91l94 -108h-61z" />
    <glyph glyph-name="Eacute" unicode="&#xc9;" horiz-adv-x="354" 
d="M306 385v-65h-169v-253h192v-67h-269v674h257v-67h-180v-222h169zM246 818h91l-124 -108h-61z" />
    <glyph glyph-name="Ecircumflex" unicode="&#xca;" horiz-adv-x="354" 
d="M306 385v-65h-169v-253h192v-67h-269v674h257v-67h-180v-222h169zM156 808h66l87 -98h-67l-52 55h-2l-52 -55h-66z" />
    <glyph glyph-name="Edieresis" unicode="&#xcb;" horiz-adv-x="354" 
d="M306 385v-65h-169v-253h193v-67h-270v674h257v-67h-180v-222h169zM108 725c-12 0 -22 4.33301 -30 13s-12 20 -12 34c0 12.667 4.16699 23.5 12.5 32.5s18.5 13.5 30.5 13.5c12.667 0 23 -4.33301 31 -13s12 -19.667 12 -33c0 -14 -4 -25.333 -12 -34
s-18.667 -13 -32 -13zM270 725c-12 0 -22 4.33301 -30 13s-12 20 -12 34c0 12.667 4.16699 23.5 12.5 32.5s18.5 13.5 30.5 13.5c12.667 0 23 -4.33301 31 -13s12 -19.667 12 -33c0 -14 -4 -25.333 -12 -34s-18.667 -13 -32 -13z" />
    <glyph glyph-name="Igrave" unicode="&#xcc;" horiz-adv-x="199" 
d="M60 674h77v-674h-77v674zM-41 818h91l94 -108h-61z" />
    <glyph glyph-name="Iacute" unicode="&#xcd;" horiz-adv-x="199" 
d="M60 674h77v-674h-77v674zM141 818h91l-124 -108h-61z" />
    <glyph glyph-name="Icircumflex" unicode="&#xce;" horiz-adv-x="199" 
d="M60 674h77v-674h-77v674zM67 808h66l87 -98h-67l-52 55h-2l-52 -55h-66z" />
    <glyph glyph-name="Idieresis" unicode="&#xcf;" horiz-adv-x="199" 
d="M60 674h77v-674h-77v674zM18 725c-12 0 -22 4.33301 -30 13s-12 20 -12 34c0 12.667 4.16699 23.5 12.5 32.5s18.5 13.5 30.5 13.5c12.667 0 23 -4.33301 31 -13s12 -19.667 12 -33c0 -14 -4 -25.333 -12 -34s-18.667 -13 -32 -13zM180 725c-12 0 -22 4.33301 -30 13
s-12 20 -12 34c0 12.667 4.16699 23.5 12.5 32.5s18.5 13.5 30.5 13.5c12.667 0 23 -4.33301 31 -13s12 -19.667 12 -33c0 -14 -4 -25.333 -12 -34s-18.667 -13 -32 -13z" />
    <glyph glyph-name="Eth" unicode="&#xd0;" horiz-adv-x="453" 
d="M0 323v57.999h69v283c28 8.66699 62.333 13 103 13c67.333 0 120 -17 158 -51c60.667 -52.667 91 -144 91 -274c0 -131.333 -27 -226.666 -81 -285.999c-43.333 -48 -105.333 -72 -186 -72c-34.667 0 -63 2 -85 6v323h-69zM247 380.999l-0.00195312 -58h-102v-263
c7.33301 -1.33301 17 -2 29 -2c22.667 0 43.334 4.66699 62.001 14s36.334 24.5 53.001 45.5s29.5 51.333 38.5 91s13.5 87.5 13.5 143.5c0 174.667 -53.333 262 -160 262c-10.667 0 -22.667 -1.33301 -36 -4v-229h102z" />
    <glyph glyph-name="Ntilde" unicode="&#xd1;" horiz-adv-x="465" 
d="M130 0h-69.001v674h72l124 -316c44.667 -116.667 73.334 -195 86.001 -235h2c-6 106 -9 209.333 -9 310v241h69v-674h-72l-128 324c-34 82.667 -61 159 -81 229h-2c5.33301 -80 8 -186.667 8 -320v-233zM169.999 718h-41c-0.666992 28.667 4.33301 51.5 15 68.5
s25.334 25.5 44.001 25.5c12 0 28 -5.66699 48 -17c20 -12 33.333 -18 40 -18c8 0 14 2.66699 18 8s6.66699 15 8 29h40c1.33301 -60 -19.334 -90 -62.001 -90c-16 0 -32.333 5.66699 -49 17c-18.667 10.667 -31 16 -37 16c-13.333 0 -21.333 -13 -24 -39z" />
    <glyph glyph-name="Ograve" unicode="&#xd2;" horiz-adv-x="446" 
d="M230 682c57.333 0 102.334 -29.833 135.001 -89.5s49 -143.167 49 -250.5c0 -120 -17.833 -208.333 -53.5 -265s-82.834 -85 -141.501 -85c-57.333 0 -102.833 29.833 -136.5 89.5s-50.5 145.167 -50.5 256.5c0 109.333 18 194 54 254s84 90 144 90zM224.001 614
c-26.667 0 -48.834 -13.999 -66.501 -41.999s-29.667 -61.833 -36 -101.5s-9.5 -84.167 -9.5 -133.5c0 -36.667 2 -70.834 6 -102.501s10.167 -61 18.5 -88s20 -48.167 35 -63.5s32.833 -23 53.5 -23s38.334 8.16699 53.001 24.5s26 38.5 34 66.5s13.667 57.333 17 88
s5 64 5 100c0 34 -1.66699 66.167 -5 96.5s-9 59.5 -17 87.5s-19.5 50.167 -34.5 66.5s-32.833 24.5 -53.5 24.5zM86.001 818.001h91l94 -108h-61z" />
    <glyph glyph-name="Oacute" unicode="&#xd3;" horiz-adv-x="446" 
d="M230 682c57.333 0 102.334 -29.833 135.001 -89.5s49 -143.167 49 -250.5c0 -120 -17.833 -208.333 -53.5 -265s-82.834 -85 -141.501 -85c-57.333 0 -102.833 29.833 -136.5 89.5s-50.5 145.167 -50.5 256.5c0 109.333 18 194 54 254s84 90 144 90zM224.001 614
c-26.667 0 -48.834 -13.999 -66.501 -41.999s-29.667 -61.833 -36 -101.5s-9.5 -84.167 -9.5 -133.5c0 -36.667 2 -70.834 6 -102.501s10.167 -61 18.5 -88s20 -48.167 35 -63.5s32.833 -23 53.5 -23s38.334 8.16699 53.001 24.5s26 38.5 34 66.5s13.667 57.333 17 88
s5 64 5 100c0 34 -1.66699 66.167 -5 96.5s-9 59.5 -17 87.5s-19.5 50.167 -34.5 66.5s-32.833 24.5 -53.5 24.5zM269.001 818.001h91l-124 -108h-61z" />
    <glyph glyph-name="Ocircumflex" unicode="&#xd4;" horiz-adv-x="446" 
d="M230 682c57.333 0 102.334 -29.833 135.001 -89.5s49 -143.167 49 -250.5c0 -120 -17.833 -208.333 -53.5 -265s-82.834 -85 -141.501 -85c-57.333 0 -102.833 29.833 -136.5 89.5s-50.5 145.167 -50.5 256.5c0 109.333 18 194 54 254s84 90 144 90zM224.001 614
c-26.667 0 -48.834 -13.999 -66.501 -41.999s-29.667 -61.833 -36 -101.5s-9.5 -84.167 -9.5 -133.5c0 -36.667 2 -70.834 6 -102.501s10.167 -61 18.5 -88s20 -48.167 35 -63.5s32.833 -23 53.5 -23s38.334 8.16699 53.001 24.5s26 38.5 34 66.5s13.667 57.333 17 88
s5 64 5 100c0 34 -1.66699 66.167 -5 96.5s-9 59.5 -17 87.5s-19.5 50.167 -34.5 66.5s-32.833 24.5 -53.5 24.5zM191.001 808.001h66l87 -98h-67l-52 55h-2l-52 -55h-66z" />
    <glyph glyph-name="Otilde" unicode="&#xd5;" horiz-adv-x="446" 
d="M230 682c57.333 0 102.334 -29.833 135.001 -89.5s49 -143.167 49 -250.5c0 -120 -17.833 -208.333 -53.5 -265s-82.834 -85 -141.501 -85c-57.333 0 -102.833 29.833 -136.5 89.5s-50.5 145.167 -50.5 256.5c0 109.333 18 194 54 254s84 90 144 90zM224.001 614
c-26.667 0 -48.834 -13.999 -66.501 -41.999s-29.667 -61.833 -36 -101.5s-9.5 -84.167 -9.5 -133.5c0 -36.667 2 -70.834 6 -102.501s10.167 -61 18.5 -88s20 -48.167 35 -63.5s32.833 -23 53.5 -23s38.334 8.16699 53.001 24.5s26 38.5 34 66.5s13.667 57.333 17 88
s5 64 5 100c0 34 -1.66699 66.167 -5 96.5s-9 59.5 -17 87.5s-19.5 50.167 -34.5 66.5s-32.833 24.5 -53.5 24.5zM157.001 716.001h-41c-0.666992 28.667 4.33301 51.5 15 68.5s25.334 25.5 44.001 25.5c12 0 28 -5.66699 48 -17c20 -12 33.333 -18 40 -18
c8 0 14 2.66699 18 8s6.66699 15 8 29h40c1.33301 -60 -19.334 -90 -62.001 -90c-16 0 -32.667 5.66699 -50 17c-17.333 10.667 -29.333 16 -36 16c-12.667 0 -20.667 -13 -24 -39z" />
    <glyph glyph-name="Odieresis" unicode="&#xd6;" horiz-adv-x="446" 
d="M230 682c57.333 0 102.334 -29.833 135.001 -89.5s49 -143.167 49 -250.5c0 -120 -17.833 -208.333 -53.5 -265s-82.834 -85 -141.501 -85c-57.333 0 -102.833 29.833 -136.5 89.5s-50.5 145.167 -50.5 256.5c0 109.333 18 194 54 254s84 90 144 90zM224.001 614
c-26.667 0 -48.834 -13.999 -66.501 -41.999s-29.667 -61.833 -36 -101.5s-9.5 -84.167 -9.5 -133.5c0 -36.667 2 -70.834 6 -102.501s10.167 -61 18.5 -88s20 -48.167 35 -63.5s32.833 -23 53.5 -23s38.334 8.16699 53.001 24.5s26 38.5 34 66.5s13.667 57.333 17 88
s5 64 5 100c0 34 -1.66699 66.167 -5 96.5s-9 59.5 -17 87.5s-19.5 50.167 -34.5 66.5s-32.833 24.5 -53.5 24.5zM141.001 725.001c-12 0 -22 4.33301 -30 13s-12 20 -12 34c0 12.667 4.16699 23.5 12.5 32.5s18.5 13.5 30.5 13.5c12.667 0 23 -4.33301 31 -13
s12 -19.667 12 -33c0 -14 -4 -25.333 -12 -34s-18.667 -13 -32 -13zM302.001 725.001c-12 0 -22 4.33301 -30 13s-12 20 -12 34c0 12.667 4.16699 23.5 12.5 32.5s18.5 13.5 30.5 13.5c12.667 0 23 -4.33301 31 -13s12 -19.667 12 -33c0 -14 -4 -25.333 -12 -34
s-18.667 -13 -32 -13z" />
    <glyph glyph-name="multiply" unicode="&#xd7;" horiz-adv-x="596" 
d="M40 486l37 40l220 -225l222 225l37 -40l-220 -224l219 -221l-38 -41l-219 224l-220 -224l-38 41l219 222z" />
    <glyph glyph-name="Oslash" unicode="&#xd8;" horiz-adv-x="446" 
d="M86 -37l-42 22.999l42 95c-36 59.333 -54 145 -54 257c0 109.333 17.667 194 53 254s81.666 90 138.999 90c39.333 0 73 -13.667 101 -41l30 70l46 -20l-40 -91c35.333 -60 53 -145.667 53 -257c0 -119.333 -17.833 -207.666 -53.5 -264.999s-81.5 -86 -137.5 -86
c-41.333 0 -75.666 15 -102.999 45zM129 171.999l164 398c-19.333 29.333 -42.333 44 -69 44c-20.667 0 -38.667 -7.83301 -54 -23.5s-27.333 -37 -36 -64s-15 -56.167 -19 -87.5s-6 -65 -6 -101c0 -68.667 6 -124 18 -166h2zM317 506.999l-168 -397
c18 -33.333 43 -50 75 -50c27.333 0 49.833 14.167 67.5 42.5s29.667 62.333 36 102s9.5 84.5 9.5 134.5c0 68.667 -6 124.667 -18 168h-2z" />
    <glyph glyph-name="Ugrave" unicode="&#xd9;" horiz-adv-x="457" 
d="M59 674h77v-452c0 -108 30.333 -162 91 -162c62.667 0 94 54 94 162v452h77v-440c0 -83.333 -15.333 -144.5 -46 -183.5s-72.667 -58.5 -126 -58.5c-111.333 0 -167 77.667 -167 233v449zM86 818h91l94 -108h-61z" />
    <glyph glyph-name="Uacute" unicode="&#xda;" horiz-adv-x="457" 
d="M59 674h77v-452c0 -108 30.333 -162 91 -162c62.667 0 94 54 94 162v452h77v-440c0 -83.333 -15.333 -144.5 -46 -183.5s-72.667 -58.5 -126 -58.5c-111.333 0 -167 77.667 -167 233v449zM277 818h91l-124 -108h-61z" />
    <glyph glyph-name="Ucircumflex" unicode="&#xdb;" horiz-adv-x="457" 
d="M59 674h77v-452c0 -108 30.333 -162 91 -162c62.667 0 94 54 94 162v452h77v-440c0 -83.333 -15.333 -144.5 -46 -183.5s-72.667 -58.5 -126 -58.5c-111.333 0 -167 77.667 -167 233v449zM196 808h66l87 -98h-67l-52 55h-2l-52 -55h-66z" />
    <glyph glyph-name="Udieresis" unicode="&#xdc;" horiz-adv-x="457" 
d="M59 674h77v-452c0 -108 30.333 -162 91 -162c62.667 0 94 54 94 162v452h77v-440c0 -83.333 -15.333 -144.5 -46 -183.5s-72.667 -58.5 -126 -58.5c-111.333 0 -167 77.667 -167 233v449zM146 725c-12 0 -22 4.33301 -30 13s-12 20 -12 34
c0 12.667 4.16699 23.5 12.5 32.5s18.5 13.5 30.5 13.5c12.667 0 23 -4.33301 31 -13s12 -19.667 12 -33c0 -14 -4 -25.333 -12 -34s-18.667 -13 -32 -13zM308 725c-12 0 -22 4.33301 -30 13s-12 20 -12 34c0 12.667 4.16699 23.5 12.5 32.5s18.5 13.5 30.5 13.5
c12.667 0 23 -4.33301 31 -13s12 -19.667 12 -33c0 -14 -4 -25.333 -12 -34s-18.667 -13 -32 -13z" />
    <glyph glyph-name="Yacute" unicode="&#xdd;" horiz-adv-x="394" 
d="M235 0l-77.001 0.000976562v285l-149 389h82l60 -169c26.667 -78.667 43.334 -129.334 50.001 -152.001h2c8 32 24.333 83.667 49 155l57 166h80l-154 -386v-288zM251.999 818.001h91l-124 -108h-61z" />
    <glyph glyph-name="Thorn" unicode="&#xde;" horiz-adv-x="396" 
d="M61 0l0.000976562 674h75v-133c13.333 2 30.333 3 51 3c57.333 0 102 -16 134 -48c32.667 -32 49 -76.333 49 -133c0 -65.333 -18.833 -115.333 -56.5 -150s-84.167 -52 -139.5 -52c-10.667 0 -23.334 1.33301 -38.001 4v-165h-75zM136.001 478l0.000976562 -248.999
c8 -2.66699 19.667 -4 35 -4c38 0 67.833 11.667 89.5 35s32.5 55.666 32.5 96.999c0 82.667 -38.667 124 -116 124c-16.667 0 -30.334 -1 -41.001 -3z" />
    <glyph glyph-name="germandbls" unicode="&#xdf;" horiz-adv-x="430" 
d="M131 0l-77.001 0.00390625v450c0 96.667 21 165.334 63 206.001c31.333 29.333 70.333 44 117 44c40.667 0 75.334 -13.333 104.001 -40s43 -65.334 43 -116.001c0 -30.667 -8 -58 -24 -82c-44 -17.333 -66 -44.333 -66 -81c0 -16 3.66699 -30.333 11 -43
s18.666 -28 33.999 -46c22.667 -26 39.5 -50.5 50.5 -73.5s16.5 -48.5 16.5 -76.5c0 -46.667 -15.167 -83.334 -45.5 -110.001s-67.166 -40 -110.499 -40c-30 0 -56.333 5 -79 15l13 60c16.667 -8.66699 38.334 -13 65.001 -13c25.333 0 45.5 7.66699 60.5 23
s22.5 34.333 22.5 57c0 32 -17.333 68.333 -52 109c-13.333 15.333 -23.333 27.666 -30 36.999s-13.167 22.166 -19.5 38.499s-9.5 33.166 -9.5 50.499c0 26.667 7.33301 50.5 22 71.5s34 37.167 58 48.5c6 12.667 9 28.667 9 48c0 36 -8.33301 61.5 -25 76.5
s-35.334 22.5 -56.001 22.5c-63.333 0 -95 -63.667 -95 -191v-445z" />
    <glyph glyph-name="agrave" unicode="&#xe0;" horiz-adv-x="364" 
d="M309 320l0.000976562 -210c0 -47.333 1.66699 -84 5 -110h-69l-5 51h-3c-22 -39.333 -54.333 -59 -97 -59c-32.667 0 -59.834 12.667 -81.501 38s-32.5 58.666 -32.5 99.999c0 57.333 19.5 100.833 58.5 130.5s88.167 44.834 147.5 45.501v15
c0 35.333 -5.83301 62.333 -17.5 81s-31.5 28 -59.5 28c-29.333 0 -56 -8.33301 -80 -25l-17 54c30 21.333 67.667 32 113 32c92 0 138 -57 138 -171zM234.001 153l-0.000976562 98c-88.667 0 -133 -37.667 -133 -113c0 -29.333 5.83301 -51 17.5 -65s25.5 -21 41.5 -21
c17.333 0 32.333 6.33301 45 19s21.334 30.667 26.001 54c2 8.66699 3 18 3 28zM58 682h79l77 -135h-51z" />
    <glyph glyph-name="aacute" unicode="&#xe1;" horiz-adv-x="364" 
d="M309 320l0.000976562 -210c0 -47.333 1.66699 -84 5 -110h-69l-5 51h-3c-22 -39.333 -54.333 -59 -97 -59c-32.667 0 -59.834 12.667 -81.501 38s-32.5 58.666 -32.5 99.999c0 57.333 19.5 100.833 58.5 130.5s88.167 44.834 147.5 45.501v15
c0 35.333 -5.83301 62.333 -17.5 81s-31.5 28 -59.5 28c-29.333 0 -56 -8.33301 -80 -25l-17 54c30 21.333 67.667 32 113 32c92 0 138 -57 138 -171zM234.001 153l-0.000976562 98c-88.667 0 -133 -37.667 -133 -113c0 -29.333 5.83301 -51 17.5 -65s25.5 -21 41.5 -21
c17.333 0 32.333 6.33301 45 19s21.334 30.667 26.001 54c2 8.66699 3 18 3 28zM218 682h79l-105 -135h-51z" />
    <glyph glyph-name="acircumflex" unicode="&#xe2;" horiz-adv-x="364" 
d="M309 320l0.000976562 -210c0 -47.333 1.66699 -84 5 -110h-69l-5 51h-3c-22 -39.333 -54.333 -59 -97 -59c-32.667 0 -59.834 12.667 -81.501 38s-32.5 58.666 -32.5 99.999c0 57.333 19.5 100.833 58.5 130.5s88.167 44.834 147.5 45.501v15
c0 35.333 -5.83301 62.333 -17.5 81s-31.5 28 -59.5 28c-29.333 0 -56 -8.33301 -80 -25l-17 54c30 21.333 67.667 32 113 32c92 0 138 -57 138 -171zM234.001 153l-0.000976562 98c-88.667 0 -133 -37.667 -133 -113c0 -29.333 5.83301 -51 17.5 -65s25.5 -21 41.5 -21
c17.333 0 32.333 6.33301 45 19s21.334 30.667 26.001 54c2 8.66699 3 18 3 28zM153 682h52l79 -135h-58l-46 87h-2l-46 -87h-58z" />
    <glyph glyph-name="atilde" unicode="&#xe3;" horiz-adv-x="364" 
d="M309 320l0.000976562 -210c0 -47.333 1.66699 -84 5 -110h-69l-5 51h-3c-22 -39.333 -54.333 -59 -97 -59c-32.667 0 -59.834 12.667 -81.501 38s-32.5 58.666 -32.5 99.999c0 57.333 19.5 100.833 58.5 130.5s88.167 44.834 147.5 45.501v15
c0 35.333 -5.83301 62.333 -17.5 81s-31.5 28 -59.5 28c-29.333 0 -56 -8.33301 -80 -25l-17 54c30 21.333 67.667 32 113 32c92 0 138 -57 138 -171zM234.001 153l-0.000976562 98c-88.667 0 -133 -37.667 -133 -113c0 -29.333 5.83301 -51 17.5 -65s25.5 -21 41.5 -21
c17.333 0 32.333 6.33301 45 19s21.334 30.667 26.001 54c2 8.66699 3 18 3 28zM116 561h-42.999c-0.666992 27.333 4.5 49.833 15.5 67.5s26.5 26.5 46.5 26.5c14 0 30.333 -6 49 -18c21.333 -11.333 34.666 -17 39.999 -17c16 0 24.333 12 25 36h41
c0 -59.333 -21 -89 -63 -89c-12.667 0 -29 5.66699 -49 17s-32.667 17 -38 17c-14 0 -22 -13.333 -24 -40z" />
    <glyph glyph-name="adieresis" unicode="&#xe4;" horiz-adv-x="364" 
d="M309 320l0.000976562 -210c0 -47.333 1.66699 -84 5 -110h-69l-5 51h-3c-22 -39.333 -54.333 -59 -97 -59c-32.667 0 -59.834 12.667 -81.501 38s-32.5 58.666 -32.5 99.999c0 57.333 19.5 100.833 58.5 130.5s88.167 44.834 147.5 45.501v15
c0 35.333 -5.83301 62.333 -17.5 81s-31.5 28 -59.5 28c-29.333 0 -56 -8.33301 -80 -25l-17 54c30 21.333 67.667 32 113 32c92 0 138 -57 138 -171zM234.001 153l-0.000976562 98c-88.667 0 -133 -37.667 -133 -113c0 -29.333 5.83301 -51 17.5 -65s25.5 -21 41.5 -21
c17.333 0 32.333 6.33301 45 19s21.334 30.667 26.001 54c2 8.66699 3 18 3 28zM104 566c-12 0 -22.333 4.16699 -31 12.5s-13 18.833 -13 31.5s4.33301 23.334 13 32.001s19.334 13 32.001 13c11.333 0 21.166 -4.33301 29.499 -13s12.5 -19.334 12.5 -32.001
s-4 -23.167 -12 -31.5s-18.333 -12.5 -31 -12.5zM260 566c-12 0 -22.333 4.16699 -31 12.5s-13 18.833 -13 31.5s4.33301 23.334 13 32.001s19.334 13 32.001 13c11.333 0 21.166 -4.33301 29.499 -13s12.5 -19.334 12.5 -32.001s-4 -23.167 -12 -31.5
s-18.333 -12.5 -31 -12.5z" />
    <glyph glyph-name="aring" unicode="&#xe5;" horiz-adv-x="364" 
d="M309 320l0.000976562 -210c0 -47.333 1.66699 -84 5 -110h-69l-5 51h-3c-22 -39.333 -54.333 -59 -97 -59c-32.667 0 -59.834 12.667 -81.501 38s-32.5 58.666 -32.5 99.999c0 57.333 19.5 100.833 58.5 130.5s88.167 44.834 147.5 45.501v15
c0 35.333 -5.83301 62.333 -17.5 81s-31.5 28 -59.5 28c-29.333 0 -56 -8.33301 -80 -25l-17 54c30 21.333 67.667 32 113 32c92 0 138 -57 138 -171zM234.001 153v98c-13.333 0 -26 -1.16699 -38 -3.5s-26 -6.83301 -42 -13.5s-28.833 -18.167 -38.5 -34.5
s-14.5 -36.833 -14.5 -61.5c0 -29.333 6 -51 18 -65s26 -21 42 -21c17.333 0 32.333 6.33301 45 19s21 30.667 25 54c2 8.66699 3 18 3 28zM181.001 533c-28 0 -50.667 8.16699 -68 24.5s-26 36.5 -26 60.5c0 25.333 8.5 46.5 25.5 63.5s40.167 25.5 69.5 25.5
c27.333 0 49.333 -8.33301 66 -25s25 -37.667 25 -63c0 -24 -8.83301 -44.333 -26.5 -61s-39.5 -25 -65.5 -25zM180.001 568c14.667 0 26.333 5.00098 35 15.001s13 22.333 13 37s-4.33301 27 -13 37s-20.667 15 -36 15c-14 0 -25 -5.33301 -33 -16s-12 -23.334 -12 -38.001
c0 -12.667 4.16699 -24.167 12.5 -34.5s19.5 -15.5 33.5 -15.5z" />
    <glyph glyph-name="ae" unicode="&#xe6;" horiz-adv-x="561" 
d="M531 241l-225.001 0.00195312c0 -125.333 38 -188 114 -188c30 0 57.333 7 82 21l14 -55c-28.667 -18 -66 -27 -112 -27c-30 0 -57.333 8.16699 -82 24.5s-41.667 39.166 -51 68.499h-2c-10.667 -29.333 -26.667 -52.166 -48 -68.499s-46.666 -24.5 -75.999 -24.5
c-34.667 0 -63.167 12.833 -85.5 38.5s-33.5 59.5 -33.5 101.5c0 55.333 19.667 97.5 59 126.5s88.666 43.5 147.999 43.5v27c0 30 -6.66699 54.333 -20 73s-33.666 28 -60.999 28c-28 0 -54 -8.33301 -78 -25l-17 53c30.667 22 67.667 33 111 33
c26.667 0 50.167 -7.33301 70.5 -22s33.833 -36.334 40.5 -65.001h2c10.667 27.333 26.5 48.666 47.5 63.999s44.5 23 70.5 23c44 0 77.167 -20.5 99.5 -61.5s33.5 -91.167 33.5 -150.5c0 -4.66699 -0.166992 -11 -0.5 -19s-0.5 -14.333 -0.5 -19zM233.999 154.002
l-0.00195312 95.001c-14 0 -27.167 -1.16699 -39.5 -3.5s-26.666 -6.83301 -42.999 -13.5s-29.333 -18.167 -39 -34.5s-14.5 -36.5 -14.5 -60.5c0 -28 6.16699 -49 18.5 -63s27.166 -21 44.499 -21c16.667 0 31.334 6.5 44.001 19.5s21.334 30.833 26.001 53.5
c2 9.33301 3 18.666 3 27.999zM307.997 296.003h150.001c1.33301 43.333 -4.83398 76.833 -18.501 100.5s-30.5 35.5 -50.5 35.5c-24.667 0 -44 -13.5 -58 -40.5s-21.667 -58.833 -23 -95.5z" />
    <glyph glyph-name="ccedilla" unicode="&#xe7;" horiz-adv-x="301" 
d="M280 72l12 -59.001c-20.667 -11.333 -46.334 -17.666 -77.001 -18.999l-23 -44c18 -2.66699 33.5 -10.667 46.5 -24s19.5 -29 19.5 -47c0 -26.667 -9 -46.5 -27 -59.5s-39.333 -19.5 -64 -19.5c-23.333 0 -45.666 6 -66.999 18l16 42c16 -10 32.667 -15 50 -15
c24 0 36 10.333 36 31c0 24 -23 38.333 -69 43l36 80c-42 10 -75.167 35.5 -99.5 76.5s-36.5 95.5 -36.5 163.5c0 72 17.167 132 51.5 180s80.833 72 139.5 72c28 0 50.667 -5 68 -15l-15 -63c-17.333 8.66699 -35.666 13 -54.999 13c-36.667 0 -64.5 -18.167 -83.5 -54.5
s-28.5 -80.5 -28.5 -132.5c0 -56.667 10.167 -101 30.5 -133s48.166 -48 83.499 -48c22 0 40.667 4.66699 56 14z" />
    <glyph glyph-name="egrave" unicode="&#xe8;" horiz-adv-x="363" 
d="M332 235l-224.001 0.000976562c0 -120 38 -180 114 -180c30.667 0 57.334 6 80.001 18l13 -56c-29.333 -15.333 -65 -23 -107 -23c-56.667 0 -100.167 21.667 -130.5 65s-45.5 102.666 -45.5 177.999c0 77.333 15.167 139 45.5 185s69.833 69 118.5 69
c46 0 80.5 -20.5 103.5 -61.5s34.5 -91.167 34.5 -150.5c0 -13.333 -0.666992 -28 -2 -44zM108.999 292.001h150.999c0.666992 45.333 -6.16602 79.833 -20.499 103.5s-31.5 35.5 -51.5 35.5c-24 0 -42.667 -13.833 -56 -41.5s-21 -60.167 -23 -97.5zM73.998 682.001h79
l77 -135h-51z" />
    <glyph glyph-name="eacute" unicode="&#xe9;" horiz-adv-x="363" 
d="M332 235l-224.001 0.000976562c0 -120 38 -180 114 -180c30.667 0 57.334 6 80.001 18l13 -56c-29.333 -15.333 -65 -23 -107 -23c-56.667 0 -100.167 21.667 -130.5 65s-45.5 102.666 -45.5 177.999c0 77.333 15.167 139 45.5 185s69.833 69 118.5 69
c46 0 80.5 -20.5 103.5 -61.5s34.5 -91.167 34.5 -150.5c0 -13.333 -0.666992 -28 -2 -44zM108.999 292.001h150.999c0.666992 45.333 -6.16602 79.833 -20.499 103.5s-31.5 35.5 -51.5 35.5c-24 0 -42.667 -13.833 -56 -41.5s-21 -60.167 -23 -97.5zM234.998 682.001h79
l-105 -135h-51z" />
    <glyph glyph-name="ecircumflex" unicode="&#xea;" horiz-adv-x="363" 
d="M332 235l-224.001 0.000976562c0 -120 38 -180 114 -180c30.667 0 57.334 6 80.001 18l13 -56c-29.333 -15.333 -65 -23 -107 -23c-56.667 0 -100.167 21.667 -130.5 65s-45.5 102.666 -45.5 177.999c0 77.333 15.167 139 45.5 185s69.833 69 118.5 69
c46 0 80.5 -20.5 103.5 -61.5s34.5 -91.167 34.5 -150.5c0 -13.333 -0.666992 -28 -2 -44zM108.999 292.001h150.999c0.666992 45.333 -6.16602 79.833 -20.499 103.5s-31.5 35.5 -51.5 35.5c-24 0 -42.667 -13.833 -56 -41.5s-21 -60.167 -23 -97.5zM167.998 682.001h52
l79 -135h-58l-46 87h-2l-46 -87h-58z" />
    <glyph glyph-name="edieresis" unicode="&#xeb;" horiz-adv-x="363" 
d="M332 235l-224.001 0.000976562c0 -120 38 -180 114 -180c30.667 0 57.334 6 80.001 18l13 -56c-29.333 -15.333 -65 -23 -107 -23c-56.667 0 -100.167 21.667 -130.5 65s-45.5 102.666 -45.5 177.999c0 77.333 15.167 139 45.5 185s69.833 69 118.5 69
c46 0 80.5 -20.5 103.5 -61.5s34.5 -91.167 34.5 -150.5c0 -13.333 -0.666992 -28 -2 -44zM108.999 292.001h150.999c0.666992 45.333 -6.16602 79.833 -20.499 103.5s-31.5 35.5 -51.5 35.5c-24 0 -42.667 -13.833 -56 -41.5s-21 -60.167 -23 -97.5zM118.998 566.001
c-12 0 -22.333 4.16699 -31 12.5s-13 18.833 -13 31.5s4.33301 23.334 13 32.001s19.334 13 32.001 13c11.333 0 21.166 -4.33301 29.499 -13s12.5 -19.334 12.5 -32.001s-4 -23.167 -12 -31.5s-18.333 -12.5 -31 -12.5zM274.998 566.001c-12 0 -22.333 4.16699 -31 12.5
s-13 18.833 -13 31.5s4.33301 23.334 13 32.001s19.334 13 32.001 13c11.333 0 21.166 -4.33301 29.499 -13s12.5 -19.334 12.5 -32.001s-4 -23.167 -12 -31.5s-18.333 -12.5 -31 -12.5z" />
    <glyph glyph-name="igrave" unicode="&#xec;" horiz-adv-x="184" 
d="M131 0h-77v484h77v-484zM-28 682h79l77 -135h-51z" />
    <glyph glyph-name="iacute" unicode="&#xed;" horiz-adv-x="184" 
d="M131 0h-77v484h77v-484zM131 682h78l-105 -135h-51z" />
    <glyph glyph-name="icircumflex" unicode="&#xee;" horiz-adv-x="184" 
d="M131 0h-77v484h77v-484zM67 682h52l79 -135h-58l-46 87h-2l-46 -87h-58z" />
    <glyph glyph-name="idieresis" unicode="&#xef;" horiz-adv-x="184" 
d="M131 0h-77v484h77v-484zM15 566c-12 0 -22.333 4.16699 -31 12.5s-13 18.833 -13 31.5s4.33301 23.334 13 32.001s19.334 13 32.001 13c11.333 0 21.166 -4.33301 29.499 -13s12.5 -19.334 12.5 -32.001s-4 -23.167 -12 -31.5s-18.333 -12.5 -31 -12.5zM170 566
c-12 0 -22.333 4.16699 -31 12.5s-13 18.833 -13 31.5s4.33301 23.334 13 32.001s19.334 13 32.001 13c11.333 0 21.166 -4.33301 29.499 -13s12.5 -19.334 12.5 -32.001s-4 -23.167 -12 -31.5s-18.333 -12.5 -31 -12.5z" />
    <glyph glyph-name="eth" unicode="&#xf0;" horiz-adv-x="381" 
d="M192 53c20.667 0 37.168 10.833 49.501 32.5s20.333 45 24 70s5.5 52.167 5.5 81.5c0 68.667 -5 117.334 -15 146.001c-10 32 -31.333 48 -64 48c-16.667 0 -30.834 -6.33301 -42.501 -19s-20.167 -29.5 -25.5 -50.5s-9 -40.833 -11 -59.5s-3 -38.334 -3 -59.001
c0 -31.333 1.83301 -60 5.5 -86s12 -49.833 25 -71.5s30.167 -32.5 51.5 -32.5zM79.001 508l-19.999 32.999l84 48c-6.66699 8 -30.334 32.333 -71.001 73l45 41c42 -39.333 70 -66.666 84 -81.999l91 51l20 -34l-83 -48c32 -38 58.333 -79.667 79 -125
c26.667 -57.333 40 -130 40 -218c0 -45.333 -4.66699 -85.166 -14 -119.499s-22 -61 -38 -80s-33.167 -33 -51.5 -42s-37.166 -13.5 -56.499 -13.5c-46 0 -83.333 21.167 -112 63.5s-43 104.166 -43 185.499c0 77.333 14 136.833 42 178.5s61.667 63.834 101 66.501
c21.333 1.33301 39.333 -3.33398 54 -14.001l2 2c-12.667 27.333 -32.334 56 -59.001 86z" />
    <glyph glyph-name="ntilde" unicode="&#xf1;" horiz-adv-x="405" 
d="M54 0l0.000976562 359.002c0 22 -0.666992 47 -2 75s-2 44.667 -2 50h67l4 -59h2c24 44 61 66 111 66c35.333 0 63.666 -13.667 84.999 -41s32 -69 32 -125v-325h-77v311c0 76.667 -22.333 115 -67 115c-16.667 0 -31.667 -6.83301 -45 -20.5
s-22.333 -32.834 -27 -57.501c-2.66699 -10.667 -4 -25.334 -4 -44.001v-304h-77zM138.001 561.002h-43c-0.666992 27.333 4.5 49.833 15.5 67.5s26.5 26.5 46.5 26.5c13.333 0 30 -6 50 -18c20 -11.333 33 -17 39 -17c16 0 24.333 12 25 36h41c0 -59.333 -21 -89 -63 -89
c-12.667 0 -29 5.66699 -49 17s-32.667 17 -38 17c-14 0 -22 -13.333 -24 -40z" />
    <glyph glyph-name="ograve" unicode="&#xf2;" horiz-adv-x="383" 
d="M195 491c46 0 83.501 -21.3311 112.501 -63.998s43.5 -104.334 43.5 -185.001c0 -86 -16 -149.167 -48 -189.5s-69.667 -60.5 -113 -60.5c-46 0 -83.667 21.167 -113 63.5s-44 104.166 -44 185.499c0 82.667 15.667 145 47 187s69.666 63 114.999 63zM192.001 430.002
c-16 0 -29.8379 -6.16699 -41.5049 -18.5s-20.167 -28.5 -25.5 -48.5s-9.16602 -39.833 -11.499 -59.5s-3.5 -40.167 -3.5 -61.5c0 -22.667 1.16699 -44 3.5 -64s6.33301 -40 12 -60s14.334 -35.833 26.001 -47.5s25.834 -17.5 42.501 -17.5c20.667 0 37.334 11 50.001 33
s20.834 46 24.501 72s5.5 54 5.5 84c0 21.333 -1.16699 41.833 -3.5 61.5s-6.33301 39.5 -12 59.5s-14.167 36.167 -25.5 48.5s-25 18.5 -41 18.5zM76.9961 682.002h79l77 -135h-51z" />
    <glyph glyph-name="oacute" unicode="&#xf3;" horiz-adv-x="383" 
d="M195 491c46 0 83.501 -21.3311 112.501 -63.998s43.5 -104.334 43.5 -185.001c0 -86 -16 -149.167 -48 -189.5s-69.667 -60.5 -113 -60.5c-46 0 -83.667 21.167 -113 63.5s-44 104.166 -44 185.499c0 82.667 15.667 145 47 187s69.666 63 114.999 63zM192.001 430.002
c-16 0 -29.8379 -6.16699 -41.5049 -18.5s-20.167 -28.5 -25.5 -48.5s-9.16602 -39.833 -11.499 -59.5s-3.5 -40.167 -3.5 -61.5c0 -22.667 1.16699 -44 3.5 -64s6.33301 -40 12 -60s14.334 -35.833 26.001 -47.5s25.834 -17.5 42.501 -17.5c20.667 0 37.334 11 50.001 33
s20.834 46 24.501 72s5.5 54 5.5 84c0 21.333 -1.16699 41.833 -3.5 61.5s-6.33301 39.5 -12 59.5s-14.167 36.167 -25.5 48.5s-25 18.5 -41 18.5zM230.996 682.002h79l-105 -135h-51z" />
    <glyph glyph-name="ocircumflex" unicode="&#xf4;" horiz-adv-x="383" 
d="M195 491c46 0 83.501 -21.3311 112.501 -63.998s43.5 -104.334 43.5 -185.001c0 -86 -16 -149.167 -48 -189.5s-69.667 -60.5 -113 -60.5c-46 0 -83.667 21.167 -113 63.5s-44 104.166 -44 185.499c0 82.667 15.667 145 47 187s69.666 63 114.999 63zM192.001 430.002
c-16 0 -29.8379 -6.16699 -41.5049 -18.5s-20.167 -28.5 -25.5 -48.5s-9.16602 -39.833 -11.499 -59.5s-3.5 -40.167 -3.5 -61.5c0 -22.667 1.16699 -44 3.5 -64s6.33301 -40 12 -60s14.334 -35.833 26.001 -47.5s25.834 -17.5 42.501 -17.5c20.667 0 37.334 11 50.001 33
s20.834 46 24.501 72s5.5 54 5.5 84c0 21.333 -1.16699 41.833 -3.5 61.5s-6.33301 39.5 -12 59.5s-14.167 36.167 -25.5 48.5s-25 18.5 -41 18.5zM165.996 682.002h52l79 -135h-58l-46 87h-2l-46 -87h-58z" />
    <glyph glyph-name="otilde" unicode="&#xf5;" horiz-adv-x="383" 
d="M195 491c46 0 83.501 -21.3311 112.501 -63.998s43.5 -104.334 43.5 -185.001c0 -86 -16 -149.167 -48 -189.5s-69.667 -60.5 -113 -60.5c-46 0 -83.667 21.167 -113 63.5s-44 104.166 -44 185.499c0 82.667 15.667 145 47 187s69.666 63 114.999 63zM192.001 430.002
c-16 0 -29.8379 -6.16699 -41.5049 -18.5s-20.167 -28.5 -25.5 -48.5s-9.16602 -39.833 -11.499 -59.5s-3.5 -40.167 -3.5 -61.5c0 -22.667 1.16699 -44 3.5 -64s6.33301 -40 12 -60s14.334 -35.833 26.001 -47.5s25.834 -17.5 42.501 -17.5c20.667 0 37.334 11 50.001 33
s20.834 46 24.501 72s5.5 54 5.5 84c0 21.333 -1.16699 41.833 -3.5 61.5s-6.33301 39.5 -12 59.5s-14.167 36.167 -25.5 48.5s-25 18.5 -41 18.5zM125.996 561.002h-42.999c-0.666992 27.333 4.5 49.833 15.5 67.5s26.5 26.5 46.5 26.5c14 0 30.333 -6 49 -18
c21.333 -11.333 34.666 -17 39.999 -17c16 0 24.333 12 25 36h41c0 -59.333 -21 -89 -63 -89c-12.667 0 -29 5.66699 -49 17s-32.667 17 -38 17c-14 0 -22 -13.333 -24 -40z" />
    <glyph glyph-name="odieresis" unicode="&#xf6;" horiz-adv-x="383" 
d="M195 491c46 0 83.501 -21.3311 112.501 -63.998s43.5 -104.334 43.5 -185.001c0 -86 -16 -149.167 -48 -189.5s-69.667 -60.5 -113 -60.5c-46 0 -83.667 21.167 -113 63.5s-44 104.166 -44 185.499c0 82.667 15.667 145 47 187s69.666 63 114.999 63zM192.001 430.002
c-16 0 -29.8379 -6.16699 -41.5049 -18.5s-20.167 -28.5 -25.5 -48.5s-9.16602 -39.833 -11.499 -59.5s-3.5 -40.167 -3.5 -61.5c0 -22.667 1.16699 -44 3.5 -64s6.33301 -40 12 -60s14.334 -35.833 26.001 -47.5s25.834 -17.5 42.501 -17.5c20.667 0 37.334 11 50.001 33
s20.834 46 24.501 72s5.5 54 5.5 84c0 21.333 -1.16699 41.833 -3.5 61.5s-6.33301 39.5 -12 59.5s-14.167 36.167 -25.5 48.5s-25 18.5 -41 18.5zM113.996 566.002c-12 0 -22.333 4.16699 -31 12.5s-13 18.833 -13 31.5s4.33301 23.334 13 32.001s19.334 13 32.001 13
c11.333 0 21.166 -4.33301 29.499 -13s12.5 -19.334 12.5 -32.001s-4 -23.167 -12 -31.5s-18.333 -12.5 -31 -12.5zM269.996 566.002c-12 0 -22.333 4.16699 -31 12.5s-13 18.833 -13 31.5s4.33301 23.334 13 32.001s19.334 13 32.001 13
c11.333 0 21.166 -4.33301 29.499 -13s12.5 -19.334 12.5 -32.001s-4 -23.167 -12 -31.5s-18.333 -12.5 -31 -12.5z" />
    <glyph glyph-name="divide" unicode="&#xf7;" horiz-adv-x="596" 
d="M297 396c-12.667 0 -22.999 4.33301 -30.999 13s-12 19.667 -12 33s4.16699 24.5 12.5 33.5s19.166 13.5 32.499 13.5s24 -4.33301 32 -13s12 -20 12 -34c0 -13.333 -4 -24.333 -12 -33s-19.333 -13 -34 -13zM556.001 239h-516v55h516v-55zM297.001 44
c-12.667 0 -22.999 4.33301 -30.999 13s-12 19.667 -12 33s4.16699 24.5 12.5 33.5s19.166 13.5 32.499 13.5s24 -4.33301 32 -13s12 -20 12 -34c0 -13.333 -4 -24.333 -12 -33s-19.333 -13 -34 -13z" />
    <glyph glyph-name="oslash" unicode="&#xf8;" horiz-adv-x="383" 
d="M194 491c28 0 54.667 -10.001 80 -30.001l26 53l41 -22l-33 -67c28.667 -43.333 43 -104.333 43 -183c0 -85.333 -15.833 -148.333 -47.5 -189s-68.5 -61 -110.5 -61c-30 0 -57.333 9.33301 -82 28l-25 -53l-39 25l31 64c-30 42.667 -45 104.334 -45 185.001
c0 82.667 15.667 145 47 187s69.333 63 114 63zM122 129.999l121.999 268.001c-9.33301 21.333 -26.666 32 -51.999 32c-17.333 0 -32 -6.33301 -44 -19s-20.833 -29.334 -26.5 -50.001s-9.5 -40.5 -11.5 -59.5s-3 -38.833 -3 -59.5c0 -42 4.33301 -78.667 13 -110z
M262.999 347l-120.002 -264c11.333 -20 28 -30 50 -30c16.667 0 30.834 5.83301 42.501 17.5s20.334 27.334 26.001 47.001s9.66699 39.167 12 58.5s3.5 39.666 3.5 60.999c0 43.333 -4 80 -12 110h-2z" />
    <glyph glyph-name="ugrave" unicode="&#xf9;" horiz-adv-x="398" 
d="M344 484l-0.00195312 -351.999c0 -21.333 0.666992 -48.5 2 -81.5s2 -49.833 2 -50.5h-67l-6 51h-2c-8.66699 -14.667 -22.167 -28.167 -40.5 -40.5s-39.166 -18.5 -62.499 -18.5c-78.667 0 -118 62 -118 186v306h77v-295c0 -42.667 4.66699 -75.334 14 -98.001
s26.333 -34 51 -34c20 0 35.833 7 47.5 21s18.834 28.333 21.501 43c2.66699 11.333 4 26 4 44v319h77zM84.998 682.001h79l77 -135h-51z" />
    <glyph glyph-name="uacute" unicode="&#xfa;" horiz-adv-x="398" 
d="M344 484l-0.00195312 -351.999c0 -21.333 0.666992 -48.5 2 -81.5s2 -49.833 2 -50.5h-67l-6 51h-2c-8.66699 -14.667 -22.167 -28.167 -40.5 -40.5s-39.166 -18.5 -62.499 -18.5c-78.667 0 -118 62 -118 186v306h77v-295c0 -42.667 4.66699 -75.334 14 -98.001
s26.333 -34 51 -34c20 0 35.833 7 47.5 21s18.834 28.333 21.501 43c2.66699 11.333 4 26 4 44v319h77zM244.998 682.001h79l-105 -135h-51z" />
    <glyph glyph-name="ucircumflex" unicode="&#xfb;" horiz-adv-x="398" 
d="M344 484l-0.00195312 -351.999c0 -21.333 0.666992 -48.5 2 -81.5s2 -49.833 2 -50.5h-67l-6 51h-2c-8.66699 -14.667 -22.167 -28.167 -40.5 -40.5s-39.166 -18.5 -62.499 -18.5c-78.667 0 -118 62 -118 186v306h77v-295c0 -42.667 4.66699 -75.334 14 -98.001
s26.333 -34 51 -34c20 0 35.833 7 47.5 21s18.834 28.333 21.501 43c2.66699 11.333 4 26 4 44v319h77zM172.998 682.001h52l79 -135h-58l-46 87h-2l-46 -87h-58z" />
    <glyph glyph-name="udieresis" unicode="&#xfc;" horiz-adv-x="398" 
d="M344 484l-0.00195312 -351.999c0 -21.333 0.666992 -48.5 2 -81.5s2 -49.833 2 -50.5h-67l-6 51h-2c-8.66699 -14.667 -22.167 -28.167 -40.5 -40.5s-39.166 -18.5 -62.499 -18.5c-78.667 0 -118 62 -118 186v306h77v-295c0 -42.667 4.66699 -75.334 14 -98.001
s26.333 -34 51 -34c20 0 35.833 7 47.5 21s18.834 28.333 21.501 43c2.66699 11.333 4 26 4 44v319h77zM123.998 566.001c-12 0 -22.333 4.16699 -31 12.5s-13 18.833 -13 31.5s4.33301 23.334 13 32.001s19.334 13 32.001 13c11.333 0 21.166 -4.33301 29.499 -13
s12.5 -19.334 12.5 -32.001s-4 -23.167 -12 -31.5s-18.333 -12.5 -31 -12.5zM279.998 566.001c-12 0 -22.333 4.16699 -31 12.5s-13 18.833 -13 31.5s4.33301 23.334 13 32.001s19.334 13 32.001 13c11.333 0 21.166 -4.33301 29.499 -13s12.5 -19.334 12.5 -32.001
s-4 -23.167 -12 -31.5s-18.333 -12.5 -31 -12.5z" />
    <glyph glyph-name="yacute" unicode="&#xfd;" horiz-adv-x="346" 
d="M12 484l81 0.000976562l65 -278c2.66699 -11.333 6 -28 10 -50s7.33301 -38.667 10 -50h2l10.5 53.5c5 25 8.16699 40.167 9.5 45.5l58 279h76l-79 -311c-38 -152 -78 -256 -120 -312c-26.667 -34 -55.667 -58.333 -87 -73l-29 65c24 13.333 47 33.666 69 60.999
c18.667 24 33 51.333 43 82c4 11.333 6 19.333 6 24c0 6 -1 12 -3 18zM216 682.001h79l-105 -135h-51z" />
    <glyph glyph-name="thorn" unicode="&#xfe;" horiz-adv-x="399" 
d="M53 664h76v-240h2c22 44.667 55.667 67 101 67c40 0 72.333 -22 97 -66s37 -104.667 37 -182c0 -83.333 -14.333 -146 -43 -188s-62.667 -63 -102 -63c-42.667 0 -72.667 19 -90 57h-2v-241h-76v856zM129 300l0.000976562 -124c0 -16.667 1.66699 -30 5 -40
c6 -30 15.667 -50.833 29 -62.5s27 -17.5 41 -17.5c56.667 0 85 61.667 85 185c0 54.667 -7 99 -21 133s-35.333 51 -64 51c-17.333 0 -32.833 -8.83301 -46.5 -26.5s-21.834 -38.167 -24.501 -61.5c-2.66699 -10.667 -4 -23 -4 -37z" />
    <glyph glyph-name="ydieresis" unicode="&#xff;" horiz-adv-x="346" 
d="M12 484l81 0.000976562l65 -278c2.66699 -11.333 6 -28 10 -50s7.33301 -38.667 10 -50h2l10.5 53.5c5 25 8.16699 40.167 9.5 45.5l58 279h76l-79 -311c-38 -152 -78 -256 -120 -312c-26.667 -34 -55.667 -58.333 -87 -73l-29 65c24 13.333 47 33.666 69 60.999
c18.667 24 33 51.333 43 82c4 11.333 6 19.333 6 24c0 6 -1 12 -3 18zM99 566.001c-12 0 -22.333 4.16699 -31 12.5s-13 18.833 -13 31.5s4.33301 23.334 13 32.001s19.334 13 32.001 13c11.333 0 21.166 -4.33301 29.499 -13s12.5 -19.334 12.5 -32.001
s-4 -23.167 -12 -31.5s-18.333 -12.5 -31 -12.5zM255 566.001c-12 0 -22.333 4.16699 -31 12.5s-13 18.833 -13 31.5s4.33301 23.334 13 32.001s19.334 13 32.001 13c11.333 0 21.166 -4.33301 29.499 -13s12.5 -19.334 12.5 -32.001s-4 -23.167 -12 -31.5
s-18.333 -12.5 -31 -12.5z" />
    <glyph glyph-name="Amacron" unicode="&#x100;" horiz-adv-x="435" 
d="M291 202h-150l-44 -202h-75l154 674h85l150 -674h-76zM152 264l128 -0.000976562l-35 171c-6.66699 32.667 -15.667 84 -27 154h-3c-10 -63.333 -19.333 -114.666 -28 -153.999zM111 787.999h213v-53h-213v53z" />
    <glyph glyph-name="amacron" unicode="&#x101;" horiz-adv-x="364" 
d="M309 320l0.000976562 -210c0 -47.333 1.66699 -84 5 -110h-69l-5 51h-3c-22 -39.333 -54.333 -59 -97 -59c-32.667 0 -59.834 12.667 -81.501 38s-32.5 58.666 -32.5 99.999c0 57.333 19.5 100.833 58.5 130.5s88.167 44.834 147.5 45.501v15
c0 35.333 -5.83301 62.333 -17.5 81s-31.5 28 -59.5 28c-29.333 0 -56 -8.33301 -80 -25l-17 54c30 21.333 67.667 32 113 32c92 0 138 -57 138 -171zM234.001 153l-0.000976562 98c-88.667 0 -133 -37.667 -133 -113c0 -29.333 5.83301 -51 17.5 -65s25.5 -21 41.5 -21
c17.333 0 32.333 6.33301 45 19s21.334 30.667 26.001 54c2 8.66699 3 18 3 28zM84 631h197v-51h-197v51z" />
    <glyph glyph-name="Abreve" unicode="&#x102;" horiz-adv-x="435" 
d="M291 202h-150l-44 -202h-75l154 674h85l150 -674h-76zM152 264l128 -0.000976562l-35 171c-6.66699 32.667 -15.667 84 -27 154h-3c-10 -63.333 -19.333 -114.666 -28 -153.999zM111 806.999l45.001 0.000976562c5.33301 -28.667 25.666 -43 60.999 -43s56 14.333 62 43
h45c0 -28.667 -9.5 -51.834 -28.5 -69.501s-44.833 -26.5 -77.5 -26.5c-33.333 0 -59.5 8.5 -78.5 25.5s-28.5 40.5 -28.5 70.5z" />
    <glyph glyph-name="abreve" unicode="&#x103;" horiz-adv-x="364" 
d="M309 320l0.000976562 -210c0 -47.333 1.66699 -84 5 -110h-69l-5 51h-3c-22 -39.333 -54.333 -59 -97 -59c-32.667 0 -59.834 12.667 -81.501 38s-32.5 58.666 -32.5 99.999c0 57.333 19.5 100.833 58.5 130.5s88.167 44.834 147.5 45.501v15
c0 35.333 -5.83301 62.333 -17.5 81s-31.5 28 -59.5 28c-29.333 0 -56 -8.33301 -80 -25l-17 54c30 21.333 67.667 32 113 32c92 0 138 -57 138 -171zM234.001 153l-0.000976562 98c-88.667 0 -133 -37.667 -133 -113c0 -29.333 5.83301 -51 17.5 -65s25.5 -21 41.5 -21
c17.333 0 32.333 6.33301 45 19s21.334 30.667 26.001 54c2 8.66699 3 18 3 28zM76 669h43.0039c1.33301 -18 7.66602 -32.667 18.999 -44s25.666 -17 42.999 -17c19.333 0 34.666 5.66699 45.999 17s17.333 26 18 44h43c1.33301 -32.667 -7.83398 -59.667 -27.501 -81
s-46.167 -32 -79.5 -32s-59.5 10.667 -78.5 32s-27.833 48.333 -26.5 81z" />
    <glyph glyph-name="Aogonek" unicode="&#x104;" horiz-adv-x="435" 
d="M261 674l148.999 -674h-23c-29.333 -36 -44 -68.333 -44 -97c0 -14.667 4.16699 -26 12.5 -34s17.833 -12 28.5 -12c16 0 30.333 3 43 9l11 -43c-19.333 -14.667 -43.333 -22 -72 -22c-25.333 0 -45.666 7.33301 -60.999 22s-23 34.667 -23 60c0 34.667 17 75.667 51 123
l-43 196h-149l-45 -202h-75l155 674h85zM150.999 264h128l-35 171c-6.66699 32.667 -15.667 84 -27 154h-3c-9.33301 -58.667 -18.333 -110 -27 -154z" />
    <glyph glyph-name="aogonek" unicode="&#x105;" horiz-adv-x="364" 
d="M309 320l0.000976562 -210.002c0 -53.333 3 -90 9 -110h-18c-27.333 -37.333 -41 -71.666 -41 -102.999c0 -14.667 4.16699 -26 12.5 -34s17.833 -12 28.5 -12c18 0 32.333 2.66699 43 8l11 -43c-20 -14 -44 -21 -72 -21c-26 0 -46.5 7.33301 -61.5 22s-22.5 35 -22.5 61
c0 32.667 15.667 73.334 47 122.001l-5 51h-3c-22 -39.333 -54.333 -59 -97 -59c-32.667 0 -59.834 12.667 -81.501 38s-32.5 58.666 -32.5 99.999c0 57.333 19.5 100.833 58.5 130.5s88.167 44.834 147.5 45.501v15c0 35.333 -5.83301 62.333 -17.5 81s-31.5 28 -59.5 28
c-29.333 0 -56 -8.33301 -80 -25l-17 54c30 21.333 67.667 32 113 32c92 0 138 -57 138 -171zM234.001 151.998l-0.000976562 99c-88.667 0 -133 -37.667 -133 -113c0 -29.333 5.83301 -51 17.5 -65s25.5 -21 41.5 -21c17.333 0 32.333 6.33301 45 19
s21.334 30.667 26.001 54c2 8.66699 3 17.667 3 27z" />
    <glyph glyph-name="Cacute" unicode="&#x106;" horiz-adv-x="373" 
d="M342 76l12.9971 -64c-22.667 -12 -55 -18 -97 -18c-68.667 0 -123.5 28.167 -164.5 84.5s-61.5 139.833 -61.5 250.5c0 63.333 7.33301 118.833 22 166.5s34 84.334 58 110.001s49.333 44.5 76 56.5s54.334 18 83.001 18c38.667 0 66.334 -5.66699 83.001 -17l-17 -65
c-21.333 9.33301 -43.666 14 -66.999 14c-42 0 -78.667 -22.333 -110 -67s-47 -114.334 -47 -209.001c0 -96 14.833 -165.667 44.5 -209s67.834 -65 114.501 -65c25.333 0 48.666 4.66699 69.999 14zM288.997 818h91l-124 -108h-61z" />
    <glyph glyph-name="cacute" unicode="&#x107;" horiz-adv-x="302" 
d="M279 71l11.001 -59c-20.667 -12 -47.334 -18 -80.001 -18c-54 0 -97 21.167 -129 63.5s-48 102.833 -48 181.5c0 72 17.167 132 51.5 180s80.833 72 139.5 72c28 0 50.667 -5 68 -15l-15 -63c-17.333 8.66699 -35.666 13 -54.999 13c-36.667 0 -64.5 -18.167 -83.5 -54.5
s-28.5 -80.5 -28.5 -132.5c0 -56.667 10.167 -101 30.5 -133s48.166 -48 83.499 -48c20 0 38.333 4.33301 55 13zM234.001 682h79l-105 -135h-51z" />
    <glyph glyph-name="Ccircumflex" unicode="&#x108;" horiz-adv-x="373" 
d="M342 76l12.9971 -64c-22.667 -12 -55 -18 -97 -18c-68.667 0 -123.5 28.167 -164.5 84.5s-61.5 139.833 -61.5 250.5c0 63.333 7.33301 118.833 22 166.5s34 84.334 58 110.001s49.333 44.5 76 56.5s54.334 18 83.001 18c38.667 0 66.334 -5.66699 83.001 -17l-17 -65
c-21.333 9.33301 -43.666 14 -66.999 14c-42 0 -78.667 -22.333 -110 -67s-47 -114.334 -47 -209.001c0 -96 14.833 -165.667 44.5 -209s67.834 -65 114.501 -65c25.333 0 48.666 4.66699 69.999 14zM201.997 808h66l87 -98h-67l-52 55h-2l-52 -55h-66z" />
    <glyph glyph-name="ccircumflex" unicode="&#x109;" horiz-adv-x="302" 
d="M279 71l11.001 -59c-20.667 -12 -47.334 -18 -80.001 -18c-54 0 -97 21.167 -129 63.5s-48 102.833 -48 181.5c0 72 17.167 132 51.5 180s80.833 72 139.5 72c28 0 50.667 -5 68 -15l-15 -63c-17.333 8.66699 -35.666 13 -54.999 13c-36.667 0 -64.5 -18.167 -83.5 -54.5
s-28.5 -80.5 -28.5 -132.5c0 -56.667 10.167 -101 30.5 -133s48.166 -48 83.499 -48c20 0 38.333 4.33301 55 13zM167.001 682h52l79 -135h-58l-46 87h-2l-46 -87h-58z" />
    <glyph glyph-name="Cdotaccent" unicode="&#x10a;" horiz-adv-x="373" 
d="M342 76l12.9971 -64c-22.667 -12 -55 -18 -97 -18c-68.667 0 -123.5 28.167 -164.5 84.5s-61.5 139.833 -61.5 250.5c0 63.333 7.33301 118.833 22 166.5s34 84.334 58 110.001s49.333 44.5 76 56.5s54.334 18 83.001 18c38.667 0 66.334 -5.66699 83.001 -17l-17 -65
c-21.333 9.33301 -43.666 14 -66.999 14c-42 0 -78.667 -22.333 -110 -67s-47 -114.334 -47 -209.001c0 -96 14.833 -165.667 44.5 -209s67.834 -65 114.501 -65c25.333 0 48.666 4.66699 69.999 14zM240.997 720c-12 0 -22.333 4.33301 -31 13s-13 19 -13 31
c0 12.667 4.33301 23.334 13 32.001s19.334 13 32.001 13s23.167 -4.33301 31.5 -13s12.5 -19.334 12.5 -32.001c0 -12 -4.33301 -22.333 -13 -31s-19.334 -13 -32.001 -13z" />
    <glyph glyph-name="cdotaccent" unicode="&#x10b;" horiz-adv-x="302" 
d="M279 71l11.001 -59c-20.667 -12 -47.334 -18 -80.001 -18c-54 0 -97 21.167 -129 63.5s-48 102.833 -48 181.5c0 72 17.167 132 51.5 180s80.833 72 139.5 72c28 0 50.667 -5 68 -15l-15 -63c-17.333 8.66699 -35.666 13 -54.999 13c-36.667 0 -64.5 -18.167 -83.5 -54.5
s-28.5 -80.5 -28.5 -132.5c0 -56.667 10.167 -101 30.5 -133s48.166 -48 83.499 -48c20 0 38.333 4.33301 55 13zM191.001 566c-12 0 -22.333 4.16699 -31 12.5s-13 18.833 -13 31.5s4.33301 23.334 13 32.001s19.334 13 32.001 13c11.333 0 21.166 -4.33301 29.499 -13
s12.5 -19.334 12.5 -32.001s-4 -23.167 -12 -31.5s-18.333 -12.5 -31 -12.5z" />
    <glyph glyph-name="Ccaron" unicode="&#x10c;" horiz-adv-x="373" 
d="M342 76l12.9971 -64c-22.667 -12 -55 -18 -97 -18c-68.667 0 -123.5 28.167 -164.5 84.5s-61.5 139.833 -61.5 250.5c0 63.333 7.33301 118.833 22 166.5s34 84.334 58 110.001s49.333 44.5 76 56.5s54.334 18 83.001 18c38.667 0 66.334 -5.66699 83.001 -17l-17 -65
c-21.333 9.33301 -43.666 14 -66.999 14c-42 0 -78.667 -22.333 -110 -67s-47 -114.334 -47 -209.001c0 -96 14.833 -165.667 44.5 -209s67.834 -65 114.501 -65c25.333 0 48.666 4.66699 69.999 14zM275.997 710h-66l-87 98h67l52 -58h2l52 58h66z" />
    <glyph glyph-name="ccaron" unicode="&#x10d;" horiz-adv-x="302" 
d="M279 71l11.001 -59c-20.667 -12 -47.334 -18 -80.001 -18c-54 0 -97 21.167 -129 63.5s-48 102.833 -48 181.5c0 72 17.167 132 51.5 180s80.833 72 139.5 72c28 0 50.667 -5 68 -15l-15 -63c-17.333 8.66699 -35.666 13 -54.999 13c-36.667 0 -64.5 -18.167 -83.5 -54.5
s-28.5 -80.5 -28.5 -132.5c0 -56.667 10.167 -101 30.5 -133s48.166 -48 83.499 -48c20 0 38.333 4.33301 55 13zM216.001 547h-52l-79 135h58l46 -87h2l47 87h58z" />
    <glyph glyph-name="Dcaron" unicode="&#x10e;" horiz-adv-x="445" 
d="M61 3v661c28 8.66699 62.333 13 103 13c67.333 0 120 -17 158 -51c60.667 -52.667 91 -143.667 91 -273c0 -130.667 -27 -225.667 -81 -285c-43.333 -48 -105.333 -72 -186 -72c-36 0 -64.333 2.33301 -85 7zM137 610l0.000976562 -548.001c7.33301 -1.33301 17 -2 29 -2
c18 0 34.667 2.66699 50 8s30.333 14.833 45 28.5s27.167 31.334 37.5 53.001s18.666 49.5 24.999 83.5s9.5 73.333 9.5 118c0 175.333 -53.333 263 -160 263c-15.333 0 -27.333 -1.33301 -36 -4zM228.001 709.999h-66l-87 98h67l52 -58h2l52 58h66z" />
    <glyph glyph-name="dcaron" unicode="&#x10f;" horiz-adv-x="409" 
d="M269 692l76 0.000976562v-576c0 -2.66699 1.33301 -41.334 4 -116.001h-66l-5 60h-3c-21.333 -45.333 -55.333 -68 -102 -68c-41.333 0 -75 21.833 -101 65.5s-39 104.5 -39 182.5c0 80.667 14.167 142.667 42.5 186s62.5 65 102.5 65c42 0 71.667 -19 89 -57h2v258z
M269 171.001l0.000976562 127.998c0 14.667 -0.333008 25.334 -1 32.001c-2.66699 26 -10.834 48.167 -24.501 66.5s-29.5 27.5 -47.5 27.5c-30 0 -51.833 -17.5 -65.5 -52.5s-20.5 -79.167 -20.5 -132.5c0 -54 7 -98.167 21 -132.5s34.333 -51.5 61 -51.5
c36 0 60.667 27.667 74 83c2 8.66699 3 19.334 3 32.001zM422.001 503.999l-34 23c19.333 30 29 60 29 90c0 28.667 -10.667 51.667 -32 69l57 11c22 -15.333 33 -39.333 33 -72c0 -38.667 -17.667 -79 -53 -121z" />
    <glyph glyph-name="Dcroat" unicode="&#x110;" horiz-adv-x="453" 
d="M0 323v57.999h69v283c28 8.66699 62.333 13 103 13c67.333 0 120 -17 158 -51c60.667 -52.667 91 -144 91 -274c0 -131.333 -27 -226.666 -81 -285.999c-43.333 -48 -105.333 -72 -186 -72c-34.667 0 -63 2 -85 6v323h-69zM247 380.999l-0.00195312 -58h-102v-263
c7.33301 -1.33301 17 -2 29 -2c22.667 0 43.334 4.66699 62.001 14s36.334 24.5 53.001 45.5s29.5 51.333 38.5 91s13.5 87.5 13.5 143.5c0 174.667 -53.333 262 -160 262c-10.667 0 -22.667 -1.33301 -36 -4v-229h102z" />
    <glyph glyph-name="dcroat" unicode="&#x111;" horiz-adv-x="399" 
d="M403 544l-58 0.000976562v-428c0 -2.66699 1.33301 -41.334 4 -116.001h-66l-5 60h-3c-21.333 -45.333 -55.333 -68 -102 -68c-41.333 0 -75 21.833 -101 65.5s-39 104.5 -39 182.5c0 80.667 14.167 142.667 42.5 186s62.5 65 102.5 65c42 0 71.667 -19 89 -57h2v110
h-131v53h131v95h76v-95h58v-53zM269 171.001l0.000976562 127.998c0 14.667 -0.333008 25.334 -1 32.001c-2.66699 26 -10.834 48.167 -24.501 66.5s-29.5 27.5 -47.5 27.5c-30 0 -51.833 -17.5 -65.5 -52.5s-20.5 -79.167 -20.5 -132.5c0 -54 7 -98.167 21 -132.5
s34.333 -51.5 61 -51.5c36 0 60.667 27.667 74 83c2 8.66699 3 19.334 3 32.001z" />
    <glyph glyph-name="Emacron" unicode="&#x112;" horiz-adv-x="354" 
d="M306 385v-65h-169v-253h192v-67h-269v674h257v-67h-180v-222h169zM86 788h213v-53h-213v53z" />
    <glyph glyph-name="emacron" unicode="&#x113;" horiz-adv-x="363" 
d="M332 235l-224.001 0.000976562c0 -120 38 -180 114 -180c30.667 0 57.334 6 80.001 18l13 -56c-29.333 -15.333 -65 -23 -107 -23c-56.667 0 -100.167 21.667 -130.5 65s-45.5 102.666 -45.5 177.999c0 77.333 15.167 139 45.5 185s69.833 69 118.5 69
c46 0 80.5 -20.5 103.5 -61.5s34.5 -91.167 34.5 -150.5c0 -13.333 -0.666992 -28 -2 -44zM108.999 292.001h150.999c0.666992 45.333 -6.16602 79.833 -20.499 103.5s-31.5 35.5 -51.5 35.5c-24 0 -42.667 -13.833 -56 -41.5s-21 -60.167 -23 -97.5zM88.998 631.001h197
v-51h-197v51z" />
    <glyph glyph-name="Ebreve" unicode="&#x114;" horiz-adv-x="354" 
d="M306 385v-65h-169v-253h192v-67h-269v674h257v-67h-180v-222h169zM84 809l45.001 0.000976562c5.33301 -28.667 25.666 -43 60.999 -43s56 14.333 62 43h45c0 -28.667 -9.5 -51.834 -28.5 -69.501s-44.833 -26.5 -77.5 -26.5c-33.333 0 -59.5 8.5 -78.5 25.5
s-28.5 40.5 -28.5 70.5z" />
    <glyph glyph-name="ebreve" unicode="&#x115;" horiz-adv-x="363" 
d="M332 235l-224.001 0.000976562c0 -120 38 -180 114 -180c30.667 0 57.334 6 80.001 18l13 -56c-29.333 -15.333 -65 -23 -107 -23c-56.667 0 -100.167 21.667 -130.5 65s-45.5 102.666 -45.5 177.999c0 77.333 15.167 139 45.5 185s69.833 69 118.5 69
c46 0 80.5 -20.5 103.5 -61.5s34.5 -91.167 34.5 -150.5c0 -13.333 -0.666992 -28 -2 -44zM108.999 292.001h150.999c0.666992 45.333 -6.16602 79.833 -20.499 103.5s-31.5 35.5 -51.5 35.5c-24 0 -42.667 -13.833 -56 -41.5s-21 -60.167 -23 -97.5zM82.998 669.001
h43.0039c1.33301 -18 7.66602 -32.667 18.999 -44s25.666 -17 42.999 -17c19.333 0 34.666 5.66699 45.999 17s17.333 26 18 44h43c1.33301 -32.667 -7.83398 -59.667 -27.501 -81s-46.167 -32 -79.5 -32s-59.5 10.667 -78.5 32s-27.833 48.333 -26.5 81z" />
    <glyph glyph-name="Edotaccent" unicode="&#x116;" horiz-adv-x="354" 
d="M306 385v-65h-169v-253h192v-67h-269v674h257v-67h-180v-222h169zM193 727c-12 0 -22.333 4.33301 -31 13s-13 19 -13 31c0 12.667 4.33301 23.334 13 32.001s19.334 13 32.001 13s23.167 -4.33301 31.5 -13s12.5 -19.334 12.5 -32.001c0 -12 -4.33301 -22.333 -13 -31
s-19.334 -13 -32.001 -13z" />
    <glyph glyph-name="edotaccent" unicode="&#x117;" horiz-adv-x="363" 
d="M332 235l-224.001 0.000976562c0 -120 38 -180 114 -180c30.667 0 57.334 6 80.001 18l13 -56c-29.333 -15.333 -65 -23 -107 -23c-56.667 0 -100.167 21.667 -130.5 65s-45.5 102.666 -45.5 177.999c0 77.333 15.167 139 45.5 185s69.833 69 118.5 69
c46 0 80.5 -20.5 103.5 -61.5s34.5 -91.167 34.5 -150.5c0 -13.333 -0.666992 -28 -2 -44zM108.999 292.001h150.999c0.666992 45.333 -6.16602 79.833 -20.499 103.5s-31.5 35.5 -51.5 35.5c-24 0 -42.667 -13.833 -56 -41.5s-21 -60.167 -23 -97.5zM189.998 566.001
c-12 0 -22.333 4.16699 -31 12.5s-13 18.833 -13 31.5s4.33301 23.334 13 32.001s19.334 13 32.001 13c11.333 0 21.166 -4.33301 29.499 -13s12.5 -19.334 12.5 -32.001s-4 -23.167 -12 -31.5s-18.333 -12.5 -31 -12.5z" />
    <glyph glyph-name="Eogonek" unicode="&#x118;" horiz-adv-x="354" 
d="M323 -137l10.999 -42c-19.333 -14.667 -44.333 -22 -75 -22c-25.333 0 -45.166 6.83301 -59.499 20.5s-21.5 32.5 -21.5 56.5s8 47 24 69s35.333 40.333 58 55h-200v674h257v-67h-180v-222h169v-65h-169v-253h192v-67c-2 -0.666992 -5.66699 -1.66699 -11 -3
c-52 -35.333 -78 -69.333 -78 -102c0 -13.333 4 -23.333 12 -30s17.333 -10 28 -10c16 0 30.333 2.66699 43 8z" />
    <glyph glyph-name="eogonek" unicode="&#x119;" horiz-adv-x="363" 
d="M276 -132l13.999 -42.002c-20.667 -16.667 -45.667 -25 -75 -25c-24.667 0 -44.5 6.83301 -59.5 20.5s-22.5 31.834 -22.5 54.501c0 22 7.66699 43.833 23 65.5s33 38.834 53 51.501v1h-4c-56 0.666992 -98.833 22.667 -128.5 66s-44.5 102.333 -44.5 177
c0 77.333 15.167 139 45.5 185s69.833 69 118.5 69c46 0 80.333 -20.5 103 -61.5s34 -91.167 34 -150.5c0 -22.667 -0.333008 -37.334 -1 -44.001h-224c0 -120 38 -180 114 -180c30.667 0 57.334 6 80.001 18l13 -56l-14.5 -6
c-6.33301 -2.66699 -10.5 -4.33398 -12.5 -5.00098c-25.333 -12.667 -47.333 -29.667 -66 -51s-28 -41.666 -28 -60.999c0 -13.333 3.5 -23.166 10.5 -29.499s15.833 -9.5 26.5 -9.5c14.667 0 29.667 4.33301 45 13zM108.999 291.998h150.999
c0.666992 45.333 -6.16602 79.833 -20.499 103.5s-31.5 35.5 -51.5 35.5c-24 0 -42.667 -13.833 -56 -41.5s-21 -60.167 -23 -97.5z" />
    <glyph glyph-name="Ecaron" unicode="&#x11a;" horiz-adv-x="354" 
d="M306 385v-65h-169v-253h192v-67h-269v674h257v-67h-180v-222h169zM223 710h-66l-87 98h67l52 -58h2l52 58h66z" />
    <glyph glyph-name="ecaron" unicode="&#x11b;" horiz-adv-x="363" 
d="M332 235l-224.001 0.000976562c0 -120 38 -180 114 -180c30.667 0 57.334 6 80.001 18l13 -56c-29.333 -15.333 -65 -23 -107 -23c-56.667 0 -100.167 21.667 -130.5 65s-45.5 102.666 -45.5 177.999c0 77.333 15.167 139 45.5 185s69.833 69 118.5 69
c46 0 80.5 -20.5 103.5 -61.5s34.5 -91.167 34.5 -150.5c0 -13.333 -0.666992 -28 -2 -44zM108.999 292.001h150.999c0.666992 45.333 -6.16602 79.833 -20.499 103.5s-31.5 35.5 -51.5 35.5c-24 0 -42.667 -13.833 -56 -41.5s-21 -60.167 -23 -97.5zM212.998 547.001h-52
l-79 135h58l46 -87h2l47 87h58z" />
    <glyph glyph-name="Gcircumflex" unicode="&#x11c;" horiz-adv-x="436" 
d="M391 352v-335.001c-36 -15.333 -75.667 -23 -119 -23c-66 0 -119 21.667 -159 65c-54.667 58.667 -81.667 148.334 -81 269.001s26 209.5 76 266.5s109.333 85.5 178 85.5c40 0 71.667 -6.33301 95 -19l-17 -66c-21.333 10.667 -47 16 -77 16c-48.667 0 -90 -22 -124 -66
s-51 -114 -51 -210s15.167 -165.833 45.5 -209.5s68.5 -65.5 114.5 -65.5c23.333 0 39 2.66699 47 8v220h-87v64h159zM221 807.999h67l87 -98h-67l-52 55h-2l-52 -55h-66z" />
    <glyph glyph-name="gcircumflex" unicode="&#x11d;" horiz-adv-x="399" 
d="M346 333v-271.001c0 -60.667 -3.83301 -106.167 -11.5 -136.5s-19.834 -55.166 -36.501 -74.499c-30.667 -34 -73.667 -51 -129 -51c-42 0 -77.333 8 -106 24l18 60c26.667 -14 56.667 -21 90 -21c66 0 99 49.333 99 148v49h-2c-16.667 -39.333 -47.667 -59 -93 -59
c-42.667 0 -77 22 -103 66s-39 101.667 -39 173c0 82.667 15.333 145.167 46 187.5s66.334 63.5 107.001 63.5c37.333 0 67.333 -20.333 90 -61h2l4 54h68c-2.66699 -88 -4 -138.333 -4 -151zM270 176.999v139.998c0 14.667 -1.33301 26.334 -4 35.001
c-12 48.667 -35.333 73 -70 73c-27.333 0 -48.5 -16.667 -63.5 -50s-22.5 -77.333 -22.5 -132c0 -58.667 8 -103.167 24 -133.5s36.667 -45.5 62 -45.5c34 0 57 23 69 69c3.33301 12.667 5 27.334 5 44.001zM172 681.997h51l79 -135h-58l-45 87h-2l-47 -87h-58z" />
    <glyph glyph-name="Gbreve" unicode="&#x11e;" horiz-adv-x="436" 
d="M391 352v-335.001c-36 -15.333 -75.667 -23 -119 -23c-66 0 -119 21.667 -159 65c-54.667 58.667 -81.667 148.334 -81 269.001s26 209.5 76 266.5s109.333 85.5 178 85.5c40 0 71.667 -6.33301 95 -19l-17 -66c-21.333 10.667 -47 16 -77 16c-48.667 0 -90 -22 -124 -66
s-51 -114 -51 -210s15.167 -165.833 45.5 -209.5s68.5 -65.5 114.5 -65.5c23.333 0 39 2.66699 47 8v220h-87v64h159zM147 806.999l45.001 0.000976562c5.33301 -28.667 25.666 -43 60.999 -43s56 14.333 62 43h45c0 -28.667 -9.5 -51.834 -28.5 -69.501
s-44.833 -26.5 -77.5 -26.5c-33.333 0 -59.5 8.5 -78.5 25.5s-28.5 40.5 -28.5 70.5z" />
    <glyph glyph-name="gbreve" unicode="&#x11f;" horiz-adv-x="399" 
d="M346 333v-271.001c0 -60.667 -3.83301 -106.167 -11.5 -136.5s-19.834 -55.166 -36.501 -74.499c-30.667 -34 -73.667 -51 -129 -51c-42 0 -77.333 8 -106 24l18 60c26.667 -14 56.667 -21 90 -21c66 0 99 49.333 99 148v49h-2c-16.667 -39.333 -47.667 -59 -93 -59
c-42.667 0 -77 22 -103 66s-39 101.667 -39 173c0 82.667 15.333 145.167 46 187.5s66.334 63.5 107.001 63.5c37.333 0 67.333 -20.333 90 -61h2l4 54h68c-2.66699 -88 -4 -138.333 -4 -151zM270 176.999v139.998c0 14.667 -1.33301 26.334 -4 35.001
c-12 48.667 -35.333 73 -70 73c-27.333 0 -48.5 -16.667 -63.5 -50s-22.5 -77.333 -22.5 -132c0 -58.667 8 -103.167 24 -133.5s36.667 -45.5 62 -45.5c34 0 57 23 69 69c3.33301 12.667 5 27.334 5 44.001zM94 668.997h43.0039c1.33301 -18 7.66602 -32.667 18.999 -44
s25.333 -17 42 -17c19.333 0 34.666 5.66699 45.999 17s17.333 26 18 44h43c1.33301 -32.667 -7.83398 -59.667 -27.501 -81s-46.167 -32 -79.5 -32s-59.333 10.667 -78 32s-27.334 48.333 -26.001 81z" />
    <glyph glyph-name="Gdotaccent" unicode="&#x120;" horiz-adv-x="436" 
d="M391 352v-335.001c-36 -15.333 -75.667 -23 -119 -23c-66 0 -119 21.667 -159 65c-54.667 58.667 -81.667 148.334 -81 269.001s26 209.5 76 266.5s109.333 85.5 178 85.5c40 0 71.667 -6.33301 95 -19l-17 -66c-21.333 10.667 -47 16 -77 16c-48.667 0 -90 -22 -124 -66
s-51 -114 -51 -210s15.167 -165.833 45.5 -209.5s68.5 -65.5 114.5 -65.5c23.333 0 39 2.66699 47 8v220h-87v64h159zM255 719.999c-12 0 -22.333 4.33301 -31 13s-13 19 -13 31c0 12.667 4.33301 23.334 13 32.001s19.334 13 32.001 13s23.167 -4.33301 31.5 -13
s12.5 -19.334 12.5 -32.001c0 -12 -4.33301 -22.333 -13 -31s-19.334 -13 -32.001 -13z" />
    <glyph glyph-name="gdotaccent" unicode="&#x121;" horiz-adv-x="399" 
d="M346 333v-271.001c0 -60.667 -3.83301 -106.167 -11.5 -136.5s-19.834 -55.166 -36.501 -74.499c-30.667 -34 -73.667 -51 -129 -51c-42 0 -77.333 8 -106 24l18 60c26.667 -14 56.667 -21 90 -21c66 0 99 49.333 99 148v49h-2c-16.667 -39.333 -47.667 -59 -93 -59
c-42.667 0 -77 22 -103 66s-39 101.667 -39 173c0 82.667 15.333 145.167 46 187.5s66.334 63.5 107.001 63.5c37.333 0 67.333 -20.333 90 -61h2l4 54h68c-2.66699 -88 -4 -138.333 -4 -151zM270 176.999v139.998c0 14.667 -1.33301 26.334 -4 35.001
c-12 48.667 -35.333 73 -70 73c-27.333 0 -48.5 -16.667 -63.5 -50s-22.5 -77.333 -22.5 -132c0 -58.667 8 -103.167 24 -133.5s36.667 -45.5 62 -45.5c34 0 57 23 69 69c3.33301 12.667 5 27.334 5 44.001zM201 565.997c-12 0 -22.333 4.16699 -31 12.5
s-13 18.833 -13 31.5s4.33301 23.334 13 32.001s19.334 13 32.001 13c11.333 0 21.166 -4.33301 29.499 -13s12.5 -19.334 12.5 -32.001s-4 -23.167 -12 -31.5s-18.333 -12.5 -31 -12.5z" />
    <glyph glyph-name="Gcommaaccent" unicode="&#x122;" horiz-adv-x="436" 
d="M391 352v-335.001c-36 -15.333 -75.667 -23 -119 -23c-66 0 -119 21.667 -159 65c-54.667 58.667 -81.667 148.334 -81 269.001s26 209.5 76 266.5s109.333 85.5 178 85.5c40 0 71.667 -6.33301 95 -19l-17 -66c-21.333 10.667 -47 16 -77 16c-48.667 0 -90 -22 -124 -66
s-51 -114 -51 -210s15.167 -165.833 45.5 -209.5s68.5 -65.5 114.5 -65.5c23.333 0 39 2.66699 47 8v220h-87v64h159zM206 -214.001l-17 37c17.333 4.66699 32.333 12.334 45 23.001s19 23.667 19 39c0 23.333 -11.333 43.666 -34 60.999l62 12
c23.333 -16.667 35 -40 35 -70c0 -29.333 -10.5 -52.333 -31.5 -69s-47.167 -27.667 -78.5 -33z" />
    <glyph glyph-name="gcommaaccent" unicode="&#x123;" horiz-adv-x="399" 
d="M346 333v-271.001c0 -60.667 -3.83301 -106.167 -11.5 -136.5s-19.834 -55.166 -36.501 -74.499c-30.667 -34 -73.667 -51 -129 -51c-42 0 -77.333 8 -106 24l18 60c26.667 -14 56.667 -21 90 -21c66 0 99 49.333 99 148v49h-2c-16.667 -39.333 -47.667 -59 -93 -59
c-42.667 0 -77 22 -103 66s-39 101.667 -39 173c0 82.667 15.333 145.167 46 187.5s66.334 63.5 107.001 63.5c37.333 0 67.333 -20.333 90 -61h2l4 54h68c-2.66699 -88 -4 -138.333 -4 -151zM270 176.999v139.998c0 14.667 -1.33301 26.334 -4 35.001
c-12 48.667 -35.333 73 -70 73c-27.333 0 -48.5 -16.667 -63.5 -50s-22.5 -77.333 -22.5 -132c0 -58.667 8 -103.167 24 -133.5s36.667 -45.5 62 -45.5c34 0 57 23 69 69c3.33301 12.667 5 27.334 5 44.001zM259 700.997l17 -34.998c-45.333 -10.667 -68 -32 -68 -64
c0 -22.667 12 -43.334 36 -62.001l-61 -11c-23.333 16.667 -35 40 -35 70s10.5 53.167 31.5 69.5s47.5 27.166 79.5 32.499z" />
    <glyph glyph-name="Hcircumflex" unicode="&#x124;" horiz-adv-x="463" 
d="M60 674h77v-289h189v289h77v-674h-77v315h-189v-315h-77v674zM201 808h66l87 -98h-67l-52 55h-2l-52 -55h-66z" />
    <glyph glyph-name="hcircumflex" unicode="&#x125;" horiz-adv-x="405" 
d="M54 0l0.000976562 692h77v-261h2c10 16.667 23.667 31 41 43c17.333 11.333 38.666 17 63.999 17c33.333 0 60.5 -14 81.5 -42s31.5 -70.667 31.5 -128v-321h-77v312c0 76 -21.667 114 -65 114c-38 0 -63 -25.667 -75 -77c-2 -10 -3 -22 -3 -36v-313h-77zM61.001 818h66
l87 -98h-67l-52 55h-2l-52 -55h-66z" />
    <glyph glyph-name="Hbar" unicode="&#x126;" horiz-adv-x="463" 
d="M450 483h-47v-483h-77v305h-189v-305h-77v483h-47v55h47v136h77v-136h189v136h77v-136h47v-55zM326 375v108h-189v-108h189z" />
    <glyph glyph-name="hbar" unicode="&#x127;" horiz-adv-x="405" 
d="M351 0h-76.999v312c0 76 -21.667 114 -65 114c-38 0 -63 -25.667 -75 -77c-2 -10 -3 -22 -3 -36v-313h-77v544h-60v53h60v95h77v-95h133v-53h-133v-113h2c10 16.667 23.667 31 41 43c17.333 11.333 38.666 17 63.999 17c33.333 0 60.5 -14 81.5 -42
s31.5 -70.667 31.5 -128v-321z" />
    <glyph glyph-name="Itilde" unicode="&#x128;" horiz-adv-x="199" 
d="M60 674h77v-674h-77v674zM35 718h-41.001c-0.666992 28.667 4.33301 51.5 15 68.5s25.334 25.5 44.001 25.5c12.667 0 28.334 -5.66699 47.001 -17c20 -12 33.333 -18 40 -18c8 0 14 2.66699 18 8s6.66699 15 8 29h40c1.33301 -60 -19.334 -90 -62.001 -90
c-16 0 -32.333 5.66699 -49 17c-17.333 10.667 -29.333 16 -36 16c-12.667 0 -20.667 -13 -24 -39z" />
    <glyph glyph-name="itilde" unicode="&#x129;" horiz-adv-x="184" 
d="M131 0h-77v484h77v-484zM27 561h-42.999c-0.666992 27.333 4.5 49.833 15.5 67.5s26.5 26.5 46.5 26.5c14 0 30.333 -6 49 -18c21.333 -11.333 34.666 -17 39.999 -17c16 0 24.333 12 25 36h41c0 -59.333 -21 -89 -63 -89c-12.667 0 -29 5.66699 -49 17
s-32.667 17 -38 17c-14 0 -22 -13.333 -24 -40z" />
    <glyph glyph-name="Imacron" unicode="&#x12a;" horiz-adv-x="199" 
d="M60 674h77v-674h-77v674zM-6 788h213v-53h-213v53z" />
    <glyph glyph-name="imacron" unicode="&#x12b;" horiz-adv-x="184" 
d="M131 0h-77v484h77v-484zM-5 631h197v-51h-197v51z" />
    <glyph glyph-name="Ibreve" unicode="&#x12c;" horiz-adv-x="199" 
d="M60 674h77v-674h-77v674zM-8 809l45.001 0.000976562c5.33301 -28.667 25.666 -43 60.999 -43s56 14.333 62 43h45c0 -28.667 -9.5 -51.834 -28.5 -69.501s-44.833 -26.5 -77.5 -26.5c-33.333 0 -59.5 8.5 -78.5 25.5s-28.5 40.5 -28.5 70.5z" />
    <glyph glyph-name="ibreve" unicode="&#x12d;" horiz-adv-x="184" 
d="M131 0h-77v484h77v-484zM-13 669h43.0039c1.33301 -18 7.66602 -32.667 18.999 -44s25.666 -17 42.999 -17c19.333 0 34.666 5.66699 45.999 17s17.333 26 18 44h43c1.33301 -32.667 -7.83398 -59.667 -27.501 -81s-46.167 -32 -79.5 -32s-59.5 10.667 -78.5 32
s-27.833 48.333 -26.5 81z" />
    <glyph glyph-name="Iogonek" unicode="&#x12e;" horiz-adv-x="199" 
d="M137 674l-0.000976562 -674h-22c-27.333 -37.333 -41 -71.333 -41 -102c0 -14.667 4 -26.167 12 -34.5s17.667 -12.5 29 -12.5c18 0 32.333 2.66699 43 8l11 -43c-20 -14 -44 -21 -72 -21c-25.333 0 -45.666 7.33301 -60.999 22s-23 34.667 -23 60
c0 33.333 15.667 74.333 47 123v674h77z" />
    <glyph glyph-name="iogonek" unicode="&#x12f;" horiz-adv-x="184" 
d="M90 559c-12.667 0 -23.168 4.66699 -31.501 14s-12.5 21.333 -12.5 36s4.33301 26.667 13 36s19.334 14 32.001 14c14 0 25.167 -4.5 33.5 -13.5s12.5 -21.167 12.5 -36.5s-4.16699 -27.5 -12.5 -36.5s-19.833 -13.5 -34.5 -13.5zM130.999 484v-484.001h-23
c-27.333 -37.333 -41 -71.666 -41 -102.999c0 -14.667 4.16699 -26 12.5 -34s17.833 -12 28.5 -12c18 0 32.333 2.66699 43 8l11 -43c-20 -14 -44 -21 -72 -21c-26 0 -46.5 7.33301 -61.5 22s-22.5 35 -22.5 61c0 34 16 74.667 48 122v484h77z" />
    <glyph glyph-name="Idotaccent" unicode="&#x130;" horiz-adv-x="199" 
d="M60 674h77v-674h-77v674zM99 727c-12 0 -22.333 4.33301 -31 13s-13 19 -13 31c0 12.667 4.33301 23.334 13 32.001s19.334 13 32.001 13s23.167 -4.33301 31.5 -13s12.5 -19.334 12.5 -32.001c0 -12 -4.33301 -22.333 -13 -31s-19.334 -13 -32.001 -13z" />
    <glyph glyph-name="dotlessi" unicode="&#x131;" horiz-adv-x="184" 
d="M131 0h-77v484h77v-484z" />
    <glyph glyph-name="IJ" unicode="&#x132;" horiz-adv-x="464" 
d="M60 674h77v-674h-77v674zM333 189l0.000976562 485h77v-484c0 -72 -13.5 -123 -40.5 -153s-66.167 -45 -117.5 -45c-21.333 0 -38 2.33301 -50 7l7 65c8.66699 -2.66699 21 -4 37 -4c29.333 0 51.166 9 65.499 27s21.5 52 21.5 102z" />
    <glyph glyph-name="ij" unicode="&#x133;" horiz-adv-x="373" 
d="M131 0h-77v484h77v-484zM91 659c14 0 25.166 -4.5 33.499 -13.5s12.5 -21.167 12.5 -36.5s-4.16699 -27.5 -12.5 -36.5s-19.833 -13.5 -34.5 -13.5c-12.667 0 -23.167 4.66699 -31.5 14s-12.5 21.333 -12.5 36s4.33301 26.667 13 36s19.334 14 32.001 14zM165.999 -200
l-10.001 61c32 8.66699 53.667 21.334 65 38.001c15.333 23.333 23 74.666 23 153.999v431h77v-453c0 -50 -3.83301 -88.667 -11.5 -116s-20.167 -50.333 -37.5 -69c-13.333 -14 -30.166 -25 -50.499 -33s-38.833 -12.333 -55.5 -13zM282.998 659
c13.333 0 24.166 -4.5 32.499 -13.5s12.5 -21.167 12.5 -36.5s-4.16699 -27.5 -12.5 -36.5s-19.5 -13.5 -33.5 -13.5c-13.333 0 -24.166 4.66699 -32.499 14s-12.5 21.333 -12.5 36s4.33301 26.667 13 36s19.667 14 33 14z" />
    <glyph glyph-name="Jcircumflex" unicode="&#x134;" horiz-adv-x="265" 
d="M134 189l0.000976562 485h77v-484c0 -72 -13.5 -123 -40.5 -153s-66.167 -45 -117.5 -45c-21.333 0 -38 2.33301 -50 7l7 65c8.66699 -2.66699 21 -4 37 -4c29.333 0 51.166 9 65.499 27s21.5 52 21.5 102zM135.001 808h66l87 -98h-67l-52 55h-2l-52 -55h-66z" />
    <glyph glyph-name="jcircumflex" unicode="&#x135;" horiz-adv-x="188" 
d="M-18 -200l-10.001 61c32 8.66699 53.667 21.334 65 38.001c15.333 23.333 23 74.666 23 153.999v431h77v-453c0 -50 -3.83301 -88.667 -11.5 -116s-20.167 -50.333 -37.5 -69c-13.333 -14 -30.166 -25 -50.499 -33s-38.833 -12.333 -55.5 -13zM68.999 674h52l79 -135h-58
l-45 87h-2l-47 -87h-58z" />
    <glyph glyph-name="Kcommaaccent" unicode="&#x136;" horiz-adv-x="404" 
d="M61 0v674h76v-320h2c8 14 22 41 42 81l126 239h85l-165 -288l169 -386h-83l-138 325l-38 -65v-260h-76zM159 -207l-16 37c17.333 4.66699 32.333 12.334 45 23.001s19 23.667 19 39c0 23.333 -11.333 43.666 -34 60.999l62 12c23.333 -16.667 35 -40 35 -70
c0 -29.333 -10.5 -52.333 -31.5 -69s-47.5 -27.667 -79.5 -33z" />
    <glyph glyph-name="kcommaaccent" unicode="&#x137;" horiz-adv-x="354" 
d="M129 692v-433h2c15.333 32.667 24 50.667 26 54l96 171h83l-128 -204l140 -280h-86l-105 228l-28 -45v-183h-76v692h76zM129 -214l-16 37c17.333 4.66699 32.333 12.334 45 23.001s19 23.667 19 39c0 23.333 -11.333 43.666 -34 60.999l62 12
c23.333 -16.667 35 -40 35 -70c0 -29.333 -10.5 -52.333 -31.5 -69s-47.5 -27.667 -79.5 -33z" />
    <glyph glyph-name="kgreenlandic" unicode="&#x138;" horiz-adv-x="354" 
d="M129 484v-225h2c15.333 32.667 24 50.667 26 54l96 171h83l-128 -204l140 -280h-86l-105 228l-28 -45v-183h-76v484h76z" />
    <glyph glyph-name="Lacute" unicode="&#x139;" horiz-adv-x="344" 
d="M60 0v674h77v-609h189v-65h-266zM160 818h91l-124 -108h-61z" />
    <glyph glyph-name="lacute" unicode="&#x13a;" horiz-adv-x="191" 
d="M54 0v692h77v-692h-77zM144 828h91l-124 -108h-61z" />
    <glyph glyph-name="Lcommaaccent" unicode="&#x13b;" horiz-adv-x="344" 
d="M60 0v674h77v-609h189v-65h-266zM125 -214l-16 37c17.333 4.66699 32.333 12.334 45 23.001s19 23.667 19 39c0 23.333 -11.333 43.666 -34 60.999l62 12c23.333 -16.667 35 -40 35 -70c0 -29.333 -10.5 -52.333 -31.5 -69s-47.5 -27.667 -79.5 -33z" />
    <glyph glyph-name="lcommaaccent" unicode="&#x13c;" horiz-adv-x="191" 
d="M54 0v692h77v-692h-77zM43 -214l-16 37c17.333 4.66699 32.333 12.334 45 23.001s19 23.667 19 39c0 23.333 -11.333 43.666 -34 60.999l62 12c23.333 -16.667 35 -40 35 -70c0 -29.333 -10.5 -52.333 -31.5 -69s-47.5 -27.667 -79.5 -33z" />
    <glyph glyph-name="Lcaron" unicode="&#x13d;" horiz-adv-x="344" 
d="M60 0v674h77v-609h189v-65h-266zM200 502l-16 37c17.333 4.66699 32.333 12.334 45 23.001s19 23.667 19 39c0 23.333 -11.333 43.666 -34 60.999l62 12c23.333 -16.667 35 -40 35 -70c0 -29.333 -10.5 -52.333 -31.5 -69s-47.5 -27.667 -79.5 -33z" />
    <glyph glyph-name="lcaron" unicode="&#x13e;" horiz-adv-x="194" 
d="M54 0v692h77v-692h-77zM208 505l-34 23c19.333 30 29 60 29 90c0 28 -10.667 50.667 -32 68l57 11c22 -15.333 33 -39.333 33 -72c0 -38 -17.667 -78 -53 -120z" />
    <glyph glyph-name="Ldot" unicode="&#x13f;" horiz-adv-x="344" 
d="M60 0v674h77v-609h189v-65h-266zM240 317c-12 0 -22.333 4.33301 -31 13s-13 19 -13 31c0 12.667 4.33301 23.334 13 32.001s19.334 13 32.001 13s23.167 -4.33301 31.5 -13s12.5 -19.334 12.5 -32.001c0 -12 -4.33301 -22.333 -13 -31s-19.334 -13 -32.001 -13z" />
    <glyph glyph-name="ldot" unicode="&#x140;" horiz-adv-x="235" 
d="M54 0v692h77v-692h-77zM211 350c-11.333 0 -20.999 4.16699 -28.999 12.5s-12 18.833 -12 31.5s4 23.167 12 31.5s18 12.5 30 12.5c11.333 0 20.666 -4.16699 27.999 -12.5s11 -18.833 11 -31.5s-3.83301 -23.167 -11.5 -31.5s-17.167 -12.5 -28.5 -12.5z" />
    <glyph glyph-name="Lslash" unicode="&#x141;" horiz-adv-x="351" 
d="M333 0h-266v256l-68 -65v70l68 65v348h77v-286l106 102v-71l-106 -101v-253h189v-65z" />
    <glyph glyph-name="lslash" unicode="&#x142;" horiz-adv-x="198" 
d="M138 0h-77v296l-62 -63v68l62 64v327h77v-267l64 66v-70l-64 -66v-355z" />
    <glyph glyph-name="Nacute" unicode="&#x143;" horiz-adv-x="465" 
d="M130 0h-69.001v674h72l124 -316c44.667 -116.667 73.334 -195 86.001 -235h2c-6 106 -9 209.333 -9 310v241h69v-674h-72l-128 324c-34 82.667 -61 159 -81 229h-2c5.33301 -80 8 -186.667 8 -320v-233zM290.999 818h90l-124 -108h-61z" />
    <glyph glyph-name="nacute" unicode="&#x144;" horiz-adv-x="405" 
d="M54 0l0.000976562 359.002c0 22 -0.666992 47 -2 75s-2 44.667 -2 50h67l4 -59h2c24 44 61 66 111 66c35.333 0 63.666 -13.667 84.999 -41s32 -69 32 -125v-325h-77v311c0 76.667 -22.333 115 -67 115c-16.667 0 -31.667 -6.83301 -45 -20.5
s-22.333 -32.834 -27 -57.501c-2.66699 -10.667 -4 -25.334 -4 -44.001v-304h-77zM247.001 682.002h79l-105 -135h-51z" />
    <glyph glyph-name="Ncommaaccent" unicode="&#x145;" horiz-adv-x="465" 
d="M130 0h-69.001v674h72l124 -316c44.667 -116.667 73.334 -195 86.001 -235h2c-6 106 -9 209.333 -9 310v241h69v-674h-72l-128 324c-34 82.667 -61 159 -81 229h-2c5.33301 -80 8 -186.667 8 -320v-233zM175.999 -211l-16 37c17.333 4.66699 32.333 12.334 45 23.001
s19 23.667 19 39c0 23.333 -11.333 43.666 -34 60.999l62 12c23.333 -16.667 35 -40 35 -70c0 -29.333 -10.5 -52.333 -31.5 -69s-47.5 -27.667 -79.5 -33z" />
    <glyph glyph-name="ncommaaccent" unicode="&#x146;" horiz-adv-x="405" 
d="M54 0l0.000976562 359.002c0 22 -0.666992 47 -2 75s-2 44.667 -2 50h67l4 -59h2c24 44 61 66 111 66c35.333 0 63.666 -13.667 84.999 -41s32 -69 32 -125v-325h-77v311c0 76.667 -22.333 115 -67 115c-16.667 0 -31.667 -6.83301 -45 -20.5
s-22.333 -32.834 -27 -57.501c-2.66699 -10.667 -4 -25.334 -4 -44.001v-304h-77zM158.001 -207.998l-15.999 36.999c17.333 4.66699 32.166 12.334 44.499 23.001s18.5 23.667 18.5 39c0 22.667 -11 43 -33 61l61 12c23.333 -16.667 35 -40 35 -70
c0 -29.333 -10.5 -52.333 -31.5 -69s-47.167 -27.667 -78.5 -33z" />
    <glyph glyph-name="Ncaron" unicode="&#x147;" horiz-adv-x="465" 
d="M130 0h-69.001v674h72l124 -316c44.667 -116.667 73.334 -195 86.001 -235h2c-6 106 -9 209.333 -9 310v241h69v-674h-72l-128 324c-34 82.667 -61 159 -81 229h-2c5.33301 -80 8 -186.667 8 -320v-233zM264.999 710h-66l-87 98h67l52 -58h2l52 58h66z" />
    <glyph glyph-name="ncaron" unicode="&#x148;" horiz-adv-x="405" 
d="M54 0l0.000976562 359.002c0 22 -0.666992 47 -2 75s-2 44.667 -2 50h67l4 -59h2c24 44 61 66 111 66c35.333 0 63.666 -13.667 84.999 -41s32 -69 32 -125v-325h-77v311c0 76.667 -22.333 115 -67 115c-16.667 0 -31.667 -6.83301 -45 -20.5
s-22.333 -32.834 -27 -57.501c-2.66699 -10.667 -4 -25.334 -4 -44.001v-304h-77zM229.001 547.002h-53l-79 135h58l46 -87h2l47 87h58z" />
    <glyph glyph-name="napostrophe" unicode="&#x149;" horiz-adv-x="405" 
d="M54 0l0.000976562 359.002c0 22 -0.666992 47 -2 75s-2 44.667 -2 50h67l4 -59h2c24 44 61 66 111 66c35.333 0 63.666 -13.667 84.999 -41s32 -69 32 -125v-325h-77v311c0 76.667 -22.333 115 -67 115c-16.667 0 -31.667 -6.83301 -45 -20.5
s-22.333 -32.834 -27 -57.501c-2.66699 -10.667 -4 -25.334 -4 -44.001v-304h-77zM53.001 528.002l-37 19c19.333 26.667 29 53.667 29 81c0 25.333 -10.667 45.666 -32 60.999l60 10c22 -14 33 -35.667 33 -65c0 -35.333 -17.667 -70.666 -53 -105.999z" />
    <glyph glyph-name="Eng" unicode="&#x14a;" horiz-adv-x="465" 
d="M130 0h-69v674h72l124 -316c42 -108 70.667 -186.333 86 -235h2c-6 106 -9 209.333 -9 310v241h69v-653c0 -58 -10.833 -104.167 -32.5 -138.5s-57.5 -57.166 -107.5 -68.499l-19 59c59.333 17.333 89.333 57.666 90 120.999l-131 330c-34 82.667 -61 159 -81 229h-2
c5.33301 -80 8 -186.333 8 -319v-234z" />
    <glyph glyph-name="eng" unicode="&#x14b;" horiz-adv-x="405" 
d="M54 0l0.000976562 359.001c0 22 -0.666992 47 -2 75s-2 44.667 -2 50h67l4 -59h2c24 44 61 66 111 66c35.333 0 63.666 -13.667 84.999 -41s32 -69 32 -125v-294c0 -118.667 -46.667 -186.667 -140 -204l-16 62c26 6.66699 45.667 20.334 59 41.001s20 53 20 97v284
c0 76.667 -22.333 115 -67 115c-16.667 0 -31.667 -6.83301 -45 -20.5s-22.333 -32.834 -27 -57.501c-2.66699 -10.667 -4 -25.334 -4 -44.001v-304h-77z" />
    <glyph glyph-name="Omacron" unicode="&#x14c;" horiz-adv-x="446" 
d="M230 682c57.333 0 102.334 -29.833 135.001 -89.5s49 -143.167 49 -250.5c0 -120 -17.833 -208.333 -53.5 -265s-82.834 -85 -141.501 -85c-57.333 0 -102.833 29.833 -136.5 89.5s-50.5 145.167 -50.5 256.5c0 109.333 18 194 54 254s84 90 144 90zM224.001 614
c-26.667 0 -48.834 -13.999 -66.501 -41.999s-29.667 -61.833 -36 -101.5s-9.5 -84.167 -9.5 -133.5c0 -36.667 2 -70.834 6 -102.501s10.167 -61 18.5 -88s20 -48.167 35 -63.5s32.833 -23 53.5 -23s38.334 8.16699 53.001 24.5s26 38.5 34 66.5s13.667 57.333 17 88
s5 64 5 100c0 34 -1.66699 66.167 -5 96.5s-9 59.5 -17 87.5s-19.5 50.167 -34.5 66.5s-32.833 24.5 -53.5 24.5zM118.001 788.001h213v-53h-213v53z" />
    <glyph glyph-name="omacron" unicode="&#x14d;" horiz-adv-x="383" 
d="M195 491c46 0 83.501 -21.3311 112.501 -63.998s43.5 -104.334 43.5 -185.001c0 -86 -16 -149.167 -48 -189.5s-69.667 -60.5 -113 -60.5c-46 0 -83.667 21.167 -113 63.5s-44 104.166 -44 185.499c0 82.667 15.667 145 47 187s69.666 63 114.999 63zM192.001 430.002
c-16 0 -29.8379 -6.16699 -41.5049 -18.5s-20.167 -28.5 -25.5 -48.5s-9.16602 -39.833 -11.499 -59.5s-3.5 -40.167 -3.5 -61.5c0 -22.667 1.16699 -44 3.5 -64s6.33301 -40 12 -60s14.334 -35.833 26.001 -47.5s25.834 -17.5 42.501 -17.5c20.667 0 37.334 11 50.001 33
s20.834 46 24.501 72s5.5 54 5.5 84c0 21.333 -1.16699 41.833 -3.5 61.5s-6.33301 39.5 -12 59.5s-14.167 36.167 -25.5 48.5s-25 18.5 -41 18.5zM93.9961 631.002h197v-51h-197v51z" />
    <glyph glyph-name="Obreve" unicode="&#x14e;" horiz-adv-x="446" 
d="M230 682c57.333 0 102.334 -29.833 135.001 -89.5s49 -143.167 49 -250.5c0 -120 -17.833 -208.333 -53.5 -265s-82.834 -85 -141.501 -85c-57.333 0 -102.833 29.833 -136.5 89.5s-50.5 145.167 -50.5 256.5c0 109.333 18 194 54 254s84 90 144 90zM224.001 614
c-26.667 0 -48.834 -13.999 -66.501 -41.999s-29.667 -61.833 -36 -101.5s-9.5 -84.167 -9.5 -133.5c0 -36.667 2 -70.834 6 -102.501s10.167 -61 18.5 -88s20 -48.167 35 -63.5s32.833 -23 53.5 -23s38.334 8.16699 53.001 24.5s26 38.5 34 66.5s13.667 57.333 17 88
s5 64 5 100c0 34 -1.66699 66.167 -5 96.5s-9 59.5 -17 87.5s-19.5 50.167 -34.5 66.5s-32.833 24.5 -53.5 24.5zM115.001 810.001l45.001 0.000976562c5.33301 -28.667 25.666 -43 60.999 -43s56 14.333 62 43h45c0 -28.667 -9.5 -51.834 -28.5 -69.501
s-44.833 -26.5 -77.5 -26.5c-33.333 0 -59.5 8.5 -78.5 25.5s-28.5 40.5 -28.5 70.5z" />
    <glyph glyph-name="obreve" unicode="&#x14f;" horiz-adv-x="383" 
d="M195 491c46 0 83.501 -21.3311 112.501 -63.998s43.5 -104.334 43.5 -185.001c0 -86 -16 -149.167 -48 -189.5s-69.667 -60.5 -113 -60.5c-46 0 -83.667 21.167 -113 63.5s-44 104.166 -44 185.499c0 82.667 15.667 145 47 187s69.666 63 114.999 63zM192.001 430.002
c-16 0 -29.8379 -6.16699 -41.5049 -18.5s-20.167 -28.5 -25.5 -48.5s-9.16602 -39.833 -11.499 -59.5s-3.5 -40.167 -3.5 -61.5c0 -22.667 1.16699 -44 3.5 -64s6.33301 -40 12 -60s14.334 -35.833 26.001 -47.5s25.834 -17.5 42.501 -17.5c20.667 0 37.334 11 50.001 33
s20.834 46 24.501 72s5.5 54 5.5 84c0 21.333 -1.16699 41.833 -3.5 61.5s-6.33301 39.5 -12 59.5s-14.167 36.167 -25.5 48.5s-25 18.5 -41 18.5zM84.9961 669.002h43.0039c1.33301 -18 7.66602 -32.667 18.999 -44s25.333 -17 42 -17c19.333 0 34.666 5.66699 45.999 17
s17.333 26 18 44h43c1.33301 -32.667 -7.83398 -59.667 -27.501 -81s-46.167 -32 -79.5 -32s-59.333 10.667 -78 32s-27.334 48.333 -26.001 81z" />
    <glyph glyph-name="Ohungarumlaut" unicode="&#x150;" horiz-adv-x="446" 
d="M230 682c57.333 0 102.334 -29.833 135.001 -89.5s49 -143.167 49 -250.5c0 -120 -17.833 -208.333 -53.5 -265s-82.834 -85 -141.501 -85c-57.333 0 -102.833 29.833 -136.5 89.5s-50.5 145.167 -50.5 256.5c0 109.333 18 194 54 254s84 90 144 90zM224.001 614
c-26.667 0 -48.834 -13.999 -66.501 -41.999s-29.667 -61.833 -36 -101.5s-9.5 -84.167 -9.5 -133.5c0 -36.667 2 -70.834 6 -102.501s10.167 -61 18.5 -88s20 -48.167 35 -63.5s32.833 -23 53.5 -23s38.334 8.16699 53.001 24.5s26 38.5 34 66.5s13.667 57.333 17 88
s5 64 5 100c0 34 -1.66699 66.167 -5 96.5s-9 59.5 -17 87.5s-19.5 50.167 -34.5 66.5s-32.833 24.5 -53.5 24.5zM203.001 818.001h81l-99 -99h-54zM331.001 818.001h80l-99 -99h-54z" />
    <glyph glyph-name="ohungarumlaut" unicode="&#x151;" horiz-adv-x="383" 
d="M195 491c46 0 83.501 -21.3311 112.501 -63.998s43.5 -104.334 43.5 -185.001c0 -86 -16 -149.167 -48 -189.5s-69.667 -60.5 -113 -60.5c-46 0 -83.667 21.167 -113 63.5s-44 104.166 -44 185.499c0 82.667 15.667 145 47 187s69.666 63 114.999 63zM192.001 430.002
c-16 0 -29.8379 -6.16699 -41.5049 -18.5s-20.167 -28.5 -25.5 -48.5s-9.16602 -39.833 -11.499 -59.5s-3.5 -40.167 -3.5 -61.5c0 -22.667 1.16699 -44 3.5 -64s6.33301 -40 12 -60s14.334 -35.833 26.001 -47.5s25.834 -17.5 42.501 -17.5c20.667 0 37.334 11 50.001 33
s20.834 46 24.501 72s5.5 54 5.5 84c0 21.333 -1.16699 41.833 -3.5 61.5s-6.33301 39.5 -12 59.5s-14.167 36.167 -25.5 48.5s-25 18.5 -41 18.5zM178.996 682.002h70l-104 -135h-44zM302.996 682.002h70l-104 -135h-44z" />
    <glyph glyph-name="OE" unicode="&#x152;" horiz-adv-x="610" 
d="M585 67l-0.000976562 -66.999h-247c-12 -0.666992 -24.333 -2.33398 -37 -5.00098c-14 -2 -26.667 -3 -38 -3c-42 0 -78.5 9.16699 -109.5 27.5s-55 43.833 -72 76.5s-29.5 68.667 -37.5 108s-12 82.333 -12 129c0 113.333 22.333 199.833 67 259.5
s102.334 89.5 173.001 89.5c13.333 0 26 -1 38 -3l35 -5h228v-67h-180v-222h169v-65h-169v-253h192zM315.999 68.001l0.000976562 535.001c-12.667 7.33301 -30.667 11 -54 11c-39.333 0 -74.166 -22.333 -104.499 -67s-45.5 -114.334 -45.5 -209.001
c-0.666992 -98.667 13.666 -169.667 42.999 -213s66.666 -65 111.999 -65c22.667 0 39 2.66699 49 8z" />
    <glyph glyph-name="oe" unicode="&#x153;" horiz-adv-x="609" 
d="M580 237l-224.999 -0.000976562c0.666992 -68.667 11 -116.5 31 -143.5s47.333 -40.5 82 -40.5c20.667 0 48.667 6.33301 84 19l13 -54c-28 -17.333 -65.667 -26 -113 -26c-29.333 0 -56.333 8.66699 -81 26s-42.334 42.333 -53.001 75h-2
c-10 -33.333 -26.5 -58.5 -49.5 -75.5s-48.167 -25.5 -75.5 -25.5c-46.667 0 -84.667 21.333 -114 64s-44 104.334 -44 185.001c0 81.333 15.667 143.333 47 186s70 64 116 64c27.333 0 52.333 -8.33301 75 -25s38.667 -41 48 -73h2c26 65.333 68 98 126 98
c44.667 0 78.167 -20.667 100.5 -62s33.5 -91.666 33.5 -150.999c0 -20.667 -0.333008 -34.334 -1 -41.001zM196.001 429.999c-17.333 0 -32.1689 -6.16699 -44.502 -18.5s-21.166 -29 -26.499 -50s-9.16602 -41 -11.499 -60s-3.5 -38.833 -3.5 -59.5
c0 -126 29.333 -189 88 -189c56.667 0 85 63.333 85 190c0 124.667 -29 187 -87 187zM356.998 291.999h149.999c1.33301 44 -5 78.167 -19 102.5s-30.333 36.5 -49 36.5c-24.667 0 -44.167 -13.833 -58.5 -41.5s-22.166 -60.167 -23.499 -97.5z" />
    <glyph glyph-name="Racute" unicode="&#x154;" horiz-adv-x="409" 
d="M61 0l-0.000976562 664c30.667 8.66699 67.334 13 110.001 13c68.667 0 119.334 -16 152.001 -48c31.333 -32 47 -76 47 -132c0 -82 -36 -140 -108 -174v-2c24.667 -7.33301 44 -23.166 58 -47.499s24.667 -58.833 32 -103.5c16 -92.667 29 -149.334 39 -170.001h-78
c-9.33301 18.667 -21.333 74 -36 166c-7.33301 46.667 -19.333 79.5 -36 98.5s-41.334 28.5 -74.001 28.5h-30v-293h-76zM136.999 611l0.000976562 -258.001h33c36.667 0 66.167 12.333 88.5 37s33.5 57.334 33.5 98.001c0 84 -38 126.333 -114 127
c-18.667 0 -32.334 -1.33301 -41.001 -4zM244 817.999h91l-124 -108h-61z" />
    <glyph glyph-name="racute" unicode="&#x155;" horiz-adv-x="248" 
d="M53 0l0.000976562 359c0 16 -0.666992 39.833 -2 71.5s-2 49.5 -2 53.5h69l4 -77h2c8 24 21.5 44 40.5 60s39.5 24 61.5 24c7.33301 0 12.666 -0.333008 15.999 -1v-78h-16c-24 0 -44.5 -9.5 -61.5 -28.5s-27.5 -42.833 -31.5 -71.5c-2 -13.333 -3 -28 -3 -44v-268h-77z
M180.001 682h79l-105 -135h-51z" />
    <glyph glyph-name="Rcommaaccent" unicode="&#x156;" horiz-adv-x="409" 
d="M61 0l-0.000976562 664c30.667 8.66699 67.334 13 110.001 13c68.667 0 119.334 -16 152.001 -48c31.333 -32 47 -76 47 -132c0 -82 -36 -140 -108 -174v-2c24.667 -7.33301 44 -23.166 58 -47.499s24.667 -58.833 32 -103.5c16 -92.667 29 -149.334 39 -170.001h-78
c-9.33301 18.667 -21.333 74 -36 166c-7.33301 46.667 -19.333 79.5 -36 98.5s-41.334 28.5 -74.001 28.5h-30v-293h-76zM136.999 611l0.000976562 -258.001h33c36.667 0 66.167 12.333 88.5 37s33.5 57.334 33.5 98.001c0 84 -38 126.333 -114 127
c-18.667 0 -32.334 -1.33301 -41.001 -4zM156 -207.001l-16 37c17.333 4.66699 32.333 12.334 45 23.001s19 23.667 19 39c0 23.333 -11.333 43.666 -34 60.999l62 12c23.333 -16.667 35 -40 35 -70c0 -29.333 -10.5 -52.333 -31.5 -69s-47.5 -27.667 -79.5 -33z" />
    <glyph glyph-name="rcommaaccent" unicode="&#x157;" horiz-adv-x="248" 
d="M53 0l0.000976562 359c0 16 -0.666992 39.833 -2 71.5s-2 49.5 -2 53.5h69l4 -77h2c8 24 21.5 44 40.5 60s39.5 24 61.5 24c7.33301 0 12.666 -0.333008 15.999 -1v-78h-16c-24 0 -44.5 -9.5 -61.5 -28.5s-27.5 -42.833 -31.5 -71.5c-2 -13.333 -3 -28 -3 -44v-268h-77z
M55.001 -214l-16 37c17.333 4.66699 32.333 12.334 45 23.001s19 23.667 19 39c0 23.333 -11.333 43.666 -34 60.999l62 12c23.333 -16.667 35 -40 35 -70c0 -29.333 -10.5 -52.333 -31.5 -69s-47.5 -27.667 -79.5 -33z" />
    <glyph glyph-name="Rcaron" unicode="&#x158;" horiz-adv-x="409" 
d="M61 0l-0.000976562 664c30.667 8.66699 67.334 13 110.001 13c68.667 0 119.334 -16 152.001 -48c31.333 -32 47 -76 47 -132c0 -82 -36 -140 -108 -174v-2c24.667 -7.33301 44 -23.166 58 -47.499s24.667 -58.833 32 -103.5c16 -92.667 29 -149.334 39 -170.001h-78
c-9.33301 18.667 -21.333 74 -36 166c-7.33301 46.667 -19.333 79.5 -36 98.5s-41.334 28.5 -74.001 28.5h-30v-293h-76zM136.999 611l0.000976562 -258.001h33c36.667 0 66.167 12.333 88.5 37s33.5 57.334 33.5 98.001c0 84 -38 126.333 -114 127
c-18.667 0 -32.334 -1.33301 -41.001 -4zM229 709.999h-66l-87 98h67l52 -58h2l52 58h66z" />
    <glyph glyph-name="rcaron" unicode="&#x159;" horiz-adv-x="248" 
d="M53 0l0.000976562 359c0 16 -0.666992 39.833 -2 71.5s-2 49.5 -2 53.5h69l4 -77h2c8 24 21.5 44 40.5 60s39.5 24 61.5 24c7.33301 0 12.666 -0.333008 15.999 -1v-78h-16c-24 0 -44.5 -9.5 -61.5 -28.5s-27.5 -42.833 -31.5 -71.5c-2 -13.333 -3 -28 -3 -44v-268h-77z
M162.001 547h-53l-79 135h58l46 -87h2l47 87h58z" />
    <glyph glyph-name="Sacute" unicode="&#x15a;" horiz-adv-x="361" 
d="M28 23l17.002 66.001c26.667 -18 58.667 -27 96 -27c35.333 0 63 10.333 83 31s30 48.334 30 83.001c0 28.667 -7.33301 53.5 -22 74.5s-37 42.833 -67 65.5c-84.667 58 -127 120.333 -127 187c0 51.333 16.5 93.666 49.5 126.999s75.833 50 128.5 50
c40.667 0 72 -8.33301 94 -25l-18 -66c-22 15.333 -48.667 23 -80 23s-55.5 -9.66699 -72.5 -29s-25.5 -41.666 -25.5 -66.999c0 -30.667 7.16699 -54.834 21.5 -72.501s40.166 -39.834 77.499 -66.501c78 -54.667 117 -119.334 117 -194.001
c0 -57.333 -17.833 -103.166 -53.5 -137.499s-80.834 -51.5 -135.501 -51.5c-22 0 -43.833 3 -65.5 9s-37.5 12.667 -47.5 20zM229.002 818.001h91l-124 -108h-61z" />
    <glyph glyph-name="sacute" unicode="&#x15b;" horiz-adv-x="289" 
d="M22 22l19 58.001c26 -16.667 52 -25 78 -25c21.333 0 38.5 6.33301 51.5 19s19.5 29.667 19.5 51c0 19.333 -4.33301 36 -13 50s-25 29 -49 45c-64.667 41.333 -97 87 -97 137c0 39.333 12.667 71.5 38 96.5s57 37.5 95 37.5c29.333 0 58 -8.33301 86 -25l-20 -58
c-21.333 14.667 -43 22 -65 22c-19.333 0 -34.5 -6 -45.5 -18s-16.5 -26.667 -16.5 -44c0 -16 4 -29.833 12 -41.5s24 -25.5 48 -41.5c66.667 -42.667 100 -91.667 100 -147c0 -46.667 -13.833 -82.334 -41.5 -107.001s-62.5 -37 -104.5 -37c-40 0 -71.667 9.33301 -95 28z
M189 682.001h79l-105 -135h-51z" />
    <glyph glyph-name="Scircumflex" unicode="&#x15c;" horiz-adv-x="361" 
d="M28 23l17.002 66.001c26.667 -18 58.667 -27 96 -27c35.333 0 63 10.333 83 31s30 48.334 30 83.001c0 28.667 -7.33301 53.5 -22 74.5s-37 42.833 -67 65.5c-84.667 58 -127 120.333 -127 187c0 51.333 16.5 93.666 49.5 126.999s75.833 50 128.5 50
c40.667 0 72 -8.33301 94 -25l-18 -66c-22 15.333 -48.667 23 -80 23s-55.5 -9.66699 -72.5 -29s-25.5 -41.666 -25.5 -66.999c0 -30.667 7.16699 -54.834 21.5 -72.501s40.166 -39.834 77.499 -66.501c78 -54.667 117 -119.334 117 -194.001
c0 -57.333 -17.833 -103.166 -53.5 -137.499s-80.834 -51.5 -135.501 -51.5c-22 0 -43.833 3 -65.5 9s-37.5 12.667 -47.5 20zM155.002 808.001h66l87 -98h-67l-52 55h-2l-52 -55h-66z" />
    <glyph glyph-name="scircumflex" unicode="&#x15d;" horiz-adv-x="289" 
d="M22 22l19 58.001c26 -16.667 52 -25 78 -25c21.333 0 38.5 6.33301 51.5 19s19.5 29.667 19.5 51c0 19.333 -4.33301 36 -13 50s-25 29 -49 45c-64.667 41.333 -97 87 -97 137c0 39.333 12.667 71.5 38 96.5s57 37.5 95 37.5c29.333 0 58 -8.33301 86 -25l-20 -58
c-21.333 14.667 -43 22 -65 22c-19.333 0 -34.5 -6 -45.5 -18s-16.5 -26.667 -16.5 -44c0 -16 4 -29.833 12 -41.5s24 -25.5 48 -41.5c66.667 -42.667 100 -91.667 100 -147c0 -46.667 -13.833 -82.334 -41.5 -107.001s-62.5 -37 -104.5 -37c-40 0 -71.667 9.33301 -95 28z
M119 682.001h52l79 -135h-58l-46 87h-2l-46 -87h-58z" />
    <glyph glyph-name="Scedilla" unicode="&#x15e;" horiz-adv-x="361" 
d="M28 23l16.999 66.002c26.667 -18 58.667 -27 96 -27c35.333 0 63 10.333 83 31s30 48.334 30 83.001c0 28.667 -7.33301 53.5 -22 74.5s-37 42.833 -67 65.5c-84.667 58 -127 120.333 -127 187c0 51.333 16.5 93.666 49.5 126.999s75.833 50 128.5 50
c40.667 0 72 -8.33301 94 -25l-18 -66c-22 15.333 -48.667 23 -80 23s-55.5 -9.66699 -72.5 -29s-25.5 -41.666 -25.5 -66.999c0 -30.667 7.16699 -54.834 21.5 -72.501s40.166 -39.834 77.499 -66.501c78 -54.667 117 -119.334 117 -194.001
c0 -46 -11.667 -84.833 -35 -116.5s-54.666 -53.167 -93.999 -64.5l-28 -52c18 -2.66699 33.5 -10.667 46.5 -24s19.5 -29 19.5 -47c0 -26.667 -9 -46.5 -27 -59.5s-39.333 -19.5 -64 -19.5c-23.333 0 -45.666 6 -66.999 18l16 42c15.333 -10 32 -15 50 -15
c24 0 36 10.333 36 31c0 24 -23 38.333 -69 43l35 75h-8c-22 0 -43.833 3 -65.5 9s-37.5 12.667 -47.5 20z" />
    <glyph glyph-name="scedilla" unicode="&#x15f;" horiz-adv-x="289" 
d="M22 22l18.998 57.999c26 -16.667 52 -25 78 -25c21.333 0 38.5 6.33301 51.5 19s19.5 29.667 19.5 51c0 19.333 -4.33301 36 -13 50s-25 29 -49 45c-64.667 41.333 -97 87 -97 137c0 39.333 12.667 71.5 38 96.5s57 37.5 95 37.5c29.333 0 58 -8.33301 86 -25l-20 -58
c-21.333 14.667 -43 22 -65 22c-19.333 0 -34.5 -6 -45.5 -18s-16.5 -26.667 -16.5 -44c0 -16 4 -29.833 12 -41.5s24 -25.5 48 -41.5c66.667 -42.667 100 -91.667 100 -147c0 -36.667 -8.66699 -66.5 -26 -89.5s-40.333 -38.833 -69 -47.5l-27 -51
c18 -2.66699 33.5 -10.667 46.5 -24s19.5 -29 19.5 -47c0 -26.667 -9 -46.5 -27 -59.5s-39.333 -19.5 -64 -19.5c-23.333 0 -45.666 6 -66.999 18l16 42c16 -10 32.667 -15 50 -15c24 0 36 10 36 30c0 24.667 -23 39.334 -69 44.001l35 75h-4
c-37.333 0 -67.666 9.33301 -90.999 28z" />
    <glyph glyph-name="Scaron" unicode="&#x160;" horiz-adv-x="361" 
d="M28 23l17.002 66.001c26.667 -18 58.667 -27 96 -27c35.333 0 63 10.333 83 31s30 48.334 30 83.001c0 28.667 -7.33301 53.5 -22 74.5s-37 42.833 -67 65.5c-84.667 58 -127 120.333 -127 187c0 51.333 16.5 93.666 49.5 126.999s75.833 50 128.5 50
c40.667 0 72 -8.33301 94 -25l-18 -66c-22 15.333 -48.667 23 -80 23s-55.5 -9.66699 -72.5 -29s-25.5 -41.666 -25.5 -66.999c0 -30.667 7.16699 -54.834 21.5 -72.501s40.166 -39.834 77.499 -66.501c78 -54.667 117 -119.334 117 -194.001
c0 -57.333 -17.833 -103.166 -53.5 -137.499s-80.834 -51.5 -135.501 -51.5c-22 0 -43.833 3 -65.5 9s-37.5 12.667 -47.5 20zM229.002 710.001h-66l-87 98h67l52 -58h2l52 58h66z" />
    <glyph glyph-name="scaron" unicode="&#x161;" horiz-adv-x="289" 
d="M22 22l19 58.001c26 -16.667 52 -25 78 -25c21.333 0 38.5 6.33301 51.5 19s19.5 29.667 19.5 51c0 19.333 -4.33301 36 -13 50s-25 29 -49 45c-64.667 41.333 -97 87 -97 137c0 39.333 12.667 71.5 38 96.5s57 37.5 95 37.5c29.333 0 58 -8.33301 86 -25l-20 -58
c-21.333 14.667 -43 22 -65 22c-19.333 0 -34.5 -6 -45.5 -18s-16.5 -26.667 -16.5 -44c0 -16 4 -29.833 12 -41.5s24 -25.5 48 -41.5c66.667 -42.667 100 -91.667 100 -147c0 -46.667 -13.833 -82.334 -41.5 -107.001s-62.5 -37 -104.5 -37c-40 0 -71.667 9.33301 -95 28z
M173 547.001h-52l-79 135h58l45 -87h2l48 87h58z" />
    <glyph glyph-name="Tcommaaccent" unicode="&#x162;" horiz-adv-x="354" 
d="M139 0v605h-123v69h323v-69h-123v-605h-77zM122 -214l-16 37c17.333 4.66699 32.333 12.334 45 23.001s19 23.667 19 39c0 23.333 -11.333 43.666 -34 60.999l62 12c23.333 -16.667 35 -40 35 -70c0 -29.333 -10.5 -52.333 -31.5 -69s-47.5 -27.667 -79.5 -33z" />
    <glyph glyph-name="tcommaaccent" unicode="&#x163;" horiz-adv-x="255" 
d="M71 566l77 31v-113h93v-58h-93v-288c0 -53.333 16.667 -80 50 -80c12.667 0 23 1 31 3l4 -59c-14.667 -5.33301 -33.667 -8 -57 -8c-34 0 -59.333 9.66699 -76 29c-19.333 21.333 -29 62 -29 122v281h-59v58h59v82zM85 -214l-16 37
c17.333 4.66699 32.333 12.334 45 23.001s19 23.667 19 39c0 23.333 -11.333 43.666 -34 60.999l62 12c23.333 -16.667 35 -40 35 -70c0 -29.333 -10.5 -52.333 -31.5 -69s-47.5 -27.667 -79.5 -33z" />
    <glyph glyph-name="Tcaron" unicode="&#x164;" horiz-adv-x="354" 
d="M139 0v605h-123v69h323v-69h-123v-605h-77zM209 710h-66l-87 98h67l52 -58h2l52 58h66z" />
    <glyph glyph-name="tcaron" unicode="&#x165;" horiz-adv-x="265" 
d="M71 566l77.001 31v-113h93v-58h-93v-288c0 -53.333 17 -80 51 -80c11.333 0 21.666 1 30.999 3l3 -59c-14 -5.33301 -33 -8 -57 -8c-34 0 -59.333 9.66699 -76 29c-19.333 21.333 -29 62 -29 122v281h-59v58h59v82zM263.001 536l-37 19.999c19.333 24.667 29 52 29 82
c0 26.667 -10 47.334 -30 62.001l60 11c22 -15.333 33 -37.333 33 -66c0 -36 -18.333 -72.333 -55 -109z" />
    <glyph glyph-name="Tbar" unicode="&#x166;" horiz-adv-x="354" 
d="M339 605h-123v-226h84v-56h-84v-323h-77v323h-84v56h84v226h-123v69h323v-69z" />
    <glyph glyph-name="tbar" unicode="&#x167;" horiz-adv-x="255" 
d="M241 426h-93v-117h73v-53h-73v-118c0 -53.333 16.667 -80 50 -80c12.667 0 23 1 31 3l4 -59c-14.667 -5.33301 -33.667 -8 -57 -8c-34 0 -59.333 9.66699 -76 29c-19.333 21.333 -29 62 -29 122v111h-55v53h55v117h-59v58h59v82l77 31v-113h93v-58z" />
    <glyph glyph-name="Utilde" unicode="&#x168;" horiz-adv-x="457" 
d="M59 674h77v-452c0 -108 30.333 -162 91 -162c62.667 0 94 54 94 162v452h77v-440c0 -83.333 -15.333 -144.5 -46 -183.5s-72.667 -58.5 -126 -58.5c-111.333 0 -167 77.667 -167 233v449zM163 718h-41.001c-0.666992 28.667 4.33301 51.5 15 68.5
s25.334 25.5 44.001 25.5c12.667 0 28.334 -5.66699 47.001 -17c20 -12 33.333 -18 40 -18c8 0 14 2.66699 18 8s6.66699 15 8 29h40c1.33301 -60 -19.334 -90 -62.001 -90c-16 0 -32.333 5.66699 -49 17c-17.333 10.667 -29.333 16 -36 16c-12.667 0 -20.667 -13 -24 -39z
" />
    <glyph glyph-name="utilde" unicode="&#x169;" horiz-adv-x="398" 
d="M344 484l-0.00195312 -351.999c0 -21.333 0.666992 -48.5 2 -81.5s2 -49.833 2 -50.5h-67l-6 51h-2c-8.66699 -14.667 -22.167 -28.167 -40.5 -40.5s-39.166 -18.5 -62.499 -18.5c-78.667 0 -118 62 -118 186v306h77v-295c0 -42.667 4.66699 -75.334 14 -98.001
s26.333 -34 51 -34c20 0 35.833 7 47.5 21s18.834 28.333 21.501 43c2.66699 11.333 4 26 4 44v319h77zM132.998 561.001h-43c-0.666992 27.333 4.5 49.833 15.5 67.5s26.5 26.5 46.5 26.5c13.333 0 30 -6 50 -18c20 -11.333 33 -17 39 -17c16 0 24.333 12 25 36h41
c0 -59.333 -21 -89 -63 -89c-12.667 0 -29 5.66699 -49 17s-32.667 17 -38 17c-14 0 -22 -13.333 -24 -40z" />
    <glyph glyph-name="Umacron" unicode="&#x16a;" horiz-adv-x="457" 
d="M59 674h77v-452c0 -108 30.333 -162 91 -162c62.667 0 94 54 94 162v452h77v-440c0 -83.333 -15.333 -144.5 -46 -183.5s-72.667 -58.5 -126 -58.5c-111.333 0 -167 77.667 -167 233v449zM121 788h213v-53h-213v53z" />
    <glyph glyph-name="umacron" unicode="&#x16b;" horiz-adv-x="398" 
d="M344 484l-0.00195312 -351.999c0 -21.333 0.666992 -48.5 2 -81.5s2 -49.833 2 -50.5h-67l-6 51h-2c-8.66699 -14.667 -22.167 -28.167 -40.5 -40.5s-39.166 -18.5 -62.499 -18.5c-78.667 0 -118 62 -118 186v306h77v-295c0 -42.667 4.66699 -75.334 14 -98.001
s26.333 -34 51 -34c20 0 35.833 7 47.5 21s18.834 28.333 21.501 43c2.66699 11.333 4 26 4 44v319h77zM98.998 631.001h197v-51h-197v51z" />
    <glyph glyph-name="Ubreve" unicode="&#x16c;" horiz-adv-x="457" 
d="M59 674h77v-452c0 -108 30.333 -162 91 -162c62.667 0 94 54 94 162v452h77v-440c0 -83.333 -15.333 -144.5 -46 -183.5s-72.667 -58.5 -126 -58.5c-111.333 0 -167 77.667 -167 233v449zM121 807l45.001 0.000976562c5.33301 -28.667 25.666 -43 60.999 -43
s56 14.333 62 43h45c0 -28.667 -9.5 -51.834 -28.5 -69.501s-44.833 -26.5 -77.5 -26.5c-33.333 0 -59.5 8.5 -78.5 25.5s-28.5 40.5 -28.5 70.5z" />
    <glyph glyph-name="ubreve" unicode="&#x16d;" horiz-adv-x="398" 
d="M344 484l-0.00195312 -351.999c0 -21.333 0.666992 -48.5 2 -81.5s2 -49.833 2 -50.5h-67l-6 51h-2c-8.66699 -14.667 -22.167 -28.167 -40.5 -40.5s-39.166 -18.5 -62.499 -18.5c-78.667 0 -118 62 -118 186v306h77v-295c0 -42.667 4.66699 -75.334 14 -98.001
s26.333 -34 51 -34c20 0 35.833 7 47.5 21s18.834 28.333 21.501 43c2.66699 11.333 4 26 4 44v319h77zM92.998 669.001h43.0039c1.33301 -18 7.66602 -32.667 18.999 -44s25.666 -17 42.999 -17c19.333 0 34.666 5.66699 45.999 17s17.333 26 18 44h43
c1.33301 -32.667 -7.83398 -59.667 -27.501 -81s-46.167 -32 -79.5 -32s-59.5 10.667 -78.5 32s-27.833 48.333 -26.5 81z" />
    <glyph glyph-name="Uring" unicode="&#x16e;" horiz-adv-x="457" 
d="M59 674h77v-452c0 -108 30.333 -162 91 -162c62.667 0 94 54 94 162v452h77v-440c0 -83.333 -15.333 -144.5 -46 -183.5s-72.667 -58.5 -126 -58.5c-111.333 0 -167 77.667 -167 233v449zM230 862c28 0 50.3311 -8.5 66.998 -25.5s25 -37.833 25 -62.5
c0 -24 -8.66699 -44.5 -26 -61.5s-39.666 -25.5 -66.999 -25.5c-28.667 0 -51.667 8.33301 -69 25s-26 37 -26 61c0 24.667 8.83301 45.667 26.5 63s40.834 26 69.501 26zM225.998 826c-14 0 -24.8311 -5.16797 -32.498 -15.501s-11.5 -22.833 -11.5 -37.5
c0 -12.667 4.16699 -24 12.5 -34s19.166 -15 32.499 -15c14.667 0 26.167 4.83301 34.5 14.5s12.5 21.834 12.5 36.501c0 14 -4.33301 26 -13 36s-20.334 15 -35.001 15z" />
    <glyph glyph-name="uring" unicode="&#x16f;" horiz-adv-x="398" 
d="M344 484l-0.00195312 -351.999c0 -21.333 0.666992 -48.5 2 -81.5s2 -49.833 2 -50.5h-67l-6 51h-2c-8.66699 -14.667 -22.167 -28.167 -40.5 -40.5s-39.166 -18.5 -62.499 -18.5c-78.667 0 -118 62 -118 186v306h77v-295c0 -42.667 4.66699 -75.334 14 -98.001
s26.333 -34 51 -34c20 0 35.833 7 47.5 21s18.834 28.333 21.501 43c2.66699 11.333 4 26 4 44v319h77zM199.998 533.001c-28 0 -50.667 8.16699 -68 24.5s-26 36.5 -26 60.5c0 25.333 8.5 46.5 25.5 63.5s40.167 25.5 69.5 25.5c27.333 0 49.333 -8.33301 66 -25
s25 -37.667 25 -63c0 -24 -8.83301 -44.333 -26.5 -61s-39.5 -25 -65.5 -25zM198.998 568.001c14.667 0 26.333 5.00098 35 15.001s13 22.333 13 37s-4.33301 27 -13 37s-20.667 15 -36 15c-14 0 -25 -5.33301 -33 -16s-12 -23.334 -12 -38.001
c0 -12.667 4.16699 -24.167 12.5 -34.5s19.5 -15.5 33.5 -15.5z" />
    <glyph glyph-name="Uhungarumlaut" unicode="&#x170;" horiz-adv-x="457" 
d="M59 674h77v-452c0 -108 30.333 -162 91 -162c62.667 0 94 54 94 162v452h77v-440c0 -83.333 -15.333 -144.5 -46 -183.5s-72.667 -58.5 -126 -58.5c-111.333 0 -167 77.667 -167 233v449zM198 818h81l-99 -99h-54zM326 818h80l-99 -99h-54z" />
    <glyph glyph-name="uhungarumlaut" unicode="&#x171;" horiz-adv-x="398" 
d="M344 484l-0.00195312 -351.999c0 -21.333 0.666992 -48.5 2 -81.5s2 -49.833 2 -50.5h-67l-6 51h-2c-8.66699 -14.667 -22.167 -28.167 -40.5 -40.5s-39.166 -18.5 -62.499 -18.5c-78.667 0 -118 62 -118 186v306h77v-295c0 -42.667 4.66699 -75.334 14 -98.001
s26.333 -34 51 -34c20 0 35.833 7 47.5 21s18.834 28.333 21.501 43c2.66699 11.333 4 26 4 44v319h77zM187.998 682.001h70l-104 -135h-44zM311.998 682.001h70l-104 -135h-44z" />
    <glyph glyph-name="Uogonek" unicode="&#x172;" horiz-adv-x="457" 
d="M323 -127l11 -42.999c-20.667 -14.667 -44.667 -22 -72 -22c-25.333 0 -45.666 6.83301 -60.999 20.5s-23 32.167 -23 55.5c0 35.333 16.667 71.666 50 108.999h-12c-104.667 4.66699 -157 82 -157 232v449h77v-452c0 -108 30.333 -162 91 -162c62.667 0 94 54 94 162
v452h77v-440c0 -118 -31 -192 -93 -222c-18.667 -14.667 -34.334 -32 -47.001 -52s-19 -38.667 -19 -56c0 -14 3.83301 -24.5 11.5 -31.5s17.167 -10.5 28.5 -10.5c16 0 30.667 3.66699 44 11z" />
    <glyph glyph-name="uogonek" unicode="&#x173;" horiz-adv-x="398" 
d="M344 484l-0.00195312 -352c0 -45.333 2 -89.333 6 -132h-15c-27.333 -37.333 -41 -71.666 -41 -102.999c0 -14.667 4.16699 -26 12.5 -34s17.833 -12 28.5 -12c18 0 32.333 2.66699 43 8l11 -43c-20 -14 -44 -21 -72 -21c-26 0 -46.5 7.33301 -61.5 22s-22.5 35 -22.5 61
c0 34 16 74.667 48 122l-6 51h-2c-8.66699 -14.667 -22.167 -28.167 -40.5 -40.5s-39.166 -18.5 -62.499 -18.5c-78.667 0 -118 62 -118 186v306h77v-295c0 -42.667 4.66699 -75.334 14 -98.001s26.333 -34 51 -34c20 0 35.833 7 47.5 21s18.834 28.333 21.501 43
c2.66699 11.333 4 26 4 44v319h77z" />
    <glyph glyph-name="Wcircumflex" unicode="&#x174;" horiz-adv-x="654" 
d="M222 0l-72.999 0.000976562l-129 674h79l57 -325c13.333 -74.667 24.666 -155.667 33.999 -243h3c5.33301 52.667 19 134 41 244l62 324h65l63 -317c20.667 -108.667 33.667 -192.334 39 -251.001h3c6 54.667 17.667 137 35 247l56 321h76l-131 -674h-76l-64 328
c-14 71.333 -25.667 145 -35 221h-2c-8.66699 -76 -21 -150.667 -37 -224zM296.001 808.001h66l87 -98h-67l-52 55h-2l-52 -55h-66z" />
    <glyph glyph-name="wcircumflex" unicode="&#x175;" horiz-adv-x="566" 
d="M13 484l79.998 -0.00195312l47 -237c13.333 -69.333 22 -120.666 26 -153.999h4c6 42.667 16 93.334 30 152.001l56 239h59l53 -232c14.667 -66.667 25 -119.667 31 -159h4c4.66699 42 13.334 94 26.001 156l46 235h77l-122 -484h-63l-56 235
c-9.33301 36 -18.333 84.333 -27 145h-2c-7.33301 -50 -16.666 -99.333 -27.999 -148l-58 -232h-65zM256.998 681.998h52l79 -135h-58l-46 87h-2l-46 -87h-58z" />
    <glyph glyph-name="Ycircumflex" unicode="&#x176;" horiz-adv-x="394" 
d="M235 0l-77.001 0.000976562v285l-149 389h82l60 -169c26.667 -78.667 43.334 -129.334 50.001 -152.001h2c8 32 24.333 83.667 49 155l57 166h80l-154 -386v-288zM166.999 808.001h66l87 -98h-67l-52 55h-2l-52 -55h-66z" />
    <glyph glyph-name="ycircumflex" unicode="&#x177;" horiz-adv-x="346" 
d="M12 484l81 0.000976562l65 -278c2.66699 -11.333 6 -28 10 -50s7.33301 -38.667 10 -50h2l10.5 53.5c5 25 8.16699 40.167 9.5 45.5l58 279h76l-79 -311c-38 -152 -78 -256 -120 -312c-26.667 -34 -55.667 -58.333 -87 -73l-29 65c24 13.333 47 33.666 69 60.999
c18.667 24 33 51.333 43 82c4 11.333 6 19.333 6 24c0 6 -1 12 -3 18zM148 682.001h52l79 -135h-58l-46 87h-2l-46 -87h-58z" />
    <glyph glyph-name="Ydieresis" unicode="&#x178;" horiz-adv-x="394" 
d="M235 0l-77.001 0.000976562v285l-149 389h82l60 -169c26.667 -78.667 43.334 -129.334 50.001 -152.001h2c8 32 24.333 83.667 49 155l57 166h80l-154 -386v-288zM120.999 718.001c-12 0 -22 4.33301 -30 13s-12 20 -12 34c0 12.667 4.16699 23.5 12.5 32.5
s18.5 13.5 30.5 13.5c12.667 0 23 -4.33301 31 -13s12 -19.667 12 -33c0 -14 -4 -25.333 -12 -34s-18.667 -13 -32 -13zM282.999 718.001c-12 0 -22 4.33301 -30 13s-12 20 -12 34c0 12.667 4.16699 23.5 12.5 32.5s18.5 13.5 30.5 13.5c12.667 0 23 -4.33301 31 -13
s12 -19.667 12 -33c0 -14 -4 -25.333 -12 -34s-18.667 -13 -32 -13z" />
    <glyph glyph-name="Zacute" unicode="&#x179;" horiz-adv-x="358" 
d="M20 0v46l231 560v2h-212v66h298v-52l-227 -553v-3h226v-66h-316zM235 818h90l-124 -108h-61z" />
    <glyph glyph-name="zacute" unicode="&#x17a;" horiz-adv-x="313" 
d="M16 0v47.001l153 300l19.5 35.5c9 16.333 15.167 28.166 18.5 35.499v2h-172v64h258v-51l-151 -295c-14 -24 -27 -48 -39 -72v-2h189v-64h-276zM206 682.001h80l-105 -135h-51z" />
    <glyph glyph-name="Zdotaccent" unicode="&#x17b;" horiz-adv-x="358" 
d="M20 0v46l231 560v2h-212v66h298v-52l-227 -553v-3h226v-66h-316zM192 721c-12 0 -22.333 4.33301 -31 13s-13 19 -13 31c0 12.667 4.33301 23.334 13 32.001s19.334 13 32.001 13s23.167 -4.33301 31.5 -13s12.5 -19.334 12.5 -32.001c0 -12 -4.33301 -22.333 -13 -31
s-19.334 -13 -32.001 -13z" />
    <glyph glyph-name="zdotaccent" unicode="&#x17c;" horiz-adv-x="313" 
d="M16 0v47.001l153 300l19.5 35.5c9 16.333 15.167 28.166 18.5 35.499v2h-172v64h258v-51l-151 -295c-14 -24 -27 -48 -39 -72v-2h189v-64h-276zM161 566.001c-12 0 -22.333 4.16699 -31 12.5s-13 18.833 -13 31.5s4.33301 23.334 13 32.001s19.334 13 32.001 13
c11.333 0 21.166 -4.33301 29.499 -13s12.5 -19.334 12.5 -32.001s-4 -23.167 -12 -31.5s-18.333 -12.5 -31 -12.5z" />
    <glyph glyph-name="Zcaron" unicode="&#x17d;" horiz-adv-x="358" 
d="M20 0v46l231 560v2h-212v66h298v-52l-227 -553v-3h226v-66h-316zM222 710h-66l-87 98h67l52 -58h2l52 58h66z" />
    <glyph glyph-name="zcaron" unicode="&#x17e;" horiz-adv-x="313" 
d="M16 0v47.001l153 300l19.5 35.5c9 16.333 15.167 28.166 18.5 35.499v2h-172v64h258v-51l-151 -295c-14 -24 -27 -48 -39 -72v-2h189v-64h-276zM191 547.001h-52l-79 135h58l46 -87h2l47 87h58z" />
    <glyph glyph-name="florin" unicode="&#x192;" horiz-adv-x="385" 
d="M78 346l-0.00195312 60h81l7 55c16 131.333 68.333 197 157 197c22 0 40.333 -4 55 -12l-12 -57c-13.333 4.66699 -27.666 7 -42.999 7c-44 0 -71.667 -42.333 -83 -127l-8 -63h91v-60h-96l-28 -230c-8 -64.667 -22.667 -113.5 -44 -146.5s-56 -49.5 -104 -49.5
c-28 1.33301 -49 7 -63 17l15 56c14.667 -7.33301 29.667 -11 45 -11c22 0 39.333 11.333 52 34s22.334 61.667 29.001 117l25 213h-76z" />
    <glyph glyph-name="Ohorn" unicode="&#x1a0;" horiz-adv-x="446" 
d="M225 60c20.667 0 38.333 8.16699 53 24.5s26 38.5 34 66.5s13.667 57.333 17 88s5 64 5 100c0 34 -1.66699 66.167 -5 96.5s-9 59.5 -17 87.5s-19.5 50.167 -34.5 66.5s-32.833 24.5 -53.5 24.5c-27.333 0 -49.833 -14.667 -67.5 -44s-29.5 -63.5 -35.5 -102.5
s-9 -82.167 -9 -129.5c-0.666992 -76.667 8 -142.167 26 -196.5s47 -81.5 87 -81.5zM360.999 728l59 9.99902c10.667 -20 16 -42.333 16 -67c0 -22.667 -6.16699 -41.667 -18.5 -57s-30.166 -22.666 -53.499 -21.999c33.333 -58 50 -141.333 50 -250
c0 -120 -17.833 -208.333 -53.5 -265s-82.834 -85 -141.501 -85c-57.333 0 -102.833 29.833 -136.5 89.5s-50.5 145.167 -50.5 256.5c0 109.333 18 194 54 254s84 90 144 90c24.667 0 48.334 -6 71.001 -18l16 -9l13.5 -7.5c3 -1.66699 6.16699 -3.16699 9.5 -4.5
s6.66602 -2 9.99902 -2c17.333 0 26 10.333 26 31c0 16 -5 34.667 -15 56z" />
    <glyph glyph-name="ohorn" unicode="&#x1a1;" horiz-adv-x="383" 
d="M192 430c-16 0 -29.8379 -6.16699 -41.5049 -18.5s-20.167 -28.5 -25.5 -48.5s-9.16602 -39.833 -11.499 -59.5s-3.5 -40.167 -3.5 -61.5c0 -22.667 1.16699 -44 3.5 -64s6.33301 -40 12 -60s14.334 -35.833 26.001 -47.5s25.834 -17.5 42.501 -17.5
c20.667 0 37.334 11 50.001 33s20.834 46 24.501 72s5.5 54 5.5 84c0 21.333 -1.16699 41.833 -3.5 61.5s-6.33301 39.5 -12 59.5s-14.167 36.167 -25.5 48.5s-25 18.5 -41 18.5zM314.995 547l58.001 9.00098c11.333 -20 17 -42 17 -66s-6.5 -42.667 -19.5 -56
s-31.5 -20 -55.5 -20c24 -42 36 -99.333 36 -172c0 -86 -16 -149.167 -48 -189.5s-69.667 -60.5 -113 -60.5c-46 0 -83.667 21.167 -113 63.5s-44 104.166 -44 185.499c0 82.667 15.667 145 47 187s69.666 63 114.999 63c16 0 34.667 -4 56 -12
c2 -0.666992 5.5 -2.33398 10.5 -5.00098s9.16699 -4.66699 12.5 -6s7.5 -2.66602 12.5 -3.99902s9.83301 -2 14.5 -2c19.333 0 29 10.333 29 31c0 17.333 -5 35.333 -15 54z" />
    <glyph glyph-name="Uhorn" unicode="&#x1af;" horiz-adv-x="474" 
d="M406 757l59.001 9c9.33301 -21.333 14 -43 14 -65c0 -48 -23.667 -73 -71 -75l-10 -1v-391c0 -83.333 -15.333 -144.5 -46 -183.5s-72.667 -58.5 -126 -58.5c-111.333 0 -167 77.667 -167 233v449h77v-452c0 -108 30.333 -162 91 -162c62.667 0 94 54 94 162v452h62
c13.333 0 22.666 2.16699 27.999 6.5s8 11.833 8 22.5c0 18.667 -4.33301 36.667 -13 54z" />
    <glyph glyph-name="uhorn" unicode="&#x1b0;" horiz-adv-x="398" 
d="M346 569l58.998 10c10.667 -18.667 16 -40.334 16 -65.001c0 -21.333 -5.83301 -38.666 -17.5 -51.999s-29.5 -20.666 -53.5 -21.999h-6v-309c0 -21.333 0.666992 -48.333 2 -81s2 -49.334 2 -50.001h-67l-6 50h-2c-8.66699 -14.667 -22.167 -28 -40.5 -40
s-39.166 -18 -62.499 -18c-78.667 0 -118 62 -118 186v306h77v-295c0 -42.667 4.66699 -75.5 14 -98.5s26.333 -34.167 51 -33.5c20 0 35.833 7 47.5 21s18.834 28.333 21.501 43c2.66699 11.333 4 26 4 44v319h58c13.333 0 22.5 2.5 27.5 7.5s7.5 13.167 7.5 24.5
c0 18 -4.66699 35.667 -14 53z" />
    <glyph glyph-name="Aringacute" unicode="&#x1fa;" horiz-adv-x="435" 
d="M222 688c-27.333 0 -48.332 6.83105 -62.999 20.498s-22 30.834 -22 51.501s7.66699 38.334 23 53.001s36.333 22 63 22s47.167 -7 61.5 -21s21.5 -31.667 21.5 -53c0 -20.667 -7.33301 -38 -22 -52s-35.334 -21 -62.001 -21zM221.001 720.998
c13.333 0 23.5 3.66699 30.5 11s10.5 17.333 10.5 30c0 10.667 -3.5 20 -10.5 28s-17.167 12 -30.5 12s-23.333 -4 -30 -12s-10 -17.667 -10 -29s3.5 -20.833 10.5 -28.5s16.833 -11.5 29.5 -11.5zM285.001 934.998h98l-137 -82h-65zM291.001 201.998h-150l-44 -202h-75
l154 674h86l149 -674h-76zM152.001 263.998l128 -0.000976562l-35 171c-6.66699 32.667 -15.667 84 -27 154h-3c-10 -63.333 -19.333 -114.666 -28 -153.999z" />
    <glyph glyph-name="aringacute" unicode="&#x1fb;" horiz-adv-x="364" 
d="M234 806h81l-116 -95h-53zM309 320l-0.000976562 -209.999c0 -48.667 2 -85.334 6 -110.001h-70l-5 51h-2c-23.333 -39.333 -55.666 -59 -96.999 -59c-33.333 0 -60.833 12.667 -82.5 38s-32.5 58.666 -32.5 99.999c0 57.333 19.5 100.833 58.5 130.5
s88.167 44.834 147.5 45.501v15c0 35.333 -5.66699 62.333 -17 81s-31.333 28 -60 28c-29.333 0 -56 -8.33301 -80 -25l-16 54c28.667 21.333 66 32 112 32c92 0 138 -57 138 -171zM233.999 152.001l-0.00195312 99c-13.333 0 -26 -1.16699 -38 -3.5s-26 -6.83301 -42 -13.5
s-28.833 -18.167 -38.5 -34.5s-14.5 -36.833 -14.5 -61.5c0 -29.333 6 -51 18 -65s26 -21 42 -21c16.667 0 31.334 6.33301 44.001 19s21.334 30.667 26.001 54c2 8.66699 3 17.667 3 27zM184.997 516.001c-28 0 -50.666 8.16699 -67.999 24.5s-26 36.5 -26 60.5
c0 25.333 8.5 46.5 25.5 63.5s40.167 25.5 69.5 25.5c27.333 0 49.166 -8.33301 65.499 -25s24.5 -37.667 24.5 -63c0 -24 -8.66699 -44.333 -26 -61s-39 -25 -65 -25zM183.998 551.001c14.667 0 26.166 5.00098 34.499 15.001s12.5 22.333 12.5 37s-4.16699 27 -12.5 37
s-20.166 15 -35.499 15c-14 0 -25 -5.33301 -33 -16s-12 -23.334 -12 -38.001c0 -12.667 4.16699 -24.167 12.5 -34.5s19.5 -15.5 33.5 -15.5z" />
    <glyph glyph-name="AEacute" unicode="&#x1fc;" horiz-adv-x="556" 
d="M84 0h-76l203 674h304v-67h-186l13 -226h171v-65h-165l14 -249h179l-1 -67h-247l-13 222h-134zM162 284l112 0.000976562l-9 205c-0.666992 9.33301 -1.66699 29.666 -3 60.999l-3 70h-5l-39 -143zM384 818.001h91l-124 -108h-61z" />
    <glyph glyph-name="aeacute" unicode="&#x1fd;" horiz-adv-x="561" 
d="M531 241l-225.001 0.00195312c0 -125.333 38 -188 114 -188c30 0 57.333 7 82 21l14 -55c-28.667 -18 -66 -27 -112 -27c-30 0 -57.333 8.16699 -82 24.5s-41.667 39.166 -51 68.499h-2c-10.667 -29.333 -26.667 -52.166 -48 -68.499s-46.666 -24.5 -75.999 -24.5
c-34.667 0 -63.167 12.833 -85.5 38.5s-33.5 59.5 -33.5 101.5c0 55.333 19.667 97.5 59 126.5s88.666 43.5 147.999 43.5v27c0 30 -6.66699 54.333 -20 73s-33.666 28 -60.999 28c-28 0 -54 -8.33301 -78 -25l-17 53c30.667 22 67.667 33 111 33
c26.667 0 50.167 -7.33301 70.5 -22s33.833 -36.334 40.5 -65.001h2c10.667 27.333 26.5 48.666 47.5 63.999s44.5 23 70.5 23c44 0 77.167 -20.5 99.5 -61.5s33.5 -91.167 33.5 -150.5c0 -4.66699 -0.166992 -11 -0.5 -19s-0.5 -14.333 -0.5 -19zM233.999 154.002
l-0.00195312 95.001c-14 0 -27.167 -1.16699 -39.5 -3.5s-26.666 -6.83301 -42.999 -13.5s-29.333 -18.167 -39 -34.5s-14.5 -36.5 -14.5 -60.5c0 -28 6.16699 -49 18.5 -63s27.166 -21 44.499 -21c16.667 0 31.334 6.5 44.001 19.5s21.334 30.833 26.001 53.5
c2 9.33301 3 18.666 3 27.999zM307.997 296.003h150.001c1.33301 43.333 -4.83398 76.833 -18.501 100.5s-30.5 35.5 -50.5 35.5c-24.667 0 -44 -13.5 -58 -40.5s-21.667 -58.833 -23 -95.5zM330.998 682.003h79l-105 -135h-51z" />
    <glyph glyph-name="Oslashacute" unicode="&#x1fe;" horiz-adv-x="446" 
d="M86 -37l-42 22.999l42 95c-36 59.333 -54 145 -54 257c0 109.333 17.667 194 53 254s81.666 90 138.999 90c39.333 0 73 -13.667 101 -41l30 70l46 -20l-40 -91c35.333 -60 53 -145.667 53 -257c0 -119.333 -17.833 -207.666 -53.5 -264.999s-81.5 -86 -137.5 -86
c-41.333 0 -75.666 15 -102.999 45zM129 171.999l164 398c-19.333 29.333 -42.333 44 -69 44c-20.667 0 -38.667 -7.83301 -54 -23.5s-27.333 -37 -36 -64s-15 -56.167 -19 -87.5s-6 -65 -6 -101c0 -68.667 6 -124 18 -166h2zM317 506.999l-168 -397
c18 -33.333 43 -50 75 -50c27.333 0 49.833 14.167 67.5 42.5s29.667 62.333 36 102s9.5 84.5 9.5 134.5c0 68.667 -6 124.667 -18 168h-2zM275 817.999h91l-124 -108h-61z" />
    <glyph glyph-name="oslashacute" unicode="&#x1ff;" horiz-adv-x="383" 
d="M194 491c28 0 54.667 -10.001 80 -30.001l26 53l41 -22l-33 -67c28.667 -43.333 43 -104.333 43 -183c0 -85.333 -15.833 -148.333 -47.5 -189s-68.5 -61 -110.5 -61c-30 0 -57.333 9.33301 -82 28l-25 -53l-39 25l31 64c-30 42.667 -45 104.334 -45 185.001
c0 82.667 15.667 145 47 187s69.333 63 114 63zM122 129.999l121.999 268.001c-9.33301 21.333 -26.666 32 -51.999 32c-17.333 0 -32 -6.33301 -44 -19s-20.833 -29.334 -26.5 -50.001s-9.5 -40.5 -11.5 -59.5s-3 -38.833 -3 -59.5c0 -42 4.33301 -78.667 13 -110z
M262.999 347l-120.002 -264c11.333 -20 28 -30 50 -30c16.667 0 30.834 5.83301 42.501 17.5s20.334 27.334 26.001 47.001s9.66699 39.167 12 58.5s3.5 39.666 3.5 60.999c0 43.333 -4 80 -12 110h-2zM229.997 682h78l-105 -135h-51z" />
    <glyph glyph-name="Scommaaccent" unicode="&#x218;" horiz-adv-x="361" 
d="M28 23l17.002 66.001c26.667 -18 58.667 -27 96 -27c35.333 0 63 10.333 83 31s30 48.334 30 83.001c0 28.667 -7.33301 53.5 -22 74.5s-37 42.833 -67 65.5c-84.667 58 -127 120.333 -127 187c0 51.333 16.5 93.666 49.5 126.999s75.833 50 128.5 50
c40.667 0 72 -8.33301 94 -25l-18 -66c-22 15.333 -48.667 23 -80 23s-55.5 -9.66699 -72.5 -29s-25.5 -41.666 -25.5 -66.999c0 -30.667 7.16699 -54.834 21.5 -72.501s40.166 -39.834 77.499 -66.501c78 -54.667 117 -119.334 117 -194.001
c0 -57.333 -17.833 -103.166 -53.5 -137.499s-80.834 -51.5 -135.501 -51.5c-22 0 -43.833 3 -65.5 9s-37.5 12.667 -47.5 20zM118.002 -213.999l-16 37c17.333 4.66699 32.333 12.334 45 23.001s19 23.667 19 39c0 23.333 -11.333 43.666 -34 60.999l62 12
c23.333 -16.667 35 -40 35 -70c0 -29.333 -10.5 -52.333 -31.5 -69s-47.5 -27.667 -79.5 -33z" />
    <glyph glyph-name="scommaaccent" unicode="&#x219;" horiz-adv-x="289" 
d="M22 22l19 58.001c26 -16.667 52 -25 78 -25c21.333 0 38.5 6.33301 51.5 19s19.5 29.667 19.5 51c0 19.333 -4.33301 36 -13 50s-25 29 -49 45c-64.667 41.333 -97 87 -97 137c0 39.333 12.667 71.5 38 96.5s57 37.5 95 37.5c29.333 0 58 -8.33301 86 -25l-20 -58
c-21.333 14.667 -43 22 -65 22c-19.333 0 -34.5 -6 -45.5 -18s-16.5 -26.667 -16.5 -44c0 -16 4 -29.833 12 -41.5s24 -25.5 48 -41.5c66.667 -42.667 100 -91.667 100 -147c0 -46.667 -13.833 -82.334 -41.5 -107.001s-62.5 -37 -104.5 -37c-40 0 -71.667 9.33301 -95 28z
M90 -213.999l-16 37c17.333 4.66699 32.333 12.334 45 23.001s19 23.667 19 39c0 23.333 -11.333 43.666 -34 60.999l62 12c23.333 -16.667 35 -40 35 -70c0 -29.333 -10.5 -52.333 -31.5 -69s-47.5 -27.667 -79.5 -33z" />
    <glyph glyph-name="uni021A" unicode="&#x21a;" horiz-adv-x="354" 
d="M139 0v605h-123v69h323v-69h-123v-605h-77zM122 -214l-16 37c17.333 4.66699 32.333 12.334 45 23.001s19 23.667 19 39c0 23.333 -11.333 43.666 -34 60.999l62 12c23.333 -16.667 35 -40 35 -70c0 -29.333 -10.5 -52.333 -31.5 -69s-47.5 -27.667 -79.5 -33z" />
    <glyph glyph-name="uni021B" unicode="&#x21b;" horiz-adv-x="255" 
d="M71 566l77 31v-113h93v-58h-93v-288c0 -53.333 16.667 -80 50 -80c12.667 0 23 1 31 3l4 -59c-14.667 -5.33301 -33.667 -8 -57 -8c-34 0 -59.333 9.66699 -76 29c-19.333 21.333 -29 62 -29 122v281h-59v58h59v82zM85 -214l-16 37
c17.333 4.66699 32.333 12.334 45 23.001s19 23.667 19 39c0 23.333 -11.333 43.666 -34 60.999l62 12c23.333 -16.667 35 -40 35 -70c0 -29.333 -10.5 -52.333 -31.5 -69s-47.5 -27.667 -79.5 -33z" />
    <glyph glyph-name="uni021C" unicode="&#x21c;" horiz-adv-x="340" 
d="M32 -106l-8.99902 62c58 10 107.333 34.667 148 74s61 89 61 149c0 37.333 -9.5 68.166 -28.5 92.499s-44.5 36.166 -76.5 35.499c-20 0 -41 -3.66699 -63 -11l-11 58c37.333 8 70.833 28.5 100.5 61.5s44.167 70.833 43.5 113.5c0 26 -7.33301 47.333 -22 64
s-34.334 25 -59.001 25c-23.333 0 -49 -7 -77 -21l-15 56c30.667 19.333 67.334 29 110.001 29c41.333 0 74.666 -14 99.999 -42s37.666 -61.333 36.999 -100c0 -38.667 -8.83301 -73.5 -26.5 -104.5s-39.5 -54.833 -65.5 -71.5v-3c38 -7.33301 69.333 -26.666 94 -57.999
s37 -71.666 37 -120.999c0 -53.333 -14.667 -102 -44 -146s-64.666 -77.667 -105.999 -101s-84 -37 -128 -41z" />
    <glyph glyph-name="uni021D" unicode="&#x21d;" horiz-adv-x="311" 
d="M20 -200l-6 63c52 4.66699 98.5 23 139.5 55s61.5 74.333 61.5 127c0 29.333 -9 54.166 -27 74.499s-44 30.5 -78 30.5c-16.667 0 -35.667 -2.66699 -57 -8l-10 58c40 9.33301 73 25.333 99 48s39 52 39 88c0 28 -7.16699 50.167 -21.5 66.5s-33.166 24.5 -56.499 24.5
c-18.667 0 -43 -7 -73 -21l-16 55c30.667 20 65.667 30 105 30c41.333 0 74.166 -13.333 98.499 -40s36.5 -59.334 36.5 -98.001c0 -67.333 -29 -117 -87 -149v-3c36 -6.66699 65.667 -23.167 89 -49.5s35 -60.166 35 -101.499c0 -47.333 -14 -90.166 -42 -128.499
s-62.167 -67.333 -102.5 -87s-82.5 -31.167 -126.5 -34.5z" />
    <glyph glyph-name="uni0232" unicode="&#x232;" horiz-adv-x="394" 
d="M235 0l-77.001 0.000976562v285l-149 389h82l60 -169c26.667 -78.667 43.334 -129.334 50.001 -152.001h2c8 32 24.333 83.667 49 155l57 166h80l-154 -386v-288zM89.999 788.001h213v-53h-213v53z" />
    <glyph glyph-name="uni0233" unicode="&#x233;" horiz-adv-x="346" 
d="M12 484l81 0.000976562l65 -278c2.66699 -11.333 6 -28 10 -50s7.33301 -38.667 10 -50h2l10.5 53.5c5 25 8.16699 40.167 9.5 45.5l58 279h76l-79 -311c-38 -152 -78 -256 -120 -312c-26.667 -34 -55.667 -58.333 -87 -73l-29 65c24 13.333 47 33.666 69 60.999
c18.667 24 33 51.333 43 82c4 11.333 6 19.333 6 24c0 6 -1 12 -3 18zM75 631.001h197v-51h-197v51z" />
    <glyph glyph-name="circumflex" unicode="&#x2c6;" 
d="M124 682h52l79 -135h-58l-46 87h-2l-46 -87h-58z" />
    <glyph glyph-name="caron" unicode="&#x2c7;" 
d="M177 547h-53l-79 135h58l46 -87h2l47 87h58z" />
    <glyph glyph-name="uni02C9" unicode="&#x2c9;" 
d="M52 631h197v-51h-197v51z" />
    <glyph glyph-name="breve" unicode="&#x2d8;" 
d="M44 669h43.0039c1.33301 -18 7.66602 -32.667 18.999 -44s25.666 -17 42.999 -17c19.333 0 34.666 5.66699 45.999 17s17.333 26 18 44h43c1.33301 -32.667 -7.83398 -59.667 -27.501 -81s-46.167 -32 -79.5 -32s-59.5 10.667 -78.5 32s-27.833 48.333 -26.5 81z" />
    <glyph glyph-name="dotaccent" unicode="&#x2d9;" 
d="M151 566c-12 0 -22.333 4.16699 -31 12.5s-13 18.833 -13 31.5s4.33301 23.334 13 32.001s19.334 13 32.001 13c11.333 0 21.166 -4.33301 29.499 -13s12.5 -19.334 12.5 -32.001s-4 -23.167 -12 -31.5s-18.333 -12.5 -31 -12.5z" />
    <glyph glyph-name="ring" unicode="&#x2da;" 
d="M117 533c-28 0 -50.667 8.16699 -68 24.5s-26 36.5 -26 60.5c0 25.333 8.5 46.5 25.5 63.5s40.167 25.5 69.5 25.5c27.333 0 49.333 -8.33301 66 -25s25 -37.667 25 -63c0 -24 -8.83301 -44.333 -26.5 -61s-39.5 -25 -65.5 -25zM116 568
c14.667 0 26.333 5.00098 35 15.001s13 22.333 13 37s-4.33301 27 -13 37s-20.667 15 -36 15c-14 0 -25 -5.33301 -33 -16s-12 -23.334 -12 -38.001c0 -12.667 4.16699 -24.167 12.5 -34.5s19.5 -15.5 33.5 -15.5z" />
    <glyph glyph-name="ogonek" unicode="&#x2db;" 
d="M123 5l53.999 -0.000976562c-29.333 -44 -44 -78 -44 -102c0 -14.667 4.16699 -26 12.5 -34s17.833 -12 28.5 -12c16 0 30.333 3 43 9l11 -43c-19.333 -14.667 -43.333 -22 -72 -22c-25.333 0 -45.666 7.33301 -60.999 22s-23 34.334 -23 59.001
c0 38.667 17 79.667 51 123z" />
    <glyph glyph-name="tilde" unicode="&#x2dc;" 
d="M84 561h-42.999c-0.666992 27.333 4.5 49.833 15.5 67.5s26.5 26.5 46.5 26.5c14 0 30.333 -6 49 -18c21.333 -11.333 34.666 -17 39.999 -17c16 0 24.333 12 25 36h41c0 -59.333 -21 -89 -63 -89c-12.667 0 -29 5.66699 -49 17s-32.667 17 -38 17
c-14 0 -22 -13.333 -24 -40z" />
    <glyph glyph-name="hungarumlaut" unicode="&#x2dd;" 
d="M112 682h70l-104 -135h-44zM236 682h70l-104 -135h-44z" />
    <glyph glyph-name="uni037E" unicode="&#x37e;" horiz-adv-x="200" 
d="M82 -119l-51 -7.00098c24.667 84.667 39.667 162.334 45 233.001l85 5c-8 -37.333 -20.167 -79.5 -36.5 -126.5s-30.5 -81.833 -42.5 -104.5zM111 328.999c-14.667 0 -26.999 5.5 -36.999 16.5s-15 25.167 -15 42.5s5 31.833 15 43.5s22.667 17.5 38 17.5
c16 0 28.833 -5.66699 38.5 -17s14.5 -26 14.5 -44c0 -17.333 -4.83301 -31.5 -14.5 -42.5s-22.834 -16.5 -39.501 -16.5z" />
    <glyph glyph-name="tonos" unicode="&#x384;" horiz-adv-x="305" 
d="M108 683h68l-56 -135h-45z" />
    <glyph glyph-name="dieresistonos" unicode="&#x385;" horiz-adv-x="350" 
d="M152 692h66l-36 -147h-42zM72 568c-12 0 -21.999 3.83301 -29.999 11.5s-12 17.5 -12 29.5s4.16699 21.833 12.5 29.5s18.5 11.5 30.5 11.5c10.667 0 19.667 -3.83301 27 -11.5s11 -17.5 11 -29.5s-3.83301 -21.833 -11.5 -29.5s-16.834 -11.5 -27.501 -11.5z
M273.001 568c-10.667 0 -20 3.83301 -28 11.5s-12 17.5 -12 29.5s4 21.833 12 29.5s17.667 11.5 29 11.5s20.833 -3.83301 28.5 -11.5s11.5 -17.5 11.5 -29.5s-4 -21.833 -12 -29.5s-17.667 -11.5 -29 -11.5z" />
    <glyph glyph-name="Alphatonos" unicode="&#x386;" horiz-adv-x="444" 
d="M299 202h-149l-45 -202h-74l154 674h85l149 -674h-75zM160 264h129l-36 171c-6.66699 32.667 -15.667 84 -27 154h-3c-9.33301 -58.667 -18.333 -110 -27 -154zM44 674h66l-29 -148h-41z" />
    <glyph glyph-name="anoteleia" unicode="&#x387;" horiz-adv-x="200" 
d="M99 257c-15.333 0 -28.167 5.83398 -38.5 17.501s-15.5 26.5 -15.5 44.5s5.33301 33 16 45s23.667 18 39 18c16.667 0 30 -5.83301 40 -17.5s15 -26.834 15 -45.501s-5 -33.667 -15 -45s-23.667 -17 -41 -17z" />
    <glyph glyph-name="Epsilontonos" unicode="&#x388;" horiz-adv-x="406" 
d="M358 385v-65h-169v-253h192v-67h-269v674h257v-67h-180v-222h169zM4 674h66l-29 -148h-41z" />
    <glyph glyph-name="Etatonos" unicode="&#x389;" horiz-adv-x="515" 
d="M113 674h76v-289h189v289h77v-674h-77v315h-189v-315h-76v674zM4 674h66l-29 -148h-40z" />
    <glyph glyph-name="Iotatonos" unicode="&#x38a;" horiz-adv-x="249" 
d="M112 674h77v-674h-77v674zM4 674h66l-29 -148h-41z" />
    <glyph glyph-name="Omicrontonos" unicode="&#x38c;" horiz-adv-x="482" 
d="M255 -8c-57.333 0 -102.832 29.833 -136.499 89.5s-50.5 145.167 -50.5 256.5c0 109.333 18 194 54 254s84 90 144 90c57.333 0 102.333 -29.833 135 -89.5s49 -143.167 49 -250.5c0 -120 -17.833 -208.333 -53.5 -265s-82.834 -85 -141.501 -85zM261.001 60
c20.667 0 38.333 8.16699 53 24.5s26 38.5 34 66.5s13.667 57.333 17 88s5 64 5 100c0 34 -1.66699 66.167 -5 96.5s-9 59.5 -17 87.5s-19.5 50.167 -34.5 66.5s-32.833 24.5 -53.5 24.5c-27.333 0 -49.833 -14.667 -67.5 -44s-29.5 -63.5 -35.5 -102.5
s-9 -82.167 -9 -129.5c-0.666992 -76.667 8 -142.167 26 -196.5s47 -81.5 87 -81.5zM4 674h66l-29 -148h-41z" />
    <glyph glyph-name="Upsilontonos" unicode="&#x38e;" horiz-adv-x="514" 
d="M95 615l16.002 65c7.33301 -0.666992 19.166 -4.83398 35.499 -12.501s30.833 -17.5 43.5 -29.5c28.667 -26 53.167 -64 73.5 -114s32.833 -106.667 37.5 -170h4c11.333 110.667 47.333 199.667 108 267c26 27.333 53.667 47 83 59l16 -67
c-36 -18.667 -69.333 -55.667 -100 -111s-52.334 -123.666 -65.001 -204.999c-6.66699 -41.333 -10 -80.666 -10 -117.999v-179h-77v179c0 30 -2 69 -6 117c-23.333 177.333 -76.333 283.666 -159 318.999zM4.00195 674h66l-29 -148h-41z" />
    <glyph glyph-name="Omegatonos" unicode="&#x38f;" horiz-adv-x="504" 
d="M372 69v-3h99v-66h-177v52c28 30.667 50 74.334 66 131.001s23.667 115.334 23 176.001c0 30.667 -2 60.167 -6 88.5s-10.167 55.5 -18.5 81.5s-20.333 46.667 -36 62s-33.834 23 -54.501 23c-27.333 0 -50.166 -13.667 -68.499 -41s-30.833 -59 -37.5 -95
s-10 -74.667 -10 -116c0 -57.333 8.5 -116.333 25.5 -177s38.167 -105 63.5 -133v-52h-177v66h99v3c-26.667 37.333 -48.5 82.5 -65.5 135.5s-25.5 109.167 -25.5 168.5c0 95.333 18.833 170.666 56.5 225.999s86.5 83 146.5 83c58 0 103.833 -27.5 137.5 -82.5
s50.5 -128.833 50.5 -221.5c0 -62 -8.66699 -120.333 -26 -175s-39 -99.334 -65 -134.001zM4 674h66l-29 -148h-41z" />
    <glyph glyph-name="iotadieresistonos" unicode="&#x390;" horiz-adv-x="188" 
d="M131 484l-0.000976562 -383c0 -18.667 2.66699 -31.5 8 -38.5s15 -10.5 29 -10.5l-6 -57c-10 -2 -20 -3 -30 -3c-23.333 0 -42.166 7.33301 -56.499 22s-21.5 42 -21.5 82v388h77zM83.999 683h63l-35 -145h-40zM3.99902 562c-12 0 -21.999 3.83301 -29.999 11.5
s-12 17.5 -12 29.5s4.16699 21.667 12.5 29s18.5 11 30.5 11c10 0 18.833 -3.83301 26.5 -11.5s11.5 -17.167 11.5 -28.5c0 -12 -3.83301 -21.833 -11.5 -29.5s-16.834 -11.5 -27.501 -11.5zM202 562c-10.667 0 -20 3.83301 -28 11.5s-12 17.5 -12 29.5
c0 11.333 4.16699 20.833 12.5 28.5s17.833 11.5 28.5 11.5c11.333 0 20.833 -3.66699 28.5 -11s11.5 -17 11.5 -29s-4 -21.833 -12 -29.5s-17.667 -11.5 -29 -11.5z" />
    <glyph glyph-name="Alpha" unicode="&#x391;" horiz-adv-x="435" 
d="M291 202h-150l-44 -202h-75l154 674h85l150 -674h-76zM152 264l128 -0.000976562l-35 171c-6.66699 32.667 -15.667 84 -27 154h-3c-10 -63.333 -19.333 -114.666 -28 -153.999z" />
    <glyph glyph-name="Beta" unicode="&#x392;" horiz-adv-x="416" 
d="M61 3v661c34.667 8.66699 72 13 112 13c66 0 115.667 -15.667 149 -47c29.333 -27.333 44 -65.666 44 -114.999c0 -34.667 -9 -64.834 -27 -90.501s-43.667 -45.167 -77 -58.5v-3c39.333 -10.667 70 -31 92 -61s33 -67 33 -111c0 -54 -16 -98.667 -48 -134
c-36 -40.667 -95.333 -61 -178 -61c-42 0 -75.333 2.33301 -100 7zM137 612v-224h35c32 0 59.5 11.167 82.5 33.5s34.5 50.833 34.5 85.5c0 73.333 -37 110 -111 110c-17.333 0 -31 -1.66699 -41 -5zM137 329v-268.001c12 -2.66699 25 -4 39 -4c40 0 71.833 11.667 95.5 35
s35.5 56.333 35.5 99c0 44 -13 77.833 -39 101.5s-58.333 35.834 -97 36.501h-34z" />
    <glyph glyph-name="Gamma" unicode="&#x393;" horiz-adv-x="331" 
d="M60 674h257v-65h-180v-609h-77v674z" />
    <glyph glyph-name="uni0394" unicode="&#x394;" horiz-adv-x="436" 
d="M24 0v44l153 630h86l150 -629v-45h-389zM101 68h234l-83 350c-12.667 56.667 -23.667 113.667 -33 171h-3c-8 -50.667 -19 -107 -33 -169z" />
    <glyph glyph-name="Epsilon" unicode="&#x395;" horiz-adv-x="354" 
d="M306 385v-65h-169v-253h192v-67h-269v674h257v-67h-180v-222h169z" />
    <glyph glyph-name="Zeta" unicode="&#x396;" horiz-adv-x="358" 
d="M20 0v46l231 560v2h-212v66h298v-52l-227 -553v-3h226v-66h-316z" />
    <glyph glyph-name="Eta" unicode="&#x397;" horiz-adv-x="463" 
d="M60 674h77v-289h189v289h77v-674h-77v315h-189v-315h-77v674z" />
    <glyph glyph-name="Theta" unicode="&#x398;" horiz-adv-x="449" 
d="M220 -8c-57.333 0 -103 29.833 -137 89.5s-51 145.167 -51 256.5c0 109.333 18 194 54 254s84.333 90 145 90c58 0 103.5 -29.833 136.5 -89.5s49.5 -143.167 49.5 -250.5c0 -120 -18 -208.333 -54 -265s-83.667 -85 -143 -85zM226 59
c21.333 0 39.4971 8.16602 54.4971 24.499s26.5 38.5 34.5 66.5s13.833 57.5 17.5 88.5s5.5 64.5 5.5 100.5c0 34.667 -1.83301 67.167 -5.5 97.5s-9.5 59.5 -17.5 87.5s-19.667 50.167 -35 66.5s-33.666 24.5 -54.999 24.5s-39.666 -8.16699 -54.999 -24.5
s-27.166 -38.333 -35.499 -66s-14.333 -57 -18 -88s-5.5 -63.833 -5.5 -98.5c0 -35.333 1.83301 -68.666 5.5 -99.999s9.66699 -60.833 18 -88.5s20.333 -49.667 36 -66s34.167 -24.5 55.5 -24.5zM149.997 381.999h149v-70h-149v70z" />
    <glyph glyph-name="Iota" unicode="&#x399;" horiz-adv-x="199" 
d="M60 674h77v-674h-77v674z" />
    <glyph glyph-name="Kappa" unicode="&#x39a;" horiz-adv-x="404" 
d="M61 0v674h76v-320h2c8 14 22 41 42 81l126 239h85l-165 -288l169 -386h-83l-138 325l-38 -65v-260h-76z" />
    <glyph glyph-name="Lambda" unicode="&#x39b;" horiz-adv-x="434" 
d="M412 0h-79.001l-87 405c-10 46.667 -20 105 -30 175h-4c-5.33301 -41.333 -14.666 -100 -27.999 -176l-85 -404h-78l155 674h81z" />
    <glyph glyph-name="Mu" unicode="&#x39c;" horiz-adv-x="599" 
d="M482 0l-14 290.001c-6.66699 121.333 -9 209.333 -7 264h-4c-16.667 -83.333 -34.667 -161.333 -54 -234l-82 -316h-50l-78 303c-23.333 88.667 -42 171 -56 247h-3c0.666992 -39.333 -2 -129 -8 -269l-13 -285h-69l40 674h84l78 -308
c26.667 -102.667 44.667 -180 54 -232h3c9.33301 55.333 26 132.666 50 231.999l76 308h86l39 -674h-72z" />
    <glyph glyph-name="Nu" unicode="&#x39d;" horiz-adv-x="465" 
d="M130 0h-69.001v674h72l124 -316c44.667 -116.667 73.334 -195 86.001 -235h2c-6 106 -9 209.333 -9 310v241h69v-674h-72l-128 324c-34 82.667 -61 159 -81 229h-2c5.33301 -80 8 -186.667 8 -320v-233z" />
    <glyph glyph-name="Xi" unicode="&#x39e;" horiz-adv-x="362" 
d="M35 674h292v-67h-292v67zM53 383h254v-66h-254v66zM29 67h304v-67h-304v67z" />
    <glyph glyph-name="Omicron" unicode="&#x39f;" horiz-adv-x="446" 
d="M219 -8c-57.333 0 -102.832 29.833 -136.499 89.5s-50.5 145.167 -50.5 256.5c0 109.333 18 194 54 254s84 90 144 90c57.333 0 102.333 -29.833 135 -89.5s49 -143.167 49 -250.5c0 -120 -17.833 -208.333 -53.5 -265s-82.834 -85 -141.501 -85zM225.001 60
c20.667 0 38.333 8.16699 53 24.5s26 38.5 34 66.5s13.667 57.333 17 88s5 64 5 100c0 34 -1.66699 66.167 -5 96.5s-9 59.5 -17 87.5s-19.5 50.167 -34.5 66.5s-32.833 24.5 -53.5 24.5c-27.333 0 -49.833 -14.667 -67.5 -44s-29.5 -63.5 -35.5 -102.5
s-9 -82.167 -9 -129.5c-0.666992 -76.667 8 -142.167 26 -196.5s47 -81.5 87 -81.5z" />
    <glyph glyph-name="Pi" unicode="&#x3a0;" horiz-adv-x="451" 
d="M391 674v-674h-77v604h-177v-604h-77v674h331z" />
    <glyph glyph-name="Rho" unicode="&#x3a1;" horiz-adv-x="399" 
d="M61 0l-0.000976562 664.001c33.333 8.66699 70.333 13 111 13c66.667 0 116.667 -16.333 150 -49c32.667 -32.667 49 -79.334 49 -140.001c0 -56 -13.667 -102 -41 -138c-17.333 -24 -40.333 -42.5 -69 -55.5s-58.667 -19.5 -90 -19.5
c-15.333 0 -26.666 0.333008 -33.999 1v-276h-76zM136.999 609.001l-0.00195312 -269c12 -1.33301 22.333 -2 31 -2c38.667 0 69.334 12.5 92.001 37.5s34 60.833 34 107.5c0 38.667 -9 70.167 -27 94.5s-47 36.5 -87 36.5c-17.333 0 -31.666 -1.66699 -42.999 -5z" />
    <glyph glyph-name="Sigma" unicode="&#x3a3;" horiz-adv-x="407" 
d="M106 71v-4h272v-67h-362v51l173 285l-163 287v51h329v-66h-235v-4l148 -264z" />
    <glyph glyph-name="Tau" unicode="&#x3a4;" horiz-adv-x="354" 
d="M139 0v605h-123v69h323v-69h-123v-605h-77z" />
    <glyph glyph-name="Upsilon" unicode="&#x3a5;" horiz-adv-x="425" 
d="M6 615l16.002 64.998c7.33301 -0.666992 19.166 -4.83398 35.499 -12.501s30.833 -17.5 43.5 -29.5c28.667 -26 53.167 -64 73.5 -114s32.833 -106.667 37.5 -170h4c11.333 110.667 47.333 199.667 108 267c26 27.333 53.667 47 83 59l16 -67
c-36 -18.667 -69.333 -55.667 -100 -111s-52.334 -123.666 -65.001 -204.999c-6.66699 -41.333 -10 -80.666 -10 -117.999v-179h-77v179c0 30.667 -2 69.334 -6 116.001c-23.333 178 -76.333 284.667 -159 320z" />
    <glyph glyph-name="Phi" unicode="&#x3a6;" horiz-adv-x="504" 
d="M287 37l0.00195312 -51h-71v51c-50.667 7.33301 -94.334 35.5 -131.001 84.5s-55 120.833 -55 215.5c0 91.333 18.5 163 55.5 215s80.833 81 131.5 87v48h71v-48c53.333 -6 97.666 -35.5 132.999 -88.5s53 -122.5 53 -208.5c0 -96 -18.167 -169.333 -54.5 -220
s-80.5 -79 -132.5 -85zM217.002 95v486c-30 -4.66699 -55.667 -28.5 -77 -71.5s-32 -101.167 -32 -174.5c0 -66.667 10.5 -121 31.5 -163s46.833 -67.667 77.5 -77zM287.002 581v-485.999c33.333 6 59.833 30.5 79.5 73.5s29.5 100.5 29.5 172.5
c0 71.333 -11.167 128.166 -33.5 170.499s-47.5 65.5 -75.5 69.5z" />
    <glyph glyph-name="Chi" unicode="&#x3a7;" horiz-adv-x="392" 
d="M378 0h-80l-61 162c-16.667 44.667 -30.667 84 -42 118h-3l-40 -120l-59 -160h-78l138 344l-134 330h80l61 -156c14 -36.667 27 -72.334 39 -107.001h2c4 11.333 10 29.333 18 54s14.333 43.334 19 56.001l55 153h78l-132 -328z" />
    <glyph glyph-name="Psi" unicode="&#x3a8;" horiz-adv-x="515" 
d="M472 674l0.000976562 -187c0 -164.667 -59.667 -255.667 -179 -273v-214h-71v214c-60 8.66699 -104.833 33.667 -134.5 75s-44.5 101.666 -44.5 180.999v204h72v-200c0 -63.333 8.66699 -111 26 -143s44.666 -50.667 81.999 -56v399h69v-399
c72 8.66699 108 80.334 108 215.001v184h72z" />
    <glyph glyph-name="uni03A9" unicode="&#x3a9;" horiz-adv-x="472" 
d="M340 69v-3h99v-66h-177v52c28 30.667 50 74.334 66 131.001s23.667 115.334 23 176.001c0 30.667 -2 60.167 -6 88.5s-10.167 55.5 -18.5 81.5s-20.333 46.667 -36 62s-33.834 23 -54.501 23c-27.333 0 -50.166 -13.667 -68.499 -41s-30.833 -59 -37.5 -95
s-10 -74.667 -10 -116c0 -57.333 8.5 -116.333 25.5 -177s38.167 -105 63.5 -133v-52h-176v66h98v3c-26.667 37.333 -48.5 82.5 -65.5 135.5s-25.5 109.167 -25.5 168.5c0 95.333 18.833 170.666 56.5 225.999s86.5 83 146.5 83c58 0 103.833 -27.5 137.5 -82.5
s50.5 -128.833 50.5 -221.5c0 -62 -8.66699 -120.333 -26 -175s-39 -99.334 -65 -134.001z" />
    <glyph glyph-name="Iotadieresis" unicode="&#x3aa;" horiz-adv-x="199" 
d="M22 710c-12 0 -22.167 4.16699 -30.5 12.5s-12.5 18.833 -12.5 31.5s4.33301 23.167 13 31.5s19 12.5 31 12.5s22 -4.16699 30 -12.5s12 -18.833 12 -31.5s-4 -23.167 -12 -31.5s-18.333 -12.5 -31 -12.5zM176 710c-12 0 -22.167 4.16699 -30.5 12.5
s-12.5 18.833 -12.5 31.5s4.33301 23.167 13 31.5s19 12.5 31 12.5s22 -4.16699 30 -12.5s12 -18.833 12 -31.5s-4 -23.167 -12 -31.5s-18.333 -12.5 -31 -12.5zM60 674h77v-674h-77v674z" />
    <glyph glyph-name="Upsilondieresis" unicode="&#x3ab;" horiz-adv-x="425" 
d="M140 697c-12 0 -22.167 4.16699 -30.5 12.5s-12.5 18.833 -12.5 31.5s4.33301 23.167 13 31.5s19 12.5 31 12.5s22 -4.16699 30 -12.5s12 -18.833 12 -31.5s-4 -23.167 -12 -31.5s-18.333 -12.5 -31 -12.5zM295 697c-12 0 -22.167 4.16699 -30.5 12.5
s-12.5 18.833 -12.5 31.5s4.33301 23.167 13 31.5s19 12.5 31 12.5s22 -4.16699 30 -12.5s12 -18.833 12 -31.5s-4 -23.167 -12 -31.5s-18.333 -12.5 -31 -12.5zM6 615l16.002 64.998c7.33301 -0.666992 19.166 -4.83398 35.499 -12.501s30.833 -17.5 43.5 -29.5
c28.667 -26 53.167 -64 73.5 -114s32.833 -106.667 37.5 -170h4c11.333 110.667 47.333 199.667 108 267c26 27.333 53.667 47 83 59l16 -67c-36 -18.667 -69.333 -55.667 -100 -111s-52.334 -123.666 -65.001 -204.999c-6.66699 -41.333 -10 -80.666 -10 -117.999v-179h-77
v179c0 30.667 -2 69.334 -6 116.001c-23.333 178 -76.333 284.667 -159 320z" />
    <glyph glyph-name="alphatonos" unicode="&#x3ac;" horiz-adv-x="397" 
d="M207 674h68l-55 -135h-45zM290 484h58.998c-2.66699 -16 -5.16699 -62.5 -7.5 -139.5s-3.16602 -157.167 -2.49902 -240.5c0 -35.333 10.667 -53 32 -53l-8 -57c-4.66699 -1.33301 -11 -2 -19 -2c-39.333 0 -60.666 26.333 -63.999 79h-4
c-8 -20.667 -20.833 -39 -38.5 -55s-39.167 -24 -64.5 -24c-42 0 -75.833 21.333 -101.5 64s-38.5 100.667 -38.5 174c0 80.667 15.667 144.334 47 191.001s67 70 107 70c42.667 0 72.667 -23.667 90 -71h4c2 17.333 5 38.666 9 63.999zM109.998 233l-0.00292969 -2
c0 -47.333 7.16699 -88.333 21.5 -123s33.166 -52 56.499 -52c16.667 0 31.834 10 45.501 30s22.834 45.667 27.501 77c3.33301 23.333 5 50.333 5 81c0 16.667 -0.666992 41 -2 73c-1.33301 30.667 -8.66602 56.667 -21.999 78s-28.666 32 -45.999 32
c-26 0 -46.833 -18.833 -62.5 -56.5s-23.5 -83.5 -23.5 -137.5z" />
    <glyph glyph-name="epsilontonos" unicode="&#x3ad;" horiz-adv-x="324" 
d="M187 674h68l-56 -135h-45zM134 260l0.000976562 4.00098c-52 15.333 -78.333 49.666 -79 102.999c0 33.333 13.5 62.333 40.5 87s63.5 37 109.5 37c40.667 0 70.334 -7.66699 89.001 -23l-15 -54c-20 10.667 -43.333 16 -70 16c-25.333 0 -44.833 -6.83301 -58.5 -20.5
s-20.5 -29.834 -20.5 -48.501c0 -25.333 10.5 -43.833 31.5 -55.5s46.833 -17.5 77.5 -17.5h15v-57h-20c-36 -0.666992 -65.5 -8.33398 -88.5 -23.001s-34.5 -37 -34.5 -67c0 -27.333 9 -48.666 27 -63.999s40.667 -23 68 -23c39.333 0 69 6.33301 89 19l11 -57
c-26.667 -16 -65 -24 -115 -24c-44.667 0 -82.334 12 -113.001 36s-46 59.667 -46 107c0 32.667 10.167 60.334 30.5 83.001s44.166 36.667 71.499 42z" />
    <glyph glyph-name="etatonos" unicode="&#x3ae;" horiz-adv-x="405" 
d="M207 674h68l-55 -135h-45zM121 426l2.00098 -1.00098c24 44 61 66 111 66c35.333 0 63.666 -13.667 84.999 -41s32 -69 32 -125v-363c0 -72 2.33301 -123.333 7 -154h-70c-9.33301 24.667 -14 71.334 -14 140.001v363c0 76.667 -22.333 115 -67 115
c-16.667 0 -31.667 -6.83301 -45 -20.5s-22.333 -32.834 -27 -57.501c-2.66699 -10.667 -4 -25 -4 -43v-305h-77v359c0 55.333 -4.33301 97 -13 125h67c6.66699 -15.333 11 -34.666 13 -57.999z" />
    <glyph glyph-name="iotatonos" unicode="&#x3af;" horiz-adv-x="188" 
d="M97 676h71l-55 -135h-48zM131 484v-383c0 -18.667 2.66699 -31.5 8 -38.5s15 -10.5 29 -10.5l-7 -57c-8.66699 -2 -18.334 -3 -29.001 -3c-23.333 0 -42.166 7.33301 -56.499 22s-21.5 42 -21.5 82v388h77z" />
    <glyph glyph-name="upsilondieresistonos" unicode="&#x3b0;" horiz-adv-x="377" 
d="M238 484l72 -0.000976562c20.667 -49.333 31 -113.666 31 -192.999c0 -199.333 -53.667 -299 -161 -299c-40.667 0 -72.667 13 -96 39s-35 62.333 -35 109v183c0 87.333 -2.66699 141 -8 161h74c6.66699 -12 10 -44.667 10 -98v-237c0 -30 5.83301 -52.833 17.5 -68.5
s26.167 -23.5 43.5 -23.5c53.333 0 80 72.333 80 217c0 94 -9.33301 164 -28 210zM165 681.999h64l-36 -145h-41zM84 559.999c-12 0 -21.999 3.83301 -29.999 11.5s-12 17.5 -12 29.5s4.16699 21.667 12.5 29s18.5 11 30.5 11c10.667 0 19.667 -3.66699 27 -11
s11 -17 11 -29s-3.83301 -21.833 -11.5 -29.5s-16.834 -11.5 -27.501 -11.5zM284.001 559.999c-10.667 0 -20 3.83301 -28 11.5s-12 17.5 -12 29.5c0 11.333 4.16699 20.833 12.5 28.5s17.833 11.5 28.5 11.5c11.333 0 20.833 -3.66699 28.5 -11s11.5 -17 11.5 -29
s-4 -21.833 -12 -29.5s-17.667 -11.5 -29 -11.5z" />
    <glyph glyph-name="alpha" unicode="&#x3b1;" horiz-adv-x="397" 
d="M290 484h58.998c-2.66699 -16 -5.16699 -62.5 -7.5 -139.5s-3.16602 -157.167 -2.49902 -240.5c0 -35.333 10.667 -53 32 -53l-8 -57c-4.66699 -1.33301 -11 -2 -19 -2c-39.333 0 -60.666 26.333 -63.999 79h-4c-8 -20.667 -20.833 -39 -38.5 -55s-39.167 -24 -64.5 -24
c-42 0 -75.833 21.333 -101.5 64s-38.5 100.667 -38.5 174c0 80.667 15.667 144.334 47 191.001s67 70 107 70c42.667 0 72.667 -23.667 90 -71h4c2 17.333 5 38.666 9 63.999zM109.998 233l-0.00292969 -2c0 -47.333 7.16699 -88.333 21.5 -123s33.166 -52 56.499 -52
c16.667 0 31.834 10 45.501 30s22.834 45.667 27.501 77c3.33301 23.333 5 50.333 5 81c0 16.667 -0.666992 41 -2 73c-1.33301 30.667 -8.66602 56.667 -21.999 78s-28.666 32 -45.999 32c-26 0 -46.833 -18.833 -62.5 -56.5s-23.5 -83.5 -23.5 -137.5z" />
    <glyph glyph-name="beta" unicode="&#x3b2;" horiz-adv-x="404" 
d="M130 28l-1.99902 -0.00292969v-66c0 -69.333 3 -120.666 9 -153.999h-70c-10 26.667 -15 73 -15 139v518c0 89.333 17.333 153.333 52 192c24.667 28.667 57.667 43 99 43c43.333 0 76.5 -16.667 99.5 -50s34.5 -72.666 34.5 -117.999
c0 -73.333 -26.667 -124.666 -80 -153.999v-4c31.333 -10 58.333 -29.833 81 -59.5s33.667 -71.5 33 -125.5c0 -60.667 -14.667 -108.667 -44 -144s-65.333 -53 -108 -53c-36.667 0 -66.334 12 -89.001 36zM128.001 480.997v-376.001c18 -32.667 44 -49 78 -49
c27.333 0 48.833 13 64.5 39s23.5 57.667 23.5 95c0 42.667 -9.5 77 -28.5 103s-44.167 40.667 -75.5 44c-4 0.666992 -9 1 -15 1v60c2.66699 0 7.33398 0.666992 14.001 2c49.333 14.667 74 57.334 74 128.001c0 26 -5.33301 50.5 -16 73.5s-26.334 34.5 -47.001 34.5
c-48 0 -72 -51.667 -72 -155z" />
    <glyph glyph-name="gamma" unicode="&#x3b3;" horiz-adv-x="339" 
d="M200 -192l-75 -0.00292969c2.66699 76.667 2.5 138.334 -0.5 185.001s-10.833 95.334 -23.5 146.001c-32 140.667 -67.333 255.667 -106 345h81c43.333 -113.333 75 -237.333 95 -372h3c46.667 134.667 70 245.334 70 332.001v13.5v15v11.5h70
c1.33301 -9.33301 2 -20.333 2 -33c0 -110 -38 -247.667 -114 -413c-3.33301 -10 -5 -17.667 -5 -23c2 -42 3 -111 3 -207z" />
    <glyph glyph-name="delta" unicode="&#x3b4;" horiz-adv-x="390" 
d="M337 658l-22 -50.999c-32 21.333 -62.667 32 -92 32c-16 0 -28.333 -3.83301 -37 -11.5s-13 -17.167 -13 -28.5c0 -17.333 15 -45 45 -83l59 -75c52.667 -68 79 -138 79 -210c0 -74 -15.333 -132.333 -46 -175s-69.667 -64 -117 -64c-46 0 -84.333 20.667 -115 62
s-46 97.333 -46 168c0 56 12.667 104.833 38 146.5s56 74.5 92 98.5v4l-12 16c-36 45.333 -54 82.666 -54 111.999c0 26 10.667 49.333 32 70s52 31 92 31c47.333 0 86.333 -14 117 -42zM224 391.001l-24 32c-60 -45.333 -90 -112.666 -90 -201.999
c0 -52.667 8.66699 -93.834 26 -123.501s37.333 -44.5 60 -44.5c26 0 46.333 15.333 61 46s22 71 22 121c0 67.333 -18.333 124.333 -55 171z" />
    <glyph glyph-name="epsilon" unicode="&#x3b5;" horiz-adv-x="324" 
d="M134 261l-0.000976562 4.00098c-23.333 6.66699 -42.166 19 -56.499 37s-21.833 39.667 -22.5 65c0 33.333 13.5 62.333 40.5 87s63.5 37 109.5 37c40.667 0 70.334 -7.66699 89.001 -23l-15 -54c-20 10.667 -43.333 16 -70 16c-25.333 0 -44.833 -6.83301 -58.5 -20.5
s-20.5 -29.834 -20.5 -48.501c0 -25.333 10.5 -43.833 31.5 -55.5s46.833 -17.5 77.5 -17.5h15v-57h-20c-36 -0.666992 -65.5 -8.33398 -88.5 -23.001s-34.5 -37 -34.5 -67c0 -27.333 9 -48.666 27 -63.999s40.667 -23 68 -23c38.667 0 68.334 6.66699 89.001 20l11 -58
c-26.667 -16 -65 -24 -115 -24c-44.667 0 -82.334 12 -113.001 36s-46 59.667 -46 107c0 32.667 10.167 60.5 30.5 83.5s44.166 37.167 71.499 42.5z" />
    <glyph glyph-name="zeta" unicode="&#x3b6;" horiz-adv-x="314" 
d="M250 -129l-53.998 15c20.667 35.333 32.667 69.333 36 102c-30.667 7.33301 -59.334 17.333 -86.001 30c-75.333 35.333 -113 101.666 -113 198.999c0 70.667 17.667 143.5 53 218.5s80.333 137.5 135 187.5v4h-46c-44 0 -74 2.66699 -90 8l9 55c26 -2 59.333 -3 100 -3
h110l14 -54c-52.667 -35.333 -100.334 -92.166 -143.001 -170.499s-64 -153.833 -64 -226.5c0 -48.667 7.83301 -85.5 23.5 -110.5s38.5 -44.167 68.5 -57.5c24.667 -11.333 57 -20.333 97 -27c5.33301 -1.33301 8 -5.33301 8 -12c0 -26.667 -6 -55.167 -18 -85.5
s-25.333 -54.5 -40 -72.5z" />
    <glyph glyph-name="eta" unicode="&#x3b7;" horiz-adv-x="405" 
d="M121 426l2.00098 -1.00098c24 44 61 66 111 66c35.333 0 63.666 -13.667 84.999 -41s32 -69 32 -125v-363c0 -72 2.33301 -123.333 7 -154h-70c-9.33301 24.667 -14 71.334 -14 140.001v363c0 76.667 -22.333 115 -67 115c-16.667 0 -31.667 -6.83301 -45 -20.5
s-22.333 -32.834 -27 -57.501c-2.66699 -10.667 -4 -25 -4 -43v-305h-77v359c0 55.333 -4.33301 97 -13 125h67c6.66699 -15.333 11 -34.666 13 -57.999z" />
    <glyph glyph-name="theta" unicode="&#x3b8;" horiz-adv-x="382" 
d="M188 -8c-103.333 0 -155 120.333 -155 361c0 120 15.667 207.833 47 263.5s69.333 83.5 114 83.5c46 0 83.333 -27.5 112 -82.5s43 -143.167 43 -264.5c0 -58 -3 -108.833 -9 -152.5s-14 -78.5 -24 -104.5s-22.167 -47 -36.5 -63s-28.833 -26.833 -43.5 -32.5
s-30.667 -8.5 -48 -8.5zM107 387h167.001c0 76.667 -7.33301 138 -22 184s-35.334 69 -62.001 69c-24 0 -43.833 -23.5 -59.5 -70.5s-23.5 -107.833 -23.5 -182.5zM274.001 324h-166.999c1.33301 -181.333 29.666 -272 84.999 -272c54.667 0 82 90.667 82 272z" />
    <glyph glyph-name="iota" unicode="&#x3b9;" horiz-adv-x="188" 
d="M131 484v-383c0 -18.667 2.66699 -31.5 8 -38.5s15 -10.5 29 -10.5l-7 -57c-8.66699 -2 -18.334 -3 -29.001 -3c-23.333 0 -42.166 7.33301 -56.499 22s-21.5 42 -21.5 82v388h77z" />
    <glyph glyph-name="kappa" unicode="&#x3ba;" horiz-adv-x="370" 
d="M201 262l0.00195312 -2c10.667 -4 20.667 -10.833 30 -20.5s19.166 -23.5 29.499 -41.5s17.666 -31.667 21.999 -41l22.5 -47l54 -110h-85l-51 111c-32.667 73.333 -60.667 110 -84 110h-8v-221h-76v369c0 54.667 -3.33301 93 -10 115h73c8.66699 -12 13 -39.667 13 -83
v-134h3l77.5 120.5l61.5 96.5h83v-3z" />
    <glyph glyph-name="lambda" unicode="&#x3bb;" horiz-adv-x="337" 
d="M251 0l-59 258.999l-10 51c-4.66699 24 -9 45 -13 63h-3c-6.66699 -41.333 -14 -78.666 -22 -111.999l-61 -261h-76l121 452c2 8 3 15.333 3 22c0 6 -1.33301 15 -4 27c-22.667 86.667 -53.667 130 -93 130c-3.33301 0 -7 -0.333008 -11 -1l8 63c8 1.33301 15.667 2 23 2
c39.333 0 69.833 -17.167 91.5 -51.5s41.167 -85.833 58.5 -154.5l124 -489h-77z" />
    <glyph glyph-name="uni03BC" unicode="&#x3bc;" horiz-adv-x="399" 
d="M281 50l-1.99707 -0.00195312c-6.66699 -12.667 -17.834 -24.667 -33.501 -36s-32.834 -17 -51.501 -17c-30.667 0 -53 12 -67 36v-71c0 -69.333 3 -120.666 9 -153.999h-70c-8.66699 26 -13 74.667 -13 146v530h77v-319c0 -72 21.333 -108 64 -108
c20 0 36 6.83301 48 20.5s19.333 27.834 22 42.501c2.66699 11.333 4 26.333 4 45v319h77v-380c0 -18.667 2.16699 -32.5 6.5 -41.5s12.5 -13.167 24.5 -12.5l-8 -55c-6.66699 -2 -15.334 -3 -26.001 -3c-32.667 0 -53 19.333 -61 58z" />
    <glyph glyph-name="nu" unicode="&#x3bd;" horiz-adv-x="333" 
d="M6 484l78 0.000976562l55 -272c2.66699 -13.333 10 -54 22 -122h3c50 157.333 75 277.666 75 360.999v33h70c1.33301 -10.667 2 -21 2 -31c0 -92 -41.333 -243 -124 -453h-69z" />
    <glyph glyph-name="xi" unicode="&#x3be;" horiz-adv-x="328" 
d="M278 414l0.000976562 -59.9971h-17c-44 -1.33301 -80 -15 -108 -41s-42 -60.333 -42 -103c0 -70 35.667 -118 107 -144c30 -10.667 61.667 -19.334 95 -26.001c6.66699 -0.666992 10 -4.66699 10 -12c0 -25.333 -6 -53.5 -18 -84.5s-25.333 -55.5 -40 -73.5l-55 16
c20.667 35.333 32.667 69.333 36 102c-66 16 -118 39.833 -156 71.5s-57 78.5 -57 140.5c0 45.333 11.667 84.166 35 116.499s54.666 56.166 93.999 71.499v5c-28 12.667 -50.167 31.667 -66.5 57s-24.5 53.333 -24.5 84c0 48.667 15.167 88.5 45.5 119.5
s70.166 46.5 119.499 46.5c32.667 0 59.334 -6.33301 80.001 -19l-14 -57c-18.667 9.33301 -39.667 14 -63 14c-30.667 0 -53.5 -10.833 -68.5 -32.5s-22.5 -45.5 -22.5 -71.5c0 -34.667 10.833 -62.5 32.5 -83.5s48.834 -32.833 81.501 -35.5
c3.33301 -0.666992 8.66602 -1 15.999 -1z" />
    <glyph glyph-name="omicron" unicode="&#x3bf;" horiz-adv-x="383" 
d="M190 -8c-46 0 -83.666 21.1689 -112.999 63.502s-44 104.166 -44 185.499c0 82.667 15.667 145 47 187s69.666 63 114.999 63c46 0 83.5 -21.333 112.5 -64s43.5 -104.334 43.5 -185.001c0 -86 -16 -149.167 -48 -189.5s-69.667 -60.5 -113 -60.5zM194.001 53.002
c20.667 0 37.3291 11 49.9961 33s20.834 46 24.501 72s5.5 54 5.5 84c0 21.333 -1.16699 41.833 -3.5 61.5s-6.33301 39.5 -12 59.5s-14.167 36.167 -25.5 48.5s-25 18.5 -41 18.5s-29.833 -6.16699 -41.5 -18.5s-20.167 -28.5 -25.5 -48.5s-9.16602 -39.833 -11.499 -59.5
s-3.5 -40.167 -3.5 -61.5c0 -22.667 1.16699 -44 3.5 -64s6.33301 -40 12 -60s14.334 -35.833 26.001 -47.5s25.834 -17.5 42.501 -17.5z" />
    <glyph glyph-name="pi" unicode="&#x3c0;" horiz-adv-x="400" 
d="M380 420l-47 -0.000976562v-302c0 -54 3.33301 -93.333 10 -118h-72c-9.33301 17.333 -14 56 -14 116v304h-99c-0.666992 -70 -5.5 -146.167 -14.5 -228.5s-20.833 -146.166 -35.5 -191.499h-71c14.667 48.667 26.167 113.167 34.5 193.5s12.5 155.833 12.5 226.5
c-22.667 0 -43 -1.66699 -61 -5l-11 48c15.333 14 54 21 116 21h259z" />
    <glyph glyph-name="rho" unicode="&#x3c1;" horiz-adv-x="395" 
d="M128 39l-2.00293 -0.000976562v-77c0 -64 2.33301 -115.333 7 -154h-71c-8 24 -12 70 -12 138v298c0 92.667 17.667 158.334 53 197.001c26.667 33.333 60.334 50 101.001 50c50.667 0 89.834 -21.667 117.501 -65s41.5 -104.333 41.5 -183
c0 -83.333 -14.667 -146 -44 -188s-65.666 -63 -108.999 -63c-36.667 0 -64 15.667 -82 47zM125.997 262.999l-0.00195312 -95c0 -15.333 1.33301 -28.333 4 -39c6.66699 -27.333 16.334 -46.333 29.001 -57s25.334 -16 38.001 -16c30.667 0 53.167 18 67.5 54
s21.5 81 21.5 135c0 52 -6.83301 94.833 -20.5 128.5s-34.5 50.5 -62.5 50.5c-22 0 -40.333 -13 -55 -39s-22 -66.667 -22 -122z" />
    <glyph glyph-name="uni03C2" unicode="&#x3c2;" horiz-adv-x="306" 
d="M293 478l-13.9961 -60c-16 4.66699 -30.667 7 -44 7c-40 0 -70.667 -18.5 -92 -55.5s-32 -80.167 -32 -129.5c0 -85.333 29.667 -142.666 89 -171.999c14.667 -6.66699 42.667 -16.334 84 -29.001c4.66699 -2 7 -5 7 -9c0 -27.333 -5.83301 -56.333 -17.5 -87
s-24.834 -55 -39.501 -73l-54 16c21.333 34.667 33.666 68.334 36.999 101.001c-28 8.66699 -51.333 17.667 -70 27c-34.667 17.333 -62.334 44.666 -83.001 81.999s-31 83 -31 137c0 72 18.667 133 56 183s86 75 146 75c25.333 0 44.666 -4.33301 57.999 -13z" />
    <glyph glyph-name="sigma" unicode="&#x3c3;" horiz-adv-x="383" 
d="M286 436l-1 -2.99902c40.667 -40 61 -103.667 61 -191c0 -85.333 -15.833 -148.333 -47.5 -189s-68.5 -61 -110.5 -61c-45.333 0 -82.5 21.167 -111.5 63.5s-43.5 104.166 -43.5 185.499c0 82.667 15.667 145 47 187s70 63 116 63h39h37h99l-4 -60
c-26 0 -53 1.66699 -81 5zM192 53.001c15.333 0 28.332 6 38.999 18s18.5 28.167 23.5 48.5s8.66699 40.333 11 60s3.5 40.5 3.5 62.5c0 47.333 -6.16699 90.5 -18.5 129.5s-32.5 58.5 -60.5 58.5c-16 0 -29.5 -6.16699 -40.5 -18.5s-19.167 -28.5 -24.5 -48.5
s-9.16602 -39.833 -11.499 -59.5s-3.5 -40.167 -3.5 -61.5c0 -22.667 1.16699 -44 3.5 -64s6.33301 -40 12 -60s14.167 -35.833 25.5 -47.5s25 -17.5 41 -17.5z" />
    <glyph glyph-name="tau" unicode="&#x3c4;" horiz-adv-x="304" 
d="M243 54l-2.99902 -57c-10 -3.33301 -22 -5 -36 -5c-62 0 -93 45.667 -93 137v291h-42c-23.333 0 -42.333 -3.33301 -57 -10l-12 50c12.667 16 42 24 88 24h212l-9 -64h-103v-294c0 -48.667 13 -73 39 -73c7.33301 0 12.666 0.333008 15.999 1z" />
    <glyph glyph-name="upsilon" unicode="&#x3c5;" horiz-adv-x="377" 
d="M238 484l72 -0.000976562c20.667 -49.333 31 -113.666 31 -192.999c0 -199.333 -53.667 -299 -161 -299c-40.667 0 -72.667 13 -96 39s-35 62.333 -35 109v183c0 87.333 -2.66699 141 -8 161h74c6.66699 -12 10 -44.667 10 -98v-237c0 -30 5.83301 -52.833 17.5 -68.5
s26.167 -23.5 43.5 -23.5c53.333 0 80 72.333 80 217c0 94 -9.33301 164 -28 210z" />
    <glyph glyph-name="phi" unicode="&#x3c6;" horiz-adv-x="491" 
d="M144 487l40.001 -37c-49.333 -52.667 -74 -120.667 -74 -204c0 -49.333 8.66699 -91.333 26 -126s42 -56 74 -64v303c0 44 9.16699 76.167 27.5 96.5s41.166 30.5 68.499 30.5c40 0 75.333 -21.167 106 -63.5s46 -99.166 46 -170.499
c0 -76.667 -17.333 -136.667 -52 -180s-76 -68 -124 -74v-190h-72v190c-20 2.66699 -39.333 8.66699 -58 18s-37.5 23 -56.5 41s-34.167 43 -45.5 75s-17 69 -17 111c0 58.667 11.5 108.667 34.5 150s48.5 72.666 76.5 93.999zM282.001 371v-316
c33.333 5.33301 58.333 26.333 75 63s25 80.334 25 131.001c0 51.333 -8 93.666 -24 126.999s-31.667 50 -47 50c-19.333 0 -29 -18.333 -29 -55z" />
    <glyph glyph-name="chi" unicode="&#x3c7;" horiz-adv-x="339" 
d="M11 484h78l83 -257h4c10.667 40.667 20 73.667 28 99l52 158h74l-121 -327l119 -342l-71 -18l-95 290h-2c-7.33301 -32 -18.333 -72.667 -33 -122l-54 -168l-68 17l122 346z" />
    <glyph glyph-name="psi" unicode="&#x3c8;" horiz-adv-x="487" 
d="M210 -192v184.007c-22 2.66699 -41.333 7.5 -58 14.5s-33.667 18.167 -51 33.5s-30.833 38.166 -40.5 68.499s-14.5 67.166 -14.5 110.499v149c0 59.333 -1.66699 98 -5 116h68c5.33301 -14.667 8 -47.334 8 -98.001v-151c0 -64 8 -109.833 24 -137.5
s39.333 -43.834 70 -48.501v536h70v-536c33.333 3.33301 58 27.666 74 72.999s24 102.666 24 171.999c0 87.333 -7.33301 150.666 -22 189.999h67c18 -44 27 -104 27 -180c0 -197.333 -56.333 -301.333 -169 -312v-184h-72z" />
    <glyph glyph-name="omega" unicode="&#x3c9;" horiz-adv-x="521" 
d="M296 333l-1.00293 -191c0 -19.333 4.5 -38.333 13.5 -57s21.5 -28 37.5 -28c18.667 0 34.167 15.833 46.5 47.5s18.5 77.167 18.5 136.5c0 99.333 -22.333 179.666 -67 240.999v2h70c19.333 -19.333 36.5 -51.333 51.5 -96s22.5 -93.667 22.5 -147
c0 -78 -12.833 -139 -38.5 -183s-59.167 -66 -100.5 -66c-39.333 0 -68.333 23.333 -87 70h-3c-7.33301 -20.667 -19.166 -37.5 -35.499 -50.5s-35.833 -19.5 -58.5 -19.5c-37.333 0 -68.666 20.167 -93.999 60.5s-38 100.166 -38 179.499
c0 56.667 7.66699 107.834 23 153.501s32.333 78.5 51 98.5h69v-2c-44.667 -60 -67 -141.667 -67 -245c0 -59.333 6.16699 -104.166 18.5 -134.499s27.833 -45.5 46.5 -45.5c16.667 0 29.334 9.16699 38.001 27.5s13 37.833 13 58.5l-1 190h72z" />
    <glyph glyph-name="iotadieresis" unicode="&#x3ca;" horiz-adv-x="188" 
d="M15 558c-12 0 -22.334 4.3291 -31.001 12.9961s-13 19.334 -13 32.001s4.33301 23.334 13 32.001s19.334 13 32.001 13c12 0 22.167 -4.16699 30.5 -12.5s12.5 -19.166 12.5 -32.499s-4.16699 -24.166 -12.5 -32.499s-18.833 -12.5 -31.5 -12.5zM168.999 557.996
c-12 0 -22.334 4.3291 -31.001 12.9961s-13 19.334 -13 32.001s4.33301 23.334 13 32.001s19.334 13 32.001 13c12 0 22.167 -4.16699 30.5 -12.5s12.5 -19.166 12.5 -32.499s-4.16699 -24.166 -12.5 -32.499s-18.833 -12.5 -31.5 -12.5zM130.998 483.992v-383
c0 -18.667 2.66699 -31.5 8 -38.5s15 -10.5 29 -10.5l-7 -57c-8.66699 -2 -18.334 -3 -29.001 -3c-23.333 0 -42.166 7.33301 -56.499 22s-21.5 42 -21.5 82v388h77z" />
    <glyph glyph-name="upsilondieresis" unicode="&#x3cb;" horiz-adv-x="377" 
d="M103 558c-12 0 -22.334 4.3291 -31.001 12.9961s-13 19.334 -13 32.001s4.33301 23.334 13 32.001s19.334 13 32.001 13c12 0 22.167 -4.16699 30.5 -12.5s12.5 -19.166 12.5 -32.499s-4.16699 -24.166 -12.5 -32.499s-18.833 -12.5 -31.5 -12.5zM256.999 557.996
c-12 0 -22.334 4.3291 -31.001 12.9961s-13 19.334 -13 32.001s4.33301 23.334 13 32.001s19.334 13 32.001 13c12 0 22.167 -4.16699 30.5 -12.5s12.5 -19.166 12.5 -32.499s-4.16699 -24.166 -12.5 -32.499s-18.833 -12.5 -31.5 -12.5zM236.998 483.992l73 -0.000976562
c20.667 -49.333 31 -113.666 31 -192.999c0 -199.333 -53.667 -299 -161 -299c-40.667 0 -72.667 13 -96 39s-35 62.333 -35 109v183c0 87.333 -2.66699 141 -8 161h74c6.66699 -12 10 -44.667 10 -98v-237c0 -30 5.83301 -52.833 17.5 -68.5s26.167 -23.5 43.5 -23.5
c53.333 0 80 72.333 80 217c0 95.333 -9.66699 165.333 -29 210z" />
    <glyph glyph-name="omicrontonos" unicode="&#x3cc;" horiz-adv-x="383" 
d="M195 674h68l-56 -135h-45zM190 -8c-46 0 -83.666 21.1689 -112.999 63.502s-44 104.166 -44 185.499c0 82.667 15.667 145 47 187s69.666 63 114.999 63c46 0 83.5 -21.333 112.5 -64s43.5 -104.334 43.5 -185.001c0 -86 -16 -149.167 -48 -189.5
s-69.667 -60.5 -113 -60.5zM194.001 53.002c20.667 0 37.3291 11 49.9961 33s20.834 46 24.501 72s5.5 54 5.5 84c0 21.333 -1.16699 41.833 -3.5 61.5s-6.33301 39.5 -12 59.5s-14.167 36.167 -25.5 48.5s-25 18.5 -41 18.5s-29.833 -6.16699 -41.5 -18.5
s-20.167 -28.5 -25.5 -48.5s-9.16602 -39.833 -11.499 -59.5s-3.5 -40.167 -3.5 -61.5c0 -22.667 1.16699 -44 3.5 -64s6.33301 -40 12 -60s14.334 -35.833 26.001 -47.5s25.834 -17.5 42.501 -17.5z" />
    <glyph glyph-name="upsilontonos" unicode="&#x3cd;" horiz-adv-x="377" 
d="M188 676h71l-56 -135h-48zM238 484l72 -0.000976562c20.667 -49.333 31 -113.666 31 -192.999c0 -199.333 -53.667 -299 -161 -299c-40.667 0 -72.667 13 -96 39s-35 62.333 -35 109v183c0 87.333 -2.66699 141 -8 161h74c6.66699 -12 10 -44.667 10 -98v-237
c0 -30 5.83301 -52.833 17.5 -68.5s26.167 -23.5 43.5 -23.5c53.333 0 80 72.333 80 217c0 94 -9.33301 164 -28 210z" />
    <glyph glyph-name="omegatonos" unicode="&#x3ce;" horiz-adv-x="521" 
d="M269 674h68l-56 -135h-44zM296 333l-1.00293 -191c0 -19.333 4.5 -38.333 13.5 -57s21.5 -28 37.5 -28c18.667 0 34.167 15.833 46.5 47.5s18.5 77.167 18.5 136.5c0 99.333 -22.333 179.666 -67 240.999v2h70c19.333 -19.333 36.5 -51.333 51.5 -96
s22.5 -93.667 22.5 -147c0 -78 -12.833 -139 -38.5 -183s-59.167 -66 -100.5 -66c-39.333 0 -68.333 23.333 -87 70h-3c-7.33301 -20.667 -19.166 -37.5 -35.499 -50.5s-35.833 -19.5 -58.5 -19.5c-37.333 0 -68.666 20.167 -93.999 60.5s-38 100.166 -38 179.499
c0 56.667 7.66699 107.834 23 153.501s32.333 78.5 51 98.5h69v-2c-44.667 -60 -67 -141.667 -67 -245c0 -59.333 6.16699 -104.166 18.5 -134.499s27.833 -45.5 46.5 -45.5c16.667 0 29.334 9.16699 38.001 27.5s13 37.833 13 58.5l-1 190h72z" />
    </font>
</defs>
</svg>
